<?xml version="1.0" encoding="UTF-8" standalone="no"?>
<!DOCTYPE svg PUBLIC "-//W3C//DTD SVG 1.1//EN"
 "http://www.w3.org/Graphics/SVG/1.1/DTD/svg11.dtd">
<!-- Generated by graphviz version 2.38.0 (20140413.2041)
 -->
<!-- Title: %3 Pages: 1 -->
<svg width="1263pt" height="2842pt"
 viewBox="0.00 0.00 1262.50 2842.00" xmlns="http://www.w3.org/2000/svg" xmlns:xlink="http://www.w3.org/1999/xlink">
<g id="graph0" class="graph" transform="scale(1 1) rotate(0) translate(4 2838)">
<title>%3</title>
<polygon fill="white" stroke="none" points="-4,4 -4,-2838 1258.5,-2838 1258.5,4 -4,4"/>
<!-- unhappy -->
<g id="node1" class="node"><title>unhappy</title>
<path fill="none" stroke="black" d="M358.5,-2834C358.5,-2834 246.5,-2834 246.5,-2834 240.5,-2834 234.5,-2828 234.5,-2822 234.5,-2822 234.5,-2810 234.5,-2810 234.5,-2804 240.5,-2798 246.5,-2798 246.5,-2798 358.5,-2798 358.5,-2798 364.5,-2798 370.5,-2804 370.5,-2810 370.5,-2810 370.5,-2822 370.5,-2822 370.5,-2828 364.5,-2834 358.5,-2834"/>
<text text-anchor="middle" x="302.5" y="-2812.3" font-family="Times,serif" font-size="14.00">React makes you sad.</text>
</g>
<!-- are_you_using_react_boilerplates -->
<g id="node2" class="node"><title>are_you_using_react_boilerplates</title>
<polygon fill="none" stroke="black" points="302.5,-2761 124.5,-2708 302.5,-2655 480.5,-2708 302.5,-2761"/>
<text text-anchor="middle" x="302.5" y="-2719.3" font-family="Times,serif" font-size="14.00">Are you learning</text>
<text text-anchor="middle" x="302.5" y="-2704.3" font-family="Times,serif" font-size="14.00"> &#160;&#160;&#160;React by copying from the</text>
<text text-anchor="middle" x="302.5" y="-2689.3" font-family="Times,serif" font-size="14.00"> &#160;&#160;&#160;boilerplate projects?</text>
</g>
<!-- unhappy&#45;&gt;are_you_using_react_boilerplates -->
<g id="edge1" class="edge"><title>unhappy&#45;&gt;are_you_using_react_boilerplates</title>
<path fill="none" stroke="black" d="M302.5,-2797.97C302.5,-2790.5 302.5,-2781.22 302.5,-2771.51"/>
<polygon fill="black" stroke="black" points="306,-2771.28 302.5,-2761.28 299,-2771.28 306,-2771.28"/>
</g>
<!-- boilerplates_dont_teach -->
<g id="node3" class="node"><title>boilerplates_dont_teach</title>
<polygon fill="none" stroke="black" points="295,-2604 0,-2604 0,-2371 295,-2371 295,-2604"/>
<text text-anchor="middle" x="147.5" y="-2588.8" font-family="Times,serif" font-size="14.00">Learning React by copying boilerplates</text>
<text text-anchor="middle" x="147.5" y="-2573.8" font-family="Times,serif" font-size="14.00"> &#160;&#160;&#160;is like learning to cook by eating food in</text>
<text text-anchor="middle" x="147.5" y="-2558.8" font-family="Times,serif" font-size="14.00"> &#160;&#160;&#160;fancy restaurants. It doesn’t work. You need</text>
<text text-anchor="middle" x="147.5" y="-2543.8" font-family="Times,serif" font-size="14.00"> &#160;&#160;&#160;to start with basics and ignore the fear of</text>
<text text-anchor="middle" x="147.5" y="-2528.8" font-family="Times,serif" font-size="14.00"> &#160;&#160;&#160;missing out. It’s unfounded. People create</text>
<text text-anchor="middle" x="147.5" y="-2513.8" font-family="Times,serif" font-size="14.00"> &#160;&#160;&#160;boilerplates to show off what they built</text>
<text text-anchor="middle" x="147.5" y="-2498.8" font-family="Times,serif" font-size="14.00"> &#160;&#160;&#160;or learned, not to help you learn. They are</text>
<text text-anchor="middle" x="147.5" y="-2483.8" font-family="Times,serif" font-size="14.00"> &#160;&#160;&#160;created by and for power users, and are often</text>
<text text-anchor="middle" x="147.5" y="-2468.8" font-family="Times,serif" font-size="14.00"> &#160;&#160;&#160;way more experimental than they care to admit.</text>
<text text-anchor="middle" x="147.5" y="-2453.8" font-family="Times,serif" font-size="14.00"> &#160;&#160;&#160;Boilerplates compete for attention which leads</text>
<text text-anchor="middle" x="147.5" y="-2438.8" font-family="Times,serif" font-size="14.00"> &#160;&#160;&#160;to more bloat. If you’re in it for React, learn</text>
<text text-anchor="middle" x="147.5" y="-2423.8" font-family="Times,serif" font-size="14.00"> &#160;&#160;&#160;it in the order Pete Hunt described in his guide:</text>
<text text-anchor="middle" x="147.5" y="-2408.8" font-family="Times,serif" font-size="14.00"> &#160;&#160;&#160;https://github.com/petehunt/react&#45;howto.</text>
<text text-anchor="middle" x="147.5" y="-2393.8" font-family="Times,serif" font-size="14.00"> &#160;&#160;&#160;Look at boilerplates no sooner than you can</text>
<text text-anchor="middle" x="147.5" y="-2378.8" font-family="Times,serif" font-size="14.00"> &#160;&#160;&#160;create your own.</text>
</g>
<!-- are_you_using_react_boilerplates&#45;&gt;boilerplates_dont_teach -->
<g id="edge2" class="edge"><title>are_you_using_react_boilerplates&#45;&gt;boilerplates_dont_teach</title>
<path fill="none" stroke="black" d="M271.877,-2663.83C261.166,-2648.73 248.541,-2630.94 235.512,-2612.57"/>
<polygon fill="black" stroke="black" points="238.144,-2610.23 229.503,-2604.1 232.435,-2614.28 238.144,-2610.23"/>
<text text-anchor="middle" x="262" y="-2625.8" font-family="Times,serif" font-size="14.00">yes</text>
</g>
<!-- steal_from_boilerplates -->
<g id="node4" class="node"><title>steal_from_boilerplates</title>
<polygon fill="none" stroke="black" points="603.5,-2566.5 313.5,-2566.5 313.5,-2408.5 603.5,-2408.5 603.5,-2566.5"/>
<text text-anchor="middle" x="458.5" y="-2551.3" font-family="Times,serif" font-size="14.00">While boilerplates are not a good</text>
<text text-anchor="middle" x="458.5" y="-2536.3" font-family="Times,serif" font-size="14.00"> &#160;&#160;&#160;way to learn the technologies they combine,</text>
<text text-anchor="middle" x="458.5" y="-2521.3" font-family="Times,serif" font-size="14.00"> &#160;&#160;&#160;they are useful to see how these technologies</text>
<text text-anchor="middle" x="458.5" y="-2506.3" font-family="Times,serif" font-size="14.00"> &#160;&#160;&#160;can be tied together *after* you’re comfortable</text>
<text text-anchor="middle" x="458.5" y="-2491.3" font-family="Times,serif" font-size="14.00"> &#160;&#160;&#160;with each of them independently. It’s a great</text>
<text text-anchor="middle" x="458.5" y="-2476.3" font-family="Times,serif" font-size="14.00"> &#160;&#160;&#160;way to discover new technologies but you</text>
<text text-anchor="middle" x="458.5" y="-2461.3" font-family="Times,serif" font-size="14.00"> &#160;&#160;&#160;shouldn’t feel obligated to use them at all.</text>
<text text-anchor="middle" x="458.5" y="-2446.3" font-family="Times,serif" font-size="14.00"> &#160;&#160;&#160;Don’t give up on boilerplates completely.</text>
<text text-anchor="middle" x="458.5" y="-2431.3" font-family="Times,serif" font-size="14.00"> &#160;&#160;&#160;Just keep in mind that a boilerplate is</text>
<text text-anchor="middle" x="458.5" y="-2416.3" font-family="Times,serif" font-size="14.00"> &#160;&#160;&#160;a bag of tricks, not a solid base for your app.</text>
</g>
<!-- are_you_using_react_boilerplates&#45;&gt;steal_from_boilerplates -->
<g id="edge3" class="edge"><title>are_you_using_react_boilerplates&#45;&gt;steal_from_boilerplates</title>
<path fill="none" stroke="black" d="M333.134,-2664.09C351.299,-2638.65 374.978,-2605.48 396.86,-2574.84"/>
<polygon fill="black" stroke="black" points="399.715,-2576.86 402.677,-2566.69 394.018,-2572.79 399.715,-2576.86"/>
<text text-anchor="middle" x="369.5" y="-2625.8" font-family="Times,serif" font-size="14.00">no</text>
</g>
<!-- are_you_using_flux -->
<g id="node5" class="node"><title>are_you_using_flux</title>
<polygon fill="none" stroke="black" points="338.5,-2334 232.5,-2281 338.5,-2228 444.5,-2281 338.5,-2334"/>
<text text-anchor="middle" x="338.5" y="-2292.3" font-family="Times,serif" font-size="14.00">Are you using</text>
<text text-anchor="middle" x="338.5" y="-2277.3" font-family="Times,serif" font-size="14.00"> &#160;&#160;&#160;a Flux library</text>
<text text-anchor="middle" x="338.5" y="-2262.3" font-family="Times,serif" font-size="14.00"> &#160;&#160;&#160;(or Redux)?</text>
</g>
<!-- boilerplates_dont_teach&#45;&gt;are_you_using_flux -->
<g id="edge4" class="edge"><title>boilerplates_dont_teach&#45;&gt;are_you_using_flux</title>
<path fill="none" stroke="black" d="M255.558,-2370.8C270.799,-2354.49 285.605,-2338.63 298.389,-2324.95"/>
<polygon fill="black" stroke="black" points="301.004,-2327.27 305.272,-2317.58 295.888,-2322.5 301.004,-2327.27"/>
</g>
<!-- steal_from_boilerplates&#45;&gt;are_you_using_flux -->
<g id="edge5" class="edge"><title>steal_from_boilerplates&#45;&gt;are_you_using_flux</title>
<path fill="none" stroke="black" d="M412.619,-2408.31C397.433,-2382.43 380.966,-2354.37 367.42,-2331.28"/>
<polygon fill="black" stroke="black" points="370.269,-2329.22 362.189,-2322.37 364.231,-2332.77 370.269,-2329.22"/>
</g>
<!-- is_too_much_flux -->
<g id="node6" class="node"><title>is_too_much_flux</title>
<polygon fill="none" stroke="black" points="227.5,-2162 83.5,-2109 227.5,-2056 371.5,-2109 227.5,-2162"/>
<text text-anchor="middle" x="227.5" y="-2120.3" font-family="Times,serif" font-size="14.00">Does it add</text>
<text text-anchor="middle" x="227.5" y="-2105.3" font-family="Times,serif" font-size="14.00"> &#160;&#160;&#160;a lot of boilerplate</text>
<text text-anchor="middle" x="227.5" y="-2090.3" font-family="Times,serif" font-size="14.00"> &#160;&#160;&#160;for no obvious gain?</text>
</g>
<!-- are_you_using_flux&#45;&gt;is_too_much_flux -->
<g id="edge6" class="edge"><title>are_you_using_flux&#45;&gt;is_too_much_flux</title>
<path fill="none" stroke="black" d="M312.755,-2240.57C297.22,-2216.78 277.268,-2186.22 260.571,-2160.65"/>
<polygon fill="black" stroke="black" points="263.443,-2158.65 255.045,-2152.19 257.582,-2162.47 263.443,-2158.65"/>
<text text-anchor="middle" x="300" y="-2198.8" font-family="Times,serif" font-size="14.00">yes</text>
</g>
<!-- is_not_enough_flux -->
<g id="node7" class="node"><title>is_not_enough_flux</title>
<polygon fill="none" stroke="black" points="628.5,-2177 389.5,-2109 628.5,-2041 867.5,-2109 628.5,-2177"/>
<text text-anchor="middle" x="628.5" y="-2127.8" font-family="Times,serif" font-size="14.00">Do you have a few</text>
<text text-anchor="middle" x="628.5" y="-2112.8" font-family="Times,serif" font-size="14.00"> &#160;&#160;&#160;bloated stateful components at the top</text>
<text text-anchor="middle" x="628.5" y="-2097.8" font-family="Times,serif" font-size="14.00"> &#160;&#160;&#160;of your component hierarchy that are</text>
<text text-anchor="middle" x="628.5" y="-2082.8" font-family="Times,serif" font-size="14.00"> &#160;&#160;&#160;often the source of bugs?</text>
</g>
<!-- are_you_using_flux&#45;&gt;is_not_enough_flux -->
<g id="edge7" class="edge"><title>are_you_using_flux&#45;&gt;is_not_enough_flux</title>
<path fill="none" stroke="black" d="M386.388,-2251.93C428.741,-2227.1 491.553,-2190.28 542.586,-2160.36"/>
<polygon fill="black" stroke="black" points="544.461,-2163.32 551.318,-2155.24 540.921,-2157.28 544.461,-2163.32"/>
<text text-anchor="middle" x="490.5" y="-2198.8" font-family="Times,serif" font-size="14.00">no</text>
</g>
<!-- remove_flux -->
<g id="node8" class="node"><title>remove_flux</title>
<polygon fill="none" stroke="black" points="382,-1990 131,-1990 131,-1922 382,-1922 382,-1990"/>
<text text-anchor="middle" x="256.5" y="-1974.8" font-family="Times,serif" font-size="14.00">Remove the Flux library.</text>
<text text-anchor="middle" x="256.5" y="-1959.8" font-family="Times,serif" font-size="14.00"> &#160;&#160;&#160;Get a good feel for structuring</text>
<text text-anchor="middle" x="256.5" y="-1944.8" font-family="Times,serif" font-size="14.00"> &#160;&#160;&#160;apps in vanilla React by reading</text>
<text text-anchor="middle" x="256.5" y="-1929.8" font-family="Times,serif" font-size="14.00"> &#160;&#160;&#160;“Thinking in React” in the official docs.</text>
</g>
<!-- is_too_much_flux&#45;&gt;remove_flux -->
<g id="edge8" class="edge"><title>is_too_much_flux&#45;&gt;remove_flux</title>
<path fill="none" stroke="black" d="M236.835,-2059.39C240.496,-2040.33 244.661,-2018.64 248.213,-2000.15"/>
<polygon fill="black" stroke="black" points="251.667,-2000.72 250.116,-1990.24 244.793,-1999.4 251.667,-2000.72"/>
<text text-anchor="middle" x="256" y="-2011.8" font-family="Times,serif" font-size="14.00">yes</text>
</g>
<!-- are_you_using_bundler -->
<g id="node9" class="node"><title>are_you_using_bundler</title>
<polygon fill="none" stroke="black" points="446.5,-1885 255.5,-1832 446.5,-1779 637.5,-1832 446.5,-1885"/>
<text text-anchor="middle" x="446.5" y="-1843.3" font-family="Times,serif" font-size="14.00">Are you using</text>
<text text-anchor="middle" x="446.5" y="-1828.3" font-family="Times,serif" font-size="14.00"> &#160;&#160;&#160;a JavaScript bundler</text>
<text text-anchor="middle" x="446.5" y="-1813.3" font-family="Times,serif" font-size="14.00"> &#160;&#160;&#160;(e.g. Webpack, Browserify)?</text>
</g>
<!-- is_too_much_flux&#45;&gt;are_you_using_bundler -->
<g id="edge9" class="edge"><title>is_too_much_flux&#45;&gt;are_you_using_bundler</title>
<path fill="none" stroke="black" d="M286.103,-2077.5C320.684,-2056.89 362.939,-2026.75 390.5,-1990 411.962,-1961.38 425.755,-1923.79 434.28,-1892.57"/>
<polygon fill="black" stroke="black" points="437.724,-1893.23 436.867,-1882.67 430.951,-1891.46 437.724,-1893.23"/>
<text text-anchor="middle" x="432.5" y="-1952.3" font-family="Times,serif" font-size="14.00">no</text>
</g>
<!-- is_not_enough_flux&#45;&gt;are_you_using_bundler -->
<g id="edge11" class="edge"><title>is_not_enough_flux&#45;&gt;are_you_using_bundler</title>
<path fill="none" stroke="black" d="M553.059,-2062.16C527.125,-2042.9 500.195,-2018.33 482.5,-1990 464.667,-1961.44 455.645,-1925.02 451.091,-1894.45"/>
<polygon fill="black" stroke="black" points="454.53,-1893.77 449.712,-1884.33 447.594,-1894.71 454.53,-1893.77"/>
<text text-anchor="middle" x="489.5" y="-1952.3" font-family="Times,serif" font-size="14.00">no</text>
</g>
<!-- add_flux -->
<g id="node10" class="node"><title>add_flux</title>
<polygon fill="none" stroke="black" points="725.5,-1990 505.5,-1990 505.5,-1922 725.5,-1922 725.5,-1990"/>
<text text-anchor="middle" x="615.5" y="-1974.8" font-family="Times,serif" font-size="14.00">Consider adding a Flux library.</text>
<text text-anchor="middle" x="615.5" y="-1959.8" font-family="Times,serif" font-size="14.00"> &#160;&#160;&#160;It can help externalize the state</text>
<text text-anchor="middle" x="615.5" y="-1944.8" font-family="Times,serif" font-size="14.00"> &#160;&#160;&#160;shared between many components</text>
<text text-anchor="middle" x="615.5" y="-1929.8" font-family="Times,serif" font-size="14.00"> &#160;&#160;&#160;and update it consistently.</text>
</g>
<!-- is_not_enough_flux&#45;&gt;add_flux -->
<g id="edge10" class="edge"><title>is_not_enough_flux&#45;&gt;add_flux</title>
<path fill="none" stroke="black" d="M622.836,-2042.21C621.616,-2028.04 620.356,-2013.4 619.231,-2000.34"/>
<polygon fill="black" stroke="black" points="622.707,-1999.91 618.362,-1990.25 615.733,-2000.51 622.707,-1999.91"/>
<text text-anchor="middle" x="630" y="-2011.8" font-family="Times,serif" font-size="14.00">yes</text>
</g>
<!-- remove_flux&#45;&gt;are_you_using_bundler -->
<g id="edge13" class="edge"><title>remove_flux&#45;&gt;are_you_using_bundler</title>
<path fill="none" stroke="black" d="M307.917,-1921.99C330.429,-1907.53 357.111,-1890.4 381.022,-1875.04"/>
<polygon fill="black" stroke="black" points="383.169,-1877.82 389.693,-1869.48 379.387,-1871.93 383.169,-1877.82"/>
</g>
<!-- are_you_working_on_production_app_with_bundler -->
<g id="node11" class="node"><title>are_you_working_on_production_app_with_bundler</title>
<polygon fill="none" stroke="black" points="352.5,-1728 181.5,-1690 352.5,-1652 523.5,-1690 352.5,-1728"/>
<text text-anchor="middle" x="352.5" y="-1693.8" font-family="Times,serif" font-size="14.00">Are you working</text>
<text text-anchor="middle" x="352.5" y="-1678.8" font-family="Times,serif" font-size="14.00"> &#160;&#160;&#160;on a non&#45;production app?</text>
</g>
<!-- are_you_using_bundler&#45;&gt;are_you_working_on_production_app_with_bundler -->
<g id="edge14" class="edge"><title>are_you_using_bundler&#45;&gt;are_you_working_on_production_app_with_bundler</title>
<path fill="none" stroke="black" d="M417.016,-1787.09C405.186,-1769.47 391.63,-1749.28 380.006,-1731.97"/>
<polygon fill="black" stroke="black" points="382.604,-1729.56 374.124,-1723.21 376.792,-1733.46 382.604,-1729.56"/>
<text text-anchor="middle" x="409" y="-1749.8" font-family="Times,serif" font-size="14.00">yes</text>
</g>
<!-- are_you_working_on_production_app_without_bundler -->
<g id="node12" class="node"><title>are_you_working_on_production_app_without_bundler</title>
<polygon fill="none" stroke="black" points="687.5,-1728 541.5,-1690 687.5,-1652 833.5,-1690 687.5,-1728"/>
<text text-anchor="middle" x="687.5" y="-1693.8" font-family="Times,serif" font-size="14.00">Are you working</text>
<text text-anchor="middle" x="687.5" y="-1678.8" font-family="Times,serif" font-size="14.00"> &#160;&#160;&#160;on a production app?</text>
</g>
<!-- are_you_using_bundler&#45;&gt;are_you_working_on_production_app_without_bundler -->
<g id="edge15" class="edge"><title>are_you_using_bundler&#45;&gt;are_you_working_on_production_app_without_bundler</title>
<path fill="none" stroke="black" d="M507.314,-1795.67C546.559,-1772.87 597.102,-1743.51 634.666,-1721.69"/>
<polygon fill="black" stroke="black" points="636.548,-1724.65 643.437,-1716.6 633.032,-1718.59 636.548,-1724.65"/>
<text text-anchor="middle" x="595.5" y="-1749.8" font-family="Times,serif" font-size="14.00">no</text>
</g>
<!-- add_flux&#45;&gt;are_you_using_bundler -->
<g id="edge12" class="edge"><title>add_flux&#45;&gt;are_you_using_bundler</title>
<path fill="none" stroke="black" d="M569.766,-1921.99C550.349,-1907.97 527.445,-1891.43 506.682,-1876.45"/>
<polygon fill="black" stroke="black" points="508.697,-1873.58 498.54,-1870.57 504.6,-1879.26 508.697,-1873.58"/>
</g>
<!-- do_you_know_es2015 -->
<g id="node13" class="node"><title>do_you_know_es2015</title>
<polygon fill="none" stroke="black" points="603.5,-1451 379.5,-1398 603.5,-1345 827.5,-1398 603.5,-1451"/>
<text text-anchor="middle" x="603.5" y="-1409.3" font-family="Times,serif" font-size="14.00">Do you feel</text>
<text text-anchor="middle" x="603.5" y="-1394.3" font-family="Times,serif" font-size="14.00"> &#160;&#160;&#160;comfortable using ES2015 features</text>
<text text-anchor="middle" x="603.5" y="-1379.3" font-family="Times,serif" font-size="14.00"> &#160;&#160;&#160;(e.g. classes and fat arrows)?</text>
</g>
<!-- are_you_working_on_production_app_with_bundler&#45;&gt;do_you_know_es2015 -->
<g id="edge16" class="edge"><title>are_you_working_on_production_app_with_bundler&#45;&gt;do_you_know_es2015</title>
<path fill="none" stroke="black" d="M324.598,-1658.03C312.182,-1642.18 298.932,-1621.85 292.5,-1601 277.696,-1553.01 262.265,-1528.1 292.5,-1488 314.014,-1459.47 390.996,-1437.31 462.981,-1422.24"/>
<polygon fill="black" stroke="black" points="464.008,-1425.6 473.099,-1420.16 462.599,-1418.74 464.008,-1425.6"/>
<text text-anchor="middle" x="302" y="-1540.8" font-family="Times,serif" font-size="14.00">yes</text>
</g>
<!-- remove_bundler -->
<g id="node14" class="node"><title>remove_bundler</title>
<polygon fill="none" stroke="black" points="620,-1601 321,-1601 321,-1488 620,-1488 620,-1601"/>
<text text-anchor="middle" x="470.5" y="-1585.8" font-family="Times,serif" font-size="14.00">There is no need for a bundler</text>
<text text-anchor="middle" x="470.5" y="-1570.8" font-family="Times,serif" font-size="14.00"> &#160;&#160;&#160;if you are just learning React.</text>
<text text-anchor="middle" x="470.5" y="-1555.8" font-family="Times,serif" font-size="14.00"> &#160;&#160;&#160;Copy https://github.com/jarsbe/react&#45;simple</text>
<text text-anchor="middle" x="470.5" y="-1540.8" font-family="Times,serif" font-size="14.00"> &#160;&#160;&#160;and start hacking with no build step.</text>
<text text-anchor="middle" x="470.5" y="-1525.8" font-family="Times,serif" font-size="14.00"> &#160;&#160;&#160;Use &lt;script&gt; tags until you are comfortable</text>
<text text-anchor="middle" x="470.5" y="-1510.8" font-family="Times,serif" font-size="14.00"> &#160;&#160;&#160;with React and want to learn more about module</text>
<text text-anchor="middle" x="470.5" y="-1495.8" font-family="Times,serif" font-size="14.00"> &#160;&#160;&#160;systems and different bundlers.</text>
</g>
<!-- are_you_working_on_production_app_with_bundler&#45;&gt;remove_bundler -->
<g id="edge17" class="edge"><title>are_you_working_on_production_app_with_bundler&#45;&gt;remove_bundler</title>
<path fill="none" stroke="black" d="M378.396,-1657.51C390.056,-1643.33 404.267,-1626.05 418.002,-1609.34"/>
<polygon fill="black" stroke="black" points="421.045,-1611.15 424.693,-1601.21 415.639,-1606.71 421.045,-1611.15"/>
<text text-anchor="middle" x="415.5" y="-1622.8" font-family="Times,serif" font-size="14.00">no</text>
</g>
<!-- are_you_working_on_production_app_without_bundler&#45;&gt;do_you_know_es2015 -->
<g id="edge19" class="edge"><title>are_you_working_on_production_app_without_bundler&#45;&gt;do_you_know_es2015</title>
<path fill="none" stroke="black" d="M677.579,-1654.49C666.058,-1614.44 646.463,-1546.42 629.5,-1488 626.643,-1478.16 623.599,-1467.71 620.638,-1457.56"/>
<polygon fill="black" stroke="black" points="623.996,-1456.57 617.833,-1447.96 617.276,-1458.54 623.996,-1456.57"/>
<text text-anchor="middle" x="668.5" y="-1540.8" font-family="Times,serif" font-size="14.00">no</text>
</g>
<!-- add_bundler -->
<g id="node15" class="node"><title>add_bundler</title>
<polygon fill="none" stroke="black" points="944.5,-1601 688.5,-1601 688.5,-1488 944.5,-1488 944.5,-1601"/>
<text text-anchor="middle" x="816.5" y="-1585.8" font-family="Times,serif" font-size="14.00">Add a bundler as a build step</text>
<text text-anchor="middle" x="816.5" y="-1570.8" font-family="Times,serif" font-size="14.00"> &#160;&#160;&#160;to keep dependencies manageable</text>
<text text-anchor="middle" x="816.5" y="-1555.8" font-family="Times,serif" font-size="14.00"> &#160;&#160;&#160;and serve the JavaScript code efficiently.</text>
<text text-anchor="middle" x="816.5" y="-1540.8" font-family="Times,serif" font-size="14.00"> &#160;&#160;&#160;Use Google Page Speed insights tool</text>
<text text-anchor="middle" x="816.5" y="-1525.8" font-family="Times,serif" font-size="14.00"> &#160;&#160;&#160;to gauge how well you are doing.</text>
<text text-anchor="middle" x="816.5" y="-1510.8" font-family="Times,serif" font-size="14.00"> &#160;&#160;&#160;Remember to minify and envify</text>
<text text-anchor="middle" x="816.5" y="-1495.8" font-family="Times,serif" font-size="14.00"> &#160;&#160;&#160;your code.</text>
</g>
<!-- are_you_working_on_production_app_without_bundler&#45;&gt;add_bundler -->
<g id="edge18" class="edge"><title>are_you_working_on_production_app_without_bundler&#45;&gt;add_bundler</title>
<path fill="none" stroke="black" d="M714.543,-1658.92C727.73,-1644.25 744.115,-1626.02 759.865,-1608.5"/>
<polygon fill="black" stroke="black" points="762.482,-1610.82 766.565,-1601.05 757.276,-1606.15 762.482,-1610.82"/>
<text text-anchor="middle" x="757" y="-1622.8" font-family="Times,serif" font-size="14.00">yes</text>
</g>
<!-- use_es5 -->
<g id="node16" class="node"><title>use_es5</title>
<polygon fill="none" stroke="black" points="751.5,-1140 419.5,-1140 419.5,-982 751.5,-982 751.5,-1140"/>
<text text-anchor="middle" x="585.5" y="-1124.8" font-family="Times,serif" font-size="14.00">Don’t use ES2015 yet.</text>
<text text-anchor="middle" x="585.5" y="-1109.8" font-family="Times,serif" font-size="14.00"> &#160;&#160;&#160;You don’t need it to learn React.</text>
<text text-anchor="middle" x="585.5" y="-1094.8" font-family="Times,serif" font-size="14.00"> &#160;&#160;&#160;Third&#45;party libraries will often use</text>
<text text-anchor="middle" x="585.5" y="-1079.8" font-family="Times,serif" font-size="14.00"> &#160;&#160;&#160;ES2015 syntax in their documentation but</text>
<text text-anchor="middle" x="585.5" y="-1064.8" font-family="Times,serif" font-size="14.00"> &#160;&#160;&#160;you don’t need third&#45;party libraries when</text>
<text text-anchor="middle" x="585.5" y="-1049.8" font-family="Times,serif" font-size="14.00"> &#160;&#160;&#160;you are just learning React itself.</text>
<text text-anchor="middle" x="585.5" y="-1034.8" font-family="Times,serif" font-size="14.00"> &#160;&#160;&#160;When you feel like updating your JavaScript</text>
<text text-anchor="middle" x="585.5" y="-1019.8" font-family="Times,serif" font-size="14.00"> &#160;&#160;&#160;knowledge, https://leanpub.com/understandinges6/read</text>
<text text-anchor="middle" x="585.5" y="-1004.8" font-family="Times,serif" font-size="14.00"> &#160;&#160;&#160;is an amazing guide. Use http://babeljs.io/repl</text>
<text text-anchor="middle" x="585.5" y="-989.8" font-family="Times,serif" font-size="14.00"> &#160;&#160;&#160;to verify your assumptions.</text>
</g>
<!-- do_you_know_es2015&#45;&gt;use_es5 -->
<g id="edge22" class="edge"><title>do_you_know_es2015&#45;&gt;use_es5</title>
<path fill="none" stroke="black" d="M600.727,-1345.39C597.938,-1293.49 593.586,-1212.49 590.247,-1150.35"/>
<polygon fill="black" stroke="black" points="593.731,-1149.95 589.699,-1140.16 586.741,-1150.33 593.731,-1149.95"/>
<text text-anchor="middle" x="606.5" y="-1315.8" font-family="Times,serif" font-size="14.00">no</text>
</g>
<!-- are_you_using_dangerous_features -->
<g id="node17" class="node"><title>are_you_using_dangerous_features</title>
<polygon fill="none" stroke="black" points="817.5,-1294 613.5,-1226 817.5,-1158 1021.5,-1226 817.5,-1294"/>
<text text-anchor="middle" x="817.5" y="-1244.8" font-family="Times,serif" font-size="14.00">Are you using</text>
<text text-anchor="middle" x="817.5" y="-1229.8" font-family="Times,serif" font-size="14.00"> &#160;&#160;&#160;experimental language features</text>
<text text-anchor="middle" x="817.5" y="-1214.8" font-family="Times,serif" font-size="14.00"> &#160;&#160;&#160;that didn’t make it into ES2015</text>
<text text-anchor="middle" x="817.5" y="-1199.8" font-family="Times,serif" font-size="14.00"> &#160;&#160;&#160;(e.g. decorators)?</text>
</g>
<!-- do_you_know_es2015&#45;&gt;are_you_using_dangerous_features -->
<g id="edge23" class="edge"><title>do_you_know_es2015&#45;&gt;are_you_using_dangerous_features</title>
<path fill="none" stroke="black" d="M653.944,-1356.93C682.529,-1334.22 718.672,-1305.51 749.707,-1280.85"/>
<polygon fill="black" stroke="black" points="752.243,-1283.31 757.896,-1274.35 747.889,-1277.83 752.243,-1283.31"/>
<text text-anchor="middle" x="720" y="-1315.8" font-family="Times,serif" font-size="14.00">yes</text>
</g>
<!-- remove_bundler&#45;&gt;do_you_know_es2015 -->
<g id="edge21" class="edge"><title>remove_bundler&#45;&gt;do_you_know_es2015</title>
<path fill="none" stroke="black" d="M521.921,-1487.63C533.544,-1475 545.815,-1461.67 557.211,-1449.29"/>
<polygon fill="black" stroke="black" points="559.983,-1451.45 564.18,-1441.72 554.833,-1446.71 559.983,-1451.45"/>
</g>
<!-- add_bundler&#45;&gt;do_you_know_es2015 -->
<g id="edge20" class="edge"><title>add_bundler&#45;&gt;do_you_know_es2015</title>
<path fill="none" stroke="black" d="M734.453,-1487.84C712.72,-1473.1 689.55,-1457.38 668.836,-1443.32"/>
<polygon fill="black" stroke="black" points="670.665,-1440.34 660.424,-1437.62 666.735,-1446.13 670.665,-1440.34"/>
</g>
<!-- do_you_update_packages_asap -->
<g id="node18" class="node"><title>do_you_update_packages_asap</title>
<polygon fill="none" stroke="black" points="797.5,-702 564.5,-649 797.5,-596 1030.5,-649 797.5,-702"/>
<text text-anchor="middle" x="797.5" y="-660.3" font-family="Times,serif" font-size="14.00">Do you update to new</text>
<text text-anchor="middle" x="797.5" y="-645.3" font-family="Times,serif" font-size="14.00"> &#160;&#160;&#160;major versions of your dependencies</text>
<text text-anchor="middle" x="797.5" y="-630.3" font-family="Times,serif" font-size="14.00"> &#160;&#160;&#160;as they come out?</text>
</g>
<!-- use_es5&#45;&gt;do_you_update_packages_asap -->
<g id="edge24" class="edge"><title>use_es5&#45;&gt;do_you_update_packages_asap</title>
<path fill="none" stroke="black" d="M620.825,-981.723C653.044,-911.952 703.034,-807.62 752.5,-720 755.412,-714.842 758.546,-709.54 761.755,-704.274"/>
<polygon fill="black" stroke="black" points="764.914,-705.82 767.202,-695.475 758.962,-702.135 764.914,-705.82"/>
</g>
<!-- are_you_using_dangerous_features&#45;&gt;do_you_update_packages_asap -->
<g id="edge26" class="edge"><title>are_you_using_dangerous_features&#45;&gt;do_you_update_packages_asap</title>
<path fill="none" stroke="black" d="M807.458,-1161.11C799.705,-1108.39 789.626,-1031.55 785.5,-964 781.815,-903.668 783.466,-888.41 785.5,-828 786.803,-789.286 789.697,-745.917 792.316,-711.68"/>
<polygon fill="black" stroke="black" points="795.833,-711.604 793.118,-701.363 788.854,-711.062 795.833,-711.604"/>
<text text-anchor="middle" x="793.5" y="-798.8" font-family="Times,serif" font-size="14.00">no</text>
</g>
<!-- can_you_spend_days_on_your_tooling -->
<g id="node19" class="node"><title>can_you_spend_days_on_your_tooling</title>
<polygon fill="none" stroke="black" points="1024.5,-964 794.5,-896 1024.5,-828 1254.5,-896 1024.5,-964"/>
<text text-anchor="middle" x="1024.5" y="-914.8" font-family="Times,serif" font-size="14.00">Can you spend days on</text>
<text text-anchor="middle" x="1024.5" y="-899.8" font-family="Times,serif" font-size="14.00"> &#160;&#160;&#160;fixing your tooling every few weeks</text>
<text text-anchor="middle" x="1024.5" y="-884.8" font-family="Times,serif" font-size="14.00"> &#160;&#160;&#160;due to bugs, incompatibilities,</text>
<text text-anchor="middle" x="1024.5" y="-869.8" font-family="Times,serif" font-size="14.00"> &#160;&#160;&#160;and standard changes?</text>
</g>
<!-- are_you_using_dangerous_features&#45;&gt;can_you_spend_days_on_your_tooling -->
<g id="edge25" class="edge"><title>are_you_using_dangerous_features&#45;&gt;can_you_spend_days_on_your_tooling</title>
<path fill="none" stroke="black" d="M852.615,-1169.36C888.73,-1112.13 944.954,-1023.04 983.186,-962.464"/>
<polygon fill="black" stroke="black" points="986.314,-964.065 988.692,-953.74 980.395,-960.329 986.314,-964.065"/>
<text text-anchor="middle" x="978" y="-1057.3" font-family="Times,serif" font-size="14.00">yes</text>
</g>
<!-- give_it_two_months -->
<g id="node21" class="node"><title>give_it_two_months</title>
<polygon fill="none" stroke="black" points="873.5,-545 547.5,-545 547.5,-387 873.5,-387 873.5,-545"/>
<text text-anchor="middle" x="710.5" y="-529.8" font-family="Times,serif" font-size="14.00">Unless we are talking about React</text>
<text text-anchor="middle" x="710.5" y="-514.8" font-family="Times,serif" font-size="14.00"> &#160;&#160;&#160;which is tested heavily before every release,</text>
<text text-anchor="middle" x="710.5" y="-499.8" font-family="Times,serif" font-size="14.00"> &#160;&#160;&#160;consider slowing down rate of package updates.</text>
<text text-anchor="middle" x="710.5" y="-484.8" font-family="Times,serif" font-size="14.00"> &#160;&#160;&#160;You can try new versions of the dependencies but</text>
<text text-anchor="middle" x="710.5" y="-469.8" font-family="Times,serif" font-size="14.00"> &#160;&#160;&#160;it’s best to keep them in a branch for a couple of</text>
<text text-anchor="middle" x="710.5" y="-454.8" font-family="Times,serif" font-size="14.00"> &#160;&#160;&#160;months until the community finds and fixes the</text>
<text text-anchor="middle" x="710.5" y="-439.8" font-family="Times,serif" font-size="14.00"> &#160;&#160;&#160;most common issues. Don’t make decisions based on</text>
<text text-anchor="middle" x="710.5" y="-424.8" font-family="Times,serif" font-size="14.00"> &#160;&#160;&#160;the fear of missing out! When looking for older docs,</text>
<text text-anchor="middle" x="710.5" y="-409.8" font-family="Times,serif" font-size="14.00"> &#160;&#160;&#160;don’t forget to check tagged releases on GitHub, e.g.</text>
<text text-anchor="middle" x="710.5" y="-394.8" font-family="Times,serif" font-size="14.00"> &#160;&#160;&#160;https://github.com/reactjs/react&#45;router/tree/0.13.x/doc</text>
</g>
<!-- do_you_update_packages_asap&#45;&gt;give_it_two_months -->
<g id="edge30" class="edge"><title>do_you_update_packages_asap&#45;&gt;give_it_two_months</title>
<path fill="none" stroke="black" d="M774.869,-600.917C768.009,-586.645 760.241,-570.484 752.535,-554.452"/>
<polygon fill="black" stroke="black" points="755.499,-552.538 748.012,-545.042 749.189,-555.571 755.499,-552.538"/>
<text text-anchor="middle" x="771" y="-566.8" font-family="Times,serif" font-size="14.00">yes</text>
</g>
<!-- consider_updating_react -->
<g id="node22" class="node"><title>consider_updating_react</title>
<polygon fill="none" stroke="black" points="1139.5,-545 891.5,-545 891.5,-387 1139.5,-387 1139.5,-545"/>
<text text-anchor="middle" x="1015.5" y="-529.8" font-family="Times,serif" font-size="14.00">This is a good call.</text>
<text text-anchor="middle" x="1015.5" y="-514.8" font-family="Times,serif" font-size="14.00"> &#160;&#160;&#160;However we encourage you to</text>
<text text-anchor="middle" x="1015.5" y="-499.8" font-family="Times,serif" font-size="14.00"> &#160;&#160;&#160;try (in a branch!) new versions of</text>
<text text-anchor="middle" x="1015.5" y="-484.8" font-family="Times,serif" font-size="14.00"> &#160;&#160;&#160;React as soon as they come out.</text>
<text text-anchor="middle" x="1015.5" y="-469.8" font-family="Times,serif" font-size="14.00"> &#160;&#160;&#160;Unlike many community packages,</text>
<text text-anchor="middle" x="1015.5" y="-454.8" font-family="Times,serif" font-size="14.00"> &#160;&#160;&#160;they are tested heavily by Facebook.</text>
<text text-anchor="middle" x="1015.5" y="-439.8" font-family="Times,serif" font-size="14.00"> &#160;&#160;&#160;Keep an eye on the release notes</text>
<text text-anchor="middle" x="1015.5" y="-424.8" font-family="Times,serif" font-size="14.00"> &#160;&#160;&#160;as they link to the codemods that</text>
<text text-anchor="middle" x="1015.5" y="-409.8" font-family="Times,serif" font-size="14.00"> &#160;&#160;&#160;automate parts of the migration process</text>
<text text-anchor="middle" x="1015.5" y="-394.8" font-family="Times,serif" font-size="14.00"> &#160;&#160;&#160;for you.</text>
</g>
<!-- do_you_update_packages_asap&#45;&gt;consider_updating_react -->
<g id="edge31" class="edge"><title>do_you_update_packages_asap&#45;&gt;consider_updating_react</title>
<path fill="none" stroke="black" d="M846.695,-607.154C866.553,-590.667 890.245,-570.996 913.51,-551.68"/>
<polygon fill="black" stroke="black" points="915.92,-554.228 921.378,-545.148 911.448,-548.843 915.92,-554.228"/>
<text text-anchor="middle" x="899.5" y="-566.8" font-family="Times,serif" font-size="14.00">no</text>
</g>
<!-- can_you_spend_days_on_your_tooling&#45;&gt;do_you_update_packages_asap -->
<g id="edge27" class="edge"><title>can_you_spend_days_on_your_tooling&#45;&gt;do_you_update_packages_asap</title>
<path fill="none" stroke="black" d="M940.224,-852.691C908.095,-833.214 873.282,-807.582 848.5,-777 832.531,-757.294 821.012,-731.94 813.009,-709.074"/>
<polygon fill="black" stroke="black" points="816.281,-707.824 809.791,-699.45 809.643,-710.044 816.281,-707.824"/>
<text text-anchor="middle" x="858" y="-754.3" font-family="Times,serif" font-size="14.00">yes</text>
</g>
<!-- stick_to_es2015 -->
<g id="node20" class="node"><title>stick_to_es2015</title>
<polygon fill="none" stroke="black" points="1085,-777 876,-777 876,-739 1085,-739 1085,-777"/>
<text text-anchor="middle" x="980.5" y="-761.8" font-family="Times,serif" font-size="14.00">Stick to using at most ES2015,</text>
<text text-anchor="middle" x="980.5" y="-746.8" font-family="Times,serif" font-size="14.00"> &#160;&#160;&#160;JSX, and object spread operator.</text>
</g>
<!-- can_you_spend_days_on_your_tooling&#45;&gt;stick_to_es2015 -->
<g id="edge28" class="edge"><title>can_you_spend_days_on_your_tooling&#45;&gt;stick_to_es2015</title>
<path fill="none" stroke="black" d="M1004.69,-833.763C999.381,-817.358 993.901,-800.422 989.503,-786.827"/>
<polygon fill="black" stroke="black" points="992.779,-785.582 986.371,-777.145 986.119,-787.737 992.779,-785.582"/>
<text text-anchor="middle" x="1002.5" y="-798.8" font-family="Times,serif" font-size="14.00">no</text>
</g>
<!-- stick_to_es2015&#45;&gt;do_you_update_packages_asap -->
<g id="edge29" class="edge"><title>stick_to_es2015&#45;&gt;do_you_update_packages_asap</title>
<path fill="none" stroke="black" d="M949.457,-738.849C927.833,-726.206 898.055,-708.795 870.587,-692.734"/>
<polygon fill="black" stroke="black" points="872.163,-689.601 861.764,-687.575 868.63,-695.644 872.163,-689.601"/>
</g>
<!-- are_you_still_sad -->
<g id="node23" class="node"><title>are_you_still_sad</title>
<polygon fill="none" stroke="black" points="897.5,-350 793.77,-332 897.5,-314 1001.23,-332 897.5,-350"/>
<text text-anchor="middle" x="897.5" y="-328.3" font-family="Times,serif" font-size="14.00">Are you still sad?</text>
</g>
<!-- give_it_two_months&#45;&gt;are_you_still_sad -->
<g id="edge32" class="edge"><title>give_it_two_months&#45;&gt;are_you_still_sad</title>
<path fill="none" stroke="black" d="M821.17,-386.88C839.154,-374.185 856.261,-362.11 869.703,-352.621"/>
<polygon fill="black" stroke="black" points="871.829,-355.405 877.981,-346.778 867.792,-349.686 871.829,-355.405"/>
</g>
<!-- consider_updating_react&#45;&gt;are_you_still_sad -->
<g id="edge33" class="edge"><title>consider_updating_react&#45;&gt;are_you_still_sad</title>
<path fill="none" stroke="black" d="M945.495,-386.689C935.312,-375.298 925.583,-364.415 917.579,-355.461"/>
<polygon fill="black" stroke="black" points="920.024,-352.944 910.75,-347.822 914.805,-357.61 920.024,-352.944"/>
</g>
<!-- rant -->
<g id="node24" class="node"><title>rant</title>
<polygon fill="none" stroke="black" points="900.5,-263 666.5,-263 666.5,-150 900.5,-150 900.5,-263"/>
<text text-anchor="middle" x="783.5" y="-247.8" font-family="Times,serif" font-size="14.00">Write a constructive blog post</text>
<text text-anchor="middle" x="783.5" y="-232.8" font-family="Times,serif" font-size="14.00"> &#160;&#160;&#160;about the problems you encountered.</text>
<text text-anchor="middle" x="783.5" y="-217.8" font-family="Times,serif" font-size="14.00"> &#160;&#160;&#160;Refrain from personal attacks.</text>
<text text-anchor="middle" x="783.5" y="-202.8" font-family="Times,serif" font-size="14.00"> &#160;&#160;&#160;Be polite. Help the community</text>
<text text-anchor="middle" x="783.5" y="-187.8" font-family="Times,serif" font-size="14.00"> &#160;&#160;&#160;figure out the solutions. Consider</text>
<text text-anchor="middle" x="783.5" y="-172.8" font-family="Times,serif" font-size="14.00"> &#160;&#160;&#160;another stack that better suits</text>
<text text-anchor="middle" x="783.5" y="-157.8" font-family="Times,serif" font-size="14.00"> &#160;&#160;&#160;your needs (e.g. Ember).</text>
</g>
<!-- are_you_still_sad&#45;&gt;rant -->
<g id="edge34" class="edge"><title>are_you_still_sad&#45;&gt;rant</title>
<path fill="none" stroke="black" d="M883.521,-315.856C872.9,-304.35 857.514,-287.682 841.982,-270.855"/>
<polygon fill="black" stroke="black" points="844.206,-268.105 834.851,-263.131 839.062,-272.853 844.206,-268.105"/>
<text text-anchor="middle" x="873" y="-284.8" font-family="Times,serif" font-size="14.00">yes</text>
</g>
<!-- happy -->
<g id="node25" class="node"><title>happy</title>
<polygon fill="none" stroke="black" points="1046,-113 737,-113 737,-75 1046,-75 1046,-113"/>
<text text-anchor="middle" x="891.5" y="-97.8" font-family="Times,serif" font-size="14.00">React makes you happy!</text>
<text text-anchor="middle" x="891.5" y="-82.8" font-family="Times,serif" font-size="14.00"> &#160;&#160;&#160;Or, at least, it doesn’t make you that sad anymore.</text>
</g>
<!-- are_you_still_sad&#45;&gt;happy -->
<g id="edge35" class="edge"><title>are_you_still_sad&#45;&gt;happy</title>
<path fill="none" stroke="black" d="M901.22,-314.618C904.132,-300.91 907.942,-280.794 909.5,-263 913.881,-212.969 917.409,-199.596 909.5,-150 908.056,-140.943 905.353,-131.353 902.473,-122.76"/>
<polygon fill="black" stroke="black" points="905.728,-121.469 899.075,-113.224 899.134,-123.818 905.728,-121.469"/>
<text text-anchor="middle" x="920.5" y="-202.8" font-family="Times,serif" font-size="14.00">no</text>
</g>
<!-- rant&#45;&gt;happy -->
<g id="edge36" class="edge"><title>rant&#45;&gt;happy</title>
<path fill="none" stroke="black" d="M837.816,-149.926C847.892,-139.618 857.953,-129.324 866.596,-120.481"/>
<polygon fill="black" stroke="black" points="869.304,-122.717 873.791,-113.119 864.298,-117.824 869.304,-122.717"/>
</g>
<!-- share -->
<g id="node26" class="node"><title>share</title>
<path fill="none" stroke="black" d="M1077,-38C1077,-38 706,-38 706,-38 700,-38 694,-32 694,-26 694,-26 694,-12 694,-12 694,-6 700,-0 706,-0 706,-0 1077,-0 1077,-0 1083,-0 1089,-6 1089,-12 1089,-12 1089,-26 1089,-26 1089,-32 1083,-38 1077,-38"/>
<text text-anchor="middle" x="891.5" y="-22.8" font-family="Times,serif" font-size="14.00">Share this flowchart: http://bit.ly/react&#45;makes&#45;you&#45;sad.</text>
<text text-anchor="middle" x="891.5" y="-7.8" font-family="Times,serif" font-size="14.00"> &#160;&#160;&#160;Based on and inspired by https://github.com/petehunt/react&#45;howto.</text>
</g>
<!-- happy&#45;&gt;share -->
<g id="edge37" class="edge"><title>happy&#45;&gt;share</title>
<path fill="none" stroke="black" d="M891.5,-74.9551C891.5,-66.8828 891.5,-57.1764 891.5,-48.1817"/>
<polygon fill="black" stroke="black" points="895,-48.0903 891.5,-38.0904 888,-48.0904 895,-48.0903"/>
</g>
</g>
</svg>
