<?xml version="1.0" encoding="UTF-8" standalone="no"?>
<!DOCTYPE svg PUBLIC "-//W3C//DTD SVG 1.1//EN"
 "http://www.w3.org/Graphics/SVG/1.1/DTD/svg11.dtd">
<!-- Generated by graphviz version 2.36.0 (20140111.2315)
 -->
<!-- Title: %3 Pages: 1 -->
<svg width="1405pt" height="2832pt"
 viewBox="0.00 0.00 1405.00 2832.00" xmlns="http://www.w3.org/2000/svg" xmlns:xlink="http://www.w3.org/1999/xlink">
<g id="graph0" class="graph" transform="scale(1 1) rotate(0) translate(4 2828)">
<title>%3</title>
<polygon fill="white" stroke="none" points="-4,4 -4,-2828 1401,-2828 1401,4 -4,4"/>
<!-- unhappy -->
<g id="node1" class="node"><title>unhappy</title>
<path fill="none" stroke="black" d="M444.25,-2824C444.25,-2824 337.75,-2824 337.75,-2824 331.75,-2824 325.75,-2818 325.75,-2812 325.75,-2812 325.75,-2800 325.75,-2800 325.75,-2794 331.75,-2788 337.75,-2788 337.75,-2788 444.25,-2788 444.25,-2788 450.25,-2788 456.25,-2794 456.25,-2800 456.25,-2800 456.25,-2812 456.25,-2812 456.25,-2818 450.25,-2824 444.25,-2824"/>
<text text-anchor="middle" x="391" y="-2802.3" font-family="Times,serif" font-size="14.00">React te deixa triste.</text>
</g>
<!-- are_you_using_react_boilerplates -->
<g id="node2" class="node"><title>are_you_using_react_boilerplates</title>
<polygon fill="none" stroke="black" points="391,-2750 208,-2697 391,-2644 574,-2697 391,-2750"/>
<text text-anchor="middle" x="391" y="-2708.3" font-family="Times,serif" font-size="14.00">Você está aprendendo</text>
<text text-anchor="middle" x="391" y="-2693.3" font-family="Times,serif" font-size="14.00"> &#160;&#160;&#160;React copiando de projetos</text>
<text text-anchor="middle" x="391" y="-2678.3" font-family="Times,serif" font-size="14.00"> &#160;&#160;&#160;boilerplate?</text>
</g>
<!-- unhappy&#45;&gt;are_you_using_react_boilerplates -->
<g id="edge1" class="edge"><title>unhappy&#45;&gt;are_you_using_react_boilerplates</title>
<path fill="none" stroke="black" d="M391,-2787.81C391,-2780.1 391,-2770.49 391,-2760.44"/>
<polygon fill="black" stroke="black" points="394.5,-2760.3 391,-2750.3 387.5,-2760.3 394.5,-2760.3"/>
</g>
<!-- boilerplates_dont_teach -->
<g id="node3" class="node"><title>boilerplates_dont_teach</title>
<polygon fill="none" stroke="black" points="382,-2591.5 0,-2591.5 0,-2358.5 382,-2358.5 382,-2591.5"/>
<text text-anchor="middle" x="191" y="-2576.3" font-family="Times,serif" font-size="14.00">Aprender React copiando boilerplates</text>
<text text-anchor="middle" x="191" y="-2561.3" font-family="Times,serif" font-size="14.00"> &#160;&#160;&#160;é como aprender cozinhar comendo em restaurante</text>
<text text-anchor="middle" x="191" y="-2546.3" font-family="Times,serif" font-size="14.00"> &#160;&#160;&#160;chique. Não funciona. Você precisa começar com</text>
<text text-anchor="middle" x="191" y="-2531.3" font-family="Times,serif" font-size="14.00"> &#160;&#160;&#160;o básica e ignorar o medo de não entender algo.</text>
<text text-anchor="middle" x="191" y="-2516.3" font-family="Times,serif" font-size="14.00"> &#160;&#160;&#160;É sem fundamento. Pessoas criam</text>
<text text-anchor="middle" x="191" y="-2501.3" font-family="Times,serif" font-size="14.00"> &#160;&#160;&#160;boilerplates para mostrar o que eles desenvolveram</text>
<text text-anchor="middle" x="191" y="-2486.3" font-family="Times,serif" font-size="14.00"> &#160;&#160;&#160;ou aprenderam, não para te ajudar a aprender. Eles são</text>
<text text-anchor="middle" x="191" y="-2471.3" font-family="Times,serif" font-size="14.00"> &#160;&#160;&#160;criados por e para usuários ativos e normalmente estão</text>
<text text-anchor="middle" x="191" y="-2456.3" font-family="Times,serif" font-size="14.00"> &#160;&#160;&#160;muito mais para um experimento do que eles admitem.</text>
<text text-anchor="middle" x="191" y="-2441.3" font-family="Times,serif" font-size="14.00"> &#160;&#160;&#160;Boilerplates competem por atenção o que leva à</text>
<text text-anchor="middle" x="191" y="-2426.3" font-family="Times,serif" font-size="14.00"> &#160;&#160;&#160;excesso de informação. Se você está nessa pelo React, aprenda</text>
<text text-anchor="middle" x="191" y="-2411.3" font-family="Times,serif" font-size="14.00"> &#160;&#160;&#160;na ordem em que o Pete Hunt descreve neste guia:</text>
<text text-anchor="middle" x="191" y="-2396.3" font-family="Times,serif" font-size="14.00"> &#160;&#160;&#160;https://github.com/petehunt/react&#45;howto.</text>
<text text-anchor="middle" x="191" y="-2381.3" font-family="Times,serif" font-size="14.00"> &#160;&#160;&#160;Olhe para boilerplates apenas quando você tem capacidadade</text>
<text text-anchor="middle" x="191" y="-2366.3" font-family="Times,serif" font-size="14.00"> &#160;&#160;&#160;para entender e criar o seu próprio.</text>
</g>
<!-- are_you_using_react_boilerplates&#45;&gt;boilerplates_dont_teach -->
<g id="edge2" class="edge"><title>are_you_using_react_boilerplates&#45;&gt;boilerplates_dont_teach</title>
<path fill="none" stroke="black" d="M353.382,-2654.62C338.833,-2638.62 321.351,-2619.39 303.327,-2599.56"/>
<polygon fill="black" stroke="black" points="305.714,-2596.98 296.397,-2591.94 300.534,-2601.69 305.714,-2596.98"/>
<text text-anchor="middle" x="337.5" y="-2614.3" font-family="Times,serif" font-size="14.00">sim</text>
</g>
<!-- steal_from_boilerplates -->
<g id="node4" class="node"><title>steal_from_boilerplates</title>
<polygon fill="none" stroke="black" points="783.25,-2554 400.75,-2554 400.75,-2396 783.25,-2396 783.25,-2554"/>
<text text-anchor="middle" x="592" y="-2538.8" font-family="Times,serif" font-size="14.00">Enquanto boilerplates não são uma boa maneira</text>
<text text-anchor="middle" x="592" y="-2523.8" font-family="Times,serif" font-size="14.00"> &#160;&#160;&#160;de se aprender tecnologias combinadas,</text>
<text text-anchor="middle" x="592" y="-2508.8" font-family="Times,serif" font-size="14.00"> &#160;&#160;&#160;eles são úteis para ver como essas tecnologias</text>
<text text-anchor="middle" x="592" y="-2493.8" font-family="Times,serif" font-size="14.00"> &#160;&#160;&#160;podem trabalhar juntas após você estar confortável</text>
<text text-anchor="middle" x="592" y="-2478.8" font-family="Times,serif" font-size="14.00"> &#160;&#160;&#160;com cada uma delas independentemente. É uma ótima maneira</text>
<text text-anchor="middle" x="592" y="-2463.8" font-family="Times,serif" font-size="14.00"> &#160;&#160;&#160;de descobrir novas tecnologias mas você não deveria</text>
<text text-anchor="middle" x="592" y="-2448.8" font-family="Times,serif" font-size="14.00"> &#160;&#160;&#160;se sentir obrigado a usar todas elas.</text>
<text text-anchor="middle" x="592" y="-2433.8" font-family="Times,serif" font-size="14.00"> &#160;&#160;&#160;Não desista completamente dos boilerplates.</text>
<text text-anchor="middle" x="592" y="-2418.8" font-family="Times,serif" font-size="14.00"> &#160;&#160;&#160;Apenas tenha em mente que um boilerplate é um</text>
<text text-anchor="middle" x="592" y="-2403.8" font-family="Times,serif" font-size="14.00"> &#160;&#160;&#160;combinado de truques e não uma base sólida para seu app.</text>
</g>
<!-- are_you_using_react_boilerplates&#45;&gt;steal_from_boilerplates -->
<g id="edge3" class="edge"><title>are_you_using_react_boilerplates&#45;&gt;steal_from_boilerplates</title>
<path fill="none" stroke="black" d="M428.571,-2654.88C452.45,-2628.74 484.259,-2593.92 513.467,-2561.96"/>
<polygon fill="black" stroke="black" points="516.274,-2564.07 520.436,-2554.33 511.107,-2559.35 516.274,-2564.07"/>
<text text-anchor="middle" x="478.5" y="-2614.3" font-family="Times,serif" font-size="14.00">não</text>
</g>
<!-- are_you_using_flux -->
<g id="node5" class="node"><title>are_you_using_flux</title>
<polygon fill="none" stroke="black" points="438,-2320 296,-2267 438,-2214 580,-2267 438,-2320"/>
<text text-anchor="middle" x="438" y="-2278.3" font-family="Times,serif" font-size="14.00">Você está usando</text>
<text text-anchor="middle" x="438" y="-2263.3" font-family="Times,serif" font-size="14.00"> &#160;&#160;&#160;uma biblioteca Flux</text>
<text text-anchor="middle" x="438" y="-2248.3" font-family="Times,serif" font-size="14.00"> &#160;&#160;&#160;(ou Redux)?</text>
</g>
<!-- boilerplates_dont_teach&#45;&gt;are_you_using_flux -->
<g id="edge4" class="edge"><title>boilerplates_dont_teach&#45;&gt;are_you_using_flux</title>
<path fill="none" stroke="black" d="M329.662,-2358.35C349.98,-2341.41 369.743,-2324.93 386.704,-2310.78"/>
<polygon fill="black" stroke="black" points="389.358,-2313.13 394.796,-2304.03 384.875,-2307.75 389.358,-2313.13"/>
</g>
<!-- steal_from_boilerplates&#45;&gt;are_you_using_flux -->
<g id="edge5" class="edge"><title>steal_from_boilerplates&#45;&gt;are_you_using_flux</title>
<path fill="none" stroke="black" d="M533.56,-2395.83C513.77,-2369.35 492.241,-2340.56 474.636,-2317.01"/>
<polygon fill="black" stroke="black" points="477.373,-2314.82 468.582,-2308.91 471.767,-2319.01 477.373,-2314.82"/>
</g>
<!-- is_too_much_flux -->
<g id="node6" class="node"><title>is_too_much_flux</title>
<polygon fill="none" stroke="black" points="305,-2162 123,-2109 305,-2056 487,-2109 305,-2162"/>
<text text-anchor="middle" x="305" y="-2120.3" font-family="Times,serif" font-size="14.00">Isso poderia adicionar muitos</text>
<text text-anchor="middle" x="305" y="-2105.3" font-family="Times,serif" font-size="14.00"> &#160;&#160;&#160;boilerplates sem um</text>
<text text-anchor="middle" x="305" y="-2090.3" font-family="Times,serif" font-size="14.00"> &#160;&#160;&#160;resultado significativo?</text>
</g>
<!-- are_you_using_flux&#45;&gt;is_too_much_flux -->
<g id="edge6" class="edge"><title>are_you_using_flux&#45;&gt;is_too_much_flux</title>
<path fill="none" stroke="black" d="M404.094,-2226.23C386.821,-2205.97 365.65,-2181.14 347.318,-2159.64"/>
<polygon fill="black" stroke="black" points="349.856,-2157.22 340.704,-2151.88 344.529,-2161.76 349.856,-2157.22"/>
<text text-anchor="middle" x="386.5" y="-2184.3" font-family="Times,serif" font-size="14.00">sim</text>
</g>
<!-- is_not_enough_flux -->
<g id="node7" class="node"><title>is_not_enough_flux</title>
<polygon fill="none" stroke="black" points="795,-2162 505,-2109 795,-2056 1085,-2109 795,-2162"/>
<text text-anchor="middle" x="795" y="-2120.3" font-family="Times,serif" font-size="14.00">Você tem alguns estados grandes</text>
<text text-anchor="middle" x="795" y="-2105.3" font-family="Times,serif" font-size="14.00"> &#160;&#160;&#160;em cima da sua hierarquia de componente que</text>
<text text-anchor="middle" x="795" y="-2090.3" font-family="Times,serif" font-size="14.00"> &#160;&#160;&#160;geralmente são a origem dos problemas?</text>
</g>
<!-- are_you_using_flux&#45;&gt;is_not_enough_flux -->
<g id="edge7" class="edge"><title>are_you_using_flux&#45;&gt;is_not_enough_flux</title>
<path fill="none" stroke="black" d="M502.237,-2237.93C557.706,-2213.69 638.573,-2178.35 701.268,-2150.96"/>
<polygon fill="black" stroke="black" points="703.012,-2154.02 710.773,-2146.8 700.209,-2147.6 703.012,-2154.02"/>
<text text-anchor="middle" x="638.5" y="-2184.3" font-family="Times,serif" font-size="14.00">não</text>
</g>
<!-- remove_flux -->
<g id="node8" class="node"><title>remove_flux</title>
<polygon fill="none" stroke="black" points="499.25,-2004 212.75,-2004 212.75,-1936 499.25,-1936 499.25,-2004"/>
<text text-anchor="middle" x="356" y="-1988.8" font-family="Times,serif" font-size="14.00">Remova a biblioteca Flux.</text>
<text text-anchor="middle" x="356" y="-1973.8" font-family="Times,serif" font-size="14.00"> &#160;&#160;&#160;Se sinta confortável em estruturar</text>
<text text-anchor="middle" x="356" y="-1958.8" font-family="Times,serif" font-size="14.00"> &#160;&#160;&#160;apps em React puro lendo o</text>
<text text-anchor="middle" x="356" y="-1943.8" font-family="Times,serif" font-size="14.00"> &#160;&#160;&#160;“Thinking in React” na documentação oficial.</text>
</g>
<!-- is_too_much_flux&#45;&gt;remove_flux -->
<g id="edge8" class="edge"><title>is_too_much_flux&#45;&gt;remove_flux</title>
<path fill="none" stroke="black" d="M322.551,-2060.85C328.224,-2045.61 334.48,-2028.81 340.031,-2013.9"/>
<polygon fill="black" stroke="black" points="343.356,-2015 343.565,-2004.4 336.796,-2012.56 343.356,-2015"/>
<text text-anchor="middle" x="347.5" y="-2026.3" font-family="Times,serif" font-size="14.00">sim</text>
</g>
<!-- are_you_using_bundler -->
<g id="node9" class="node"><title>are_you_using_bundler</title>
<polygon fill="none" stroke="black" points="571,-1898 382,-1845 571,-1792 760,-1845 571,-1898"/>
<text text-anchor="middle" x="571" y="-1856.3" font-family="Times,serif" font-size="14.00">Você está usando um</text>
<text text-anchor="middle" x="571" y="-1841.3" font-family="Times,serif" font-size="14.00"> &#160;&#160;&#160;empacotador JavaScript</text>
<text text-anchor="middle" x="571" y="-1826.3" font-family="Times,serif" font-size="14.00"> &#160;&#160;&#160;(ex: Webpack, Browserify)?</text>
</g>
<!-- is_too_much_flux&#45;&gt;are_you_using_bundler -->
<g id="edge9" class="edge"><title>is_too_much_flux&#45;&gt;are_you_using_bundler</title>
<path fill="none" stroke="black" d="M389.683,-2080.57C429.994,-2063.88 476.215,-2038.92 508,-2004 533.129,-1976.39 548.803,-1937.52 558.232,-1905.24"/>
<polygon fill="black" stroke="black" points="561.646,-1906.03 560.961,-1895.45 554.903,-1904.15 561.646,-1906.03"/>
<text text-anchor="middle" x="557.5" y="-1966.3" font-family="Times,serif" font-size="14.00">não</text>
</g>
<!-- is_not_enough_flux&#45;&gt;are_you_using_bundler -->
<g id="edge11" class="edge"><title>is_not_enough_flux&#45;&gt;are_you_using_bundler</title>
<path fill="none" stroke="black" d="M700.969,-2073.15C668.204,-2056.74 633.938,-2034.04 611,-2004 589.926,-1976.4 579.865,-1938.96 575.1,-1907.44"/>
<polygon fill="black" stroke="black" points="578.555,-1906.88 573.732,-1897.44 571.62,-1907.82 578.555,-1906.88"/>
<text text-anchor="middle" x="621.5" y="-1966.3" font-family="Times,serif" font-size="14.00">não</text>
</g>
<!-- add_flux -->
<g id="node10" class="node"><title>add_flux</title>
<polygon fill="none" stroke="black" points="903,-2004 641,-2004 641,-1936 903,-1936 903,-2004"/>
<text text-anchor="middle" x="772" y="-1988.8" font-family="Times,serif" font-size="14.00">Considere adicionar a biblioteca Flux.</text>
<text text-anchor="middle" x="772" y="-1973.8" font-family="Times,serif" font-size="14.00"> &#160;&#160;&#160;Ela pode te ajudar a exteriorizar o estado</text>
<text text-anchor="middle" x="772" y="-1958.8" font-family="Times,serif" font-size="14.00"> &#160;&#160;&#160;compartilhado entre muitos componentes</text>
<text text-anchor="middle" x="772" y="-1943.8" font-family="Times,serif" font-size="14.00"> &#160;&#160;&#160;e atualizá&#45;los consistentemente.</text>
</g>
<!-- is_not_enough_flux&#45;&gt;add_flux -->
<g id="edge10" class="edge"><title>is_not_enough_flux&#45;&gt;add_flux</title>
<path fill="none" stroke="black" d="M786.501,-2057.38C784.135,-2043.28 781.587,-2028.11 779.297,-2014.47"/>
<polygon fill="black" stroke="black" points="782.711,-2013.66 777.603,-2004.38 775.807,-2014.82 782.711,-2013.66"/>
<text text-anchor="middle" x="792.5" y="-2026.3" font-family="Times,serif" font-size="14.00">sim</text>
</g>
<!-- remove_flux&#45;&gt;are_you_using_bundler -->
<g id="edge13" class="edge"><title>remove_flux&#45;&gt;are_you_using_bundler</title>
<path fill="none" stroke="black" d="M413.899,-1935.88C440.722,-1920.53 472.821,-1902.17 500.993,-1886.05"/>
<polygon fill="black" stroke="black" points="503.048,-1888.91 509.99,-1880.9 499.572,-1882.83 503.048,-1888.91"/>
</g>
<!-- are_you_working_on_production_app_with_bundler -->
<g id="node11" class="node"><title>are_you_working_on_production_app_with_bundler</title>
<polygon fill="none" stroke="black" points="465,-1740 283,-1702 465,-1664 647,-1702 465,-1740"/>
<text text-anchor="middle" x="465" y="-1705.8" font-family="Times,serif" font-size="14.00">Você está trabalhando</text>
<text text-anchor="middle" x="465" y="-1690.8" font-family="Times,serif" font-size="14.00"> &#160;&#160;&#160;em um app para produção?</text>
</g>
<!-- are_you_using_bundler&#45;&gt;are_you_working_on_production_app_with_bundler -->
<g id="edge14" class="edge"><title>are_you_using_bundler&#45;&gt;are_you_working_on_production_app_with_bundler</title>
<path fill="none" stroke="black" d="M538.621,-1800.93C524.787,-1782.53 508.734,-1761.17 495.155,-1743.11"/>
<polygon fill="black" stroke="black" points="497.914,-1740.96 489.107,-1735.07 492.318,-1745.16 497.914,-1740.96"/>
<text text-anchor="middle" x="528.5" y="-1762.3" font-family="Times,serif" font-size="14.00">sim</text>
</g>
<!-- are_you_working_on_production_app_without_bundler -->
<g id="node12" class="node"><title>are_you_working_on_production_app_without_bundler</title>
<polygon fill="none" stroke="black" points="847,-1740 665,-1702 847,-1664 1029,-1702 847,-1740"/>
<text text-anchor="middle" x="847" y="-1705.8" font-family="Times,serif" font-size="14.00">Você está trabalhando</text>
<text text-anchor="middle" x="847" y="-1690.8" font-family="Times,serif" font-size="14.00"> &#160;&#160;&#160;em um app para produção?</text>
</g>
<!-- are_you_using_bundler&#45;&gt;are_you_working_on_production_app_without_bundler -->
<g id="edge15" class="edge"><title>are_you_using_bundler&#45;&gt;are_you_working_on_production_app_without_bundler</title>
<path fill="none" stroke="black" d="M636.758,-1810.41C682.254,-1787.16 742.339,-1756.47 786.621,-1733.85"/>
<polygon fill="black" stroke="black" points="788.226,-1736.96 795.538,-1729.29 785.041,-1730.72 788.226,-1736.96"/>
<text text-anchor="middle" x="743.5" y="-1762.3" font-family="Times,serif" font-size="14.00">não</text>
</g>
<!-- add_flux&#45;&gt;are_you_using_bundler -->
<g id="edge12" class="edge"><title>add_flux&#45;&gt;are_you_using_bundler</title>
<path fill="none" stroke="black" d="M717.871,-1935.88C693.322,-1920.85 664.044,-1902.94 638.112,-1887.07"/>
<polygon fill="black" stroke="black" points="639.814,-1884.01 629.458,-1881.77 636.16,-1889.98 639.814,-1884.01"/>
</g>
<!-- do_you_know_es2015 -->
<g id="node13" class="node"><title>do_you_know_es2015</title>
<polygon fill="none" stroke="black" points="750,-1460 455,-1407 750,-1354 1045,-1407 750,-1460"/>
<text text-anchor="middle" x="750" y="-1418.3" font-family="Times,serif" font-size="14.00">Você se sente</text>
<text text-anchor="middle" x="750" y="-1403.3" font-family="Times,serif" font-size="14.00"> &#160;&#160;&#160;confortável usando funcionalidades do ES2015</text>
<text text-anchor="middle" x="750" y="-1388.3" font-family="Times,serif" font-size="14.00"> &#160;&#160;&#160;(ex: classes e fat arrows)?</text>
</g>
<!-- are_you_working_on_production_app_with_bundler&#45;&gt;do_you_know_es2015 -->
<g id="edge16" class="edge"><title>are_you_working_on_production_app_with_bundler&#45;&gt;do_you_know_es2015</title>
<path fill="none" stroke="black" d="M407.632,-1675.94C381.677,-1661.34 353.596,-1640.18 339,-1612 315.697,-1567.01 307.235,-1537.47 339,-1498 366.864,-1463.37 461.108,-1441.33 552.327,-1427.73"/>
<polygon fill="black" stroke="black" points="552.894,-1431.19 562.283,-1426.28 551.883,-1424.26 552.894,-1431.19"/>
<text text-anchor="middle" x="349.5" y="-1551.3" font-family="Times,serif" font-size="14.00">sim</text>
</g>
<!-- remove_bundler -->
<g id="node14" class="node"><title>remove_bundler</title>
<polygon fill="none" stroke="black" points="780.25,-1611.5 369.75,-1611.5 369.75,-1498.5 780.25,-1498.5 780.25,-1611.5"/>
<text text-anchor="middle" x="575" y="-1596.3" font-family="Times,serif" font-size="14.00">Não se tem necessidade de um empacotador</text>
<text text-anchor="middle" x="575" y="-1581.3" font-family="Times,serif" font-size="14.00"> &#160;&#160;&#160;se você está apenas aprendendo React.</text>
<text text-anchor="middle" x="575" y="-1566.3" font-family="Times,serif" font-size="14.00"> &#160;&#160;&#160;Copie https://github.com/jarsbe/react&#45;simple</text>
<text text-anchor="middle" x="575" y="-1551.3" font-family="Times,serif" font-size="14.00"> &#160;&#160;&#160;e começa a escrever seu código sem executar tarefas automatizadas.</text>
<text text-anchor="middle" x="575" y="-1536.3" font-family="Times,serif" font-size="14.00"> &#160;&#160;&#160;Use &lt;script&gt; tags até você estar confortável</text>
<text text-anchor="middle" x="575" y="-1521.3" font-family="Times,serif" font-size="14.00"> &#160;&#160;&#160;com React e quiser apender mais sobre sistemas</text>
<text text-anchor="middle" x="575" y="-1506.3" font-family="Times,serif" font-size="14.00"> &#160;&#160;&#160;de módulos e diferentes empacotadores.</text>
</g>
<!-- are_you_working_on_production_app_with_bundler&#45;&gt;remove_bundler -->
<g id="edge17" class="edge"><title>are_you_working_on_production_app_with_bundler&#45;&gt;remove_bundler</title>
<path fill="none" stroke="black" d="M489.413,-1668.82C500.346,-1654.41 513.643,-1636.88 526.466,-1619.98"/>
<polygon fill="black" stroke="black" points="529.454,-1621.83 532.71,-1611.75 523.877,-1617.6 529.454,-1621.83"/>
<text text-anchor="middle" x="527.5" y="-1634.3" font-family="Times,serif" font-size="14.00">não</text>
</g>
<!-- are_you_working_on_production_app_without_bundler&#45;&gt;do_you_know_es2015 -->
<g id="edge19" class="edge"><title>are_you_working_on_production_app_without_bundler&#45;&gt;do_you_know_es2015</title>
<path fill="none" stroke="black" d="M838.413,-1665.72C828.13,-1624.87 809.683,-1555.81 789,-1498 785.184,-1487.34 780.718,-1476.14 776.198,-1465.4"/>
<polygon fill="black" stroke="black" points="779.376,-1463.93 772.226,-1456.11 772.939,-1466.68 779.376,-1463.93"/>
<text text-anchor="middle" x="833.5" y="-1551.3" font-family="Times,serif" font-size="14.00">não</text>
</g>
<!-- add_bundler -->
<g id="node15" class="node"><title>add_bundler</title>
<polygon fill="none" stroke="black" points="1175.25,-1611.5 856.75,-1611.5 856.75,-1498.5 1175.25,-1498.5 1175.25,-1611.5"/>
<text text-anchor="middle" x="1016" y="-1596.3" font-family="Times,serif" font-size="14.00">Adicione um empacotador como parte do seu</text>
<text text-anchor="middle" x="1016" y="-1581.3" font-family="Times,serif" font-size="14.00"> &#160;&#160;&#160;processo para manter as dependências manuseáveis</text>
<text text-anchor="middle" x="1016" y="-1566.3" font-family="Times,serif" font-size="14.00"> &#160;&#160;&#160;e servir o código JavaScript eficientemente.</text>
<text text-anchor="middle" x="1016" y="-1551.3" font-family="Times,serif" font-size="14.00"> &#160;&#160;&#160;Use a ferramenta Google Page Speed Insights</text>
<text text-anchor="middle" x="1016" y="-1536.3" font-family="Times,serif" font-size="14.00"> &#160;&#160;&#160;para medir o quão bem você está indo.</text>
<text text-anchor="middle" x="1016" y="-1521.3" font-family="Times,serif" font-size="14.00"> &#160;&#160;&#160;Lembre&#45;se de minificar e envify</text>
<text text-anchor="middle" x="1016" y="-1506.3" font-family="Times,serif" font-size="14.00"> &#160;&#160;&#160;seu código.</text>
</g>
<!-- are_you_working_on_production_app_without_bundler&#45;&gt;add_bundler -->
<g id="edge18" class="edge"><title>are_you_working_on_production_app_without_bundler&#45;&gt;add_bundler</title>
<path fill="none" stroke="black" d="M882.017,-1670.96C899.755,-1655.74 921.985,-1636.66 943.21,-1618.45"/>
<polygon fill="black" stroke="black" points="945.663,-1620.96 950.974,-1611.79 941.105,-1615.65 945.663,-1620.96"/>
<text text-anchor="middle" x="936.5" y="-1634.3" font-family="Times,serif" font-size="14.00">sim</text>
</g>
<!-- use_es5 -->
<g id="node16" class="node"><title>use_es5</title>
<polygon fill="none" stroke="black" points="909,-1148 547,-1148 547,-990 909,-990 909,-1148"/>
<text text-anchor="middle" x="728" y="-1132.8" font-family="Times,serif" font-size="14.00">Não use ES2015 ainda.</text>
<text text-anchor="middle" x="728" y="-1117.8" font-family="Times,serif" font-size="14.00"> &#160;&#160;&#160;Você não precisa dele para aprender React.</text>
<text text-anchor="middle" x="728" y="-1102.8" font-family="Times,serif" font-size="14.00"> &#160;&#160;&#160;Bibliotecas de terceiros geralmente vão usar</text>
<text text-anchor="middle" x="728" y="-1087.8" font-family="Times,serif" font-size="14.00"> &#160;&#160;&#160;a sintáxe do ES2015 nas documentações mas</text>
<text text-anchor="middle" x="728" y="-1072.8" font-family="Times,serif" font-size="14.00"> &#160;&#160;&#160;você não precisa dessas bibliotecas quando</text>
<text text-anchor="middle" x="728" y="-1057.8" font-family="Times,serif" font-size="14.00"> &#160;&#160;&#160;você está apenas aprendendo React.</text>
<text text-anchor="middle" x="728" y="-1042.8" font-family="Times,serif" font-size="14.00"> &#160;&#160;&#160;Quando você sentir que precisa atualizar seu conhecimento</text>
<text text-anchor="middle" x="728" y="-1027.8" font-family="Times,serif" font-size="14.00"> &#160;&#160;&#160;em JavaScript, https://leanpub.com/understandinges6/read</text>
<text text-anchor="middle" x="728" y="-1012.8" font-family="Times,serif" font-size="14.00"> &#160;&#160;&#160;é um excelente guia. Use http://babeljs.io/repl</text>
<text text-anchor="middle" x="728" y="-997.8" font-family="Times,serif" font-size="14.00"> &#160;&#160;&#160;para verificar suas suposições.</text>
</g>
<!-- do_you_know_es2015&#45;&gt;use_es5 -->
<g id="edge22" class="edge"><title>do_you_know_es2015&#45;&gt;use_es5</title>
<path fill="none" stroke="black" d="M746.635,-1354.6C743.226,-1302.53 737.886,-1220.98 733.794,-1158.5"/>
<polygon fill="black" stroke="black" points="737.269,-1158 733.123,-1148.25 730.284,-1158.45 737.269,-1158"/>
<text text-anchor="middle" x="755.5" y="-1324.3" font-family="Times,serif" font-size="14.00">não</text>
</g>
<!-- are_you_using_dangerous_features -->
<g id="node17" class="node"><title>are_you_using_dangerous_features</title>
<polygon fill="none" stroke="black" points="995,-1302 756.5,-1234 995,-1166 1233.5,-1234 995,-1302"/>
<text text-anchor="middle" x="995" y="-1252.8" font-family="Times,serif" font-size="14.00">Você está usando</text>
<text text-anchor="middle" x="995" y="-1237.8" font-family="Times,serif" font-size="14.00"> &#160;&#160;&#160;experimentalmente funcionalidades</text>
<text text-anchor="middle" x="995" y="-1222.8" font-family="Times,serif" font-size="14.00"> &#160;&#160;&#160;que não estão disponíveis no ES2015</text>
<text text-anchor="middle" x="995" y="-1207.8" font-family="Times,serif" font-size="14.00"> &#160;&#160;&#160;(ex: decorators)?</text>
</g>
<!-- do_you_know_es2015&#45;&gt;are_you_using_dangerous_features -->
<g id="edge23" class="edge"><title>do_you_know_es2015&#45;&gt;are_you_using_dangerous_features</title>
<path fill="none" stroke="black" d="M809.308,-1364.61C842.084,-1341.73 883.173,-1313.05 918.361,-1288.49"/>
<polygon fill="black" stroke="black" points="920.506,-1291.26 926.703,-1282.67 916.5,-1285.52 920.506,-1291.26"/>
<text text-anchor="middle" x="882.5" y="-1324.3" font-family="Times,serif" font-size="14.00">sim</text>
</g>
<!-- remove_bundler&#45;&gt;do_you_know_es2015 -->
<g id="edge21" class="edge"><title>remove_bundler&#45;&gt;do_you_know_es2015</title>
<path fill="none" stroke="black" d="M641.659,-1498.39C657.699,-1485.01 674.73,-1470.8 690.423,-1457.7"/>
<polygon fill="black" stroke="black" points="693.059,-1460.06 698.495,-1450.97 688.574,-1454.69 693.059,-1460.06"/>
</g>
<!-- add_bundler&#45;&gt;do_you_know_es2015 -->
<g id="edge20" class="edge"><title>add_bundler&#45;&gt;do_you_know_es2015</title>
<path fill="none" stroke="black" d="M914.678,-1498.39C886.845,-1483.11 857.048,-1466.76 830.555,-1452.21"/>
<polygon fill="black" stroke="black" points="832.156,-1449.1 821.706,-1447.36 828.788,-1455.24 832.156,-1449.1"/>
</g>
<!-- do_you_update_packages_asap -->
<g id="node18" class="node"><title>do_you_update_packages_asap</title>
<polygon fill="none" stroke="black" points="951,-708 675,-655 951,-602 1227,-655 951,-708"/>
<text text-anchor="middle" x="951" y="-666.3" font-family="Times,serif" font-size="14.00">Você atualiza para as principais novas versões</text>
<text text-anchor="middle" x="951" y="-651.3" font-family="Times,serif" font-size="14.00"> &#160;&#160;&#160;de suas dependências assim que elas</text>
<text text-anchor="middle" x="951" y="-636.3" font-family="Times,serif" font-size="14.00"> &#160;&#160;&#160;são lançadas?</text>
</g>
<!-- use_es5&#45;&gt;do_you_update_packages_asap -->
<g id="edge24" class="edge"><title>use_es5&#45;&gt;do_you_update_packages_asap</title>
<path fill="none" stroke="black" d="M768.484,-989.748C804.787,-920.11 859.895,-815.692 910,-726 912.619,-721.312 915.367,-716.468 918.147,-711.619"/>
<polygon fill="black" stroke="black" points="921.203,-713.327 923.167,-702.915 915.139,-709.829 921.203,-713.327"/>
</g>
<!-- are_you_using_dangerous_features&#45;&gt;do_you_update_packages_asap -->
<g id="edge26" class="edge"><title>are_you_using_dangerous_features&#45;&gt;do_you_update_packages_asap</title>
<path fill="none" stroke="black" d="M978.947,-1170.5C966.321,-1117.95 949.77,-1040.62 943,-972 937.066,-911.848 941.658,-896.43 943,-836 943.876,-796.578 945.829,-752.336 947.586,-717.578"/>
<polygon fill="black" stroke="black" points="951.082,-717.743 948.099,-707.577 944.091,-717.384 951.082,-717.743"/>
<text text-anchor="middle" x="953.5" y="-806.3" font-family="Times,serif" font-size="14.00">não</text>
</g>
<!-- can_you_spend_days_on_your_tooling -->
<g id="node19" class="node"><title>can_you_spend_days_on_your_tooling</title>
<polygon fill="none" stroke="black" points="1158,-972 952,-904 1158,-836 1364,-904 1158,-972"/>
<text text-anchor="middle" x="1158" y="-922.8" font-family="Times,serif" font-size="14.00">Você pode gastar dias arrumando</text>
<text text-anchor="middle" x="1158" y="-907.8" font-family="Times,serif" font-size="14.00"> &#160;&#160;&#160;suas ferramentas por causa</text>
<text text-anchor="middle" x="1158" y="-892.8" font-family="Times,serif" font-size="14.00"> &#160;&#160;&#160;de erros, incompatibilidades ou</text>
<text text-anchor="middle" x="1158" y="-877.8" font-family="Times,serif" font-size="14.00"> &#160;&#160;&#160;mudanças padrões?</text>
</g>
<!-- are_you_using_dangerous_features&#45;&gt;can_you_spend_days_on_your_tooling -->
<g id="edge25" class="edge"><title>are_you_using_dangerous_features&#45;&gt;can_you_spend_days_on_your_tooling</title>
<path fill="none" stroke="black" d="M1024.33,-1173.98C1052.56,-1117.17 1095.2,-1031.36 1124.7,-972.009"/>
<polygon fill="black" stroke="black" points="1128,-973.232 1129.32,-962.719 1121.73,-970.117 1128,-973.232"/>
<text text-anchor="middle" x="1124.5" y="-1065.3" font-family="Times,serif" font-size="14.00">sim</text>
</g>
<!-- give_it_two_months -->
<g id="node21" class="node"><title>give_it_two_months</title>
<polygon fill="none" stroke="black" points="1032,-550 660,-550 660,-392 1032,-392 1032,-550"/>
<text text-anchor="middle" x="846" y="-534.8" font-family="Times,serif" font-size="14.00">A não ser que estejamos falando de React</text>
<text text-anchor="middle" x="846" y="-519.8" font-family="Times,serif" font-size="14.00"> &#160;&#160;&#160;que é muito bem testado antes de cada lançamento,</text>
<text text-anchor="middle" x="846" y="-504.8" font-family="Times,serif" font-size="14.00"> &#160;&#160;&#160;considere ir devagar em atualizações de pacotes.</text>
<text text-anchor="middle" x="846" y="-489.8" font-family="Times,serif" font-size="14.00"> &#160;&#160;&#160;Você pode tentar novas versões de dependências mas</text>
<text text-anchor="middle" x="846" y="-474.8" font-family="Times,serif" font-size="14.00"> &#160;&#160;&#160;é melhor mantê&#45;los em uma branch por alguns meses</text>
<text text-anchor="middle" x="846" y="-459.8" font-family="Times,serif" font-size="14.00"> &#160;&#160;&#160;até que a comunidade encontre e arrume os</text>
<text text-anchor="middle" x="846" y="-444.8" font-family="Times,serif" font-size="14.00"> &#160;&#160;&#160;erros mais comuns. Não faça decisões baseadas em</text>
<text text-anchor="middle" x="846" y="-429.8" font-family="Times,serif" font-size="14.00"> &#160;&#160;&#160;medo de perder algo! Quando olhar documentações antigas,</text>
<text text-anchor="middle" x="846" y="-414.8" font-family="Times,serif" font-size="14.00"> &#160;&#160;&#160;não se esqueça de checar lançamentos tagged no GitHub, ex:</text>
<text text-anchor="middle" x="846" y="-399.8" font-family="Times,serif" font-size="14.00"> &#160;&#160;&#160;https://github.com/reactjs/react&#45;router/tree/0.13.x/doc</text>
</g>
<!-- do_you_update_packages_asap&#45;&gt;give_it_two_months -->
<g id="edge30" class="edge"><title>do_you_update_packages_asap&#45;&gt;give_it_two_months</title>
<path fill="none" stroke="black" d="M923.96,-607.13C915.422,-592.332 905.699,-575.479 896.084,-558.813"/>
<polygon fill="black" stroke="black" points="899.102,-557.04 891.073,-550.127 893.039,-560.538 899.102,-557.04"/>
<text text-anchor="middle" x="917.5" y="-572.3" font-family="Times,serif" font-size="14.00">sim</text>
</g>
<!-- consider_updating_react -->
<g id="node22" class="node"><title>consider_updating_react</title>
<polygon fill="none" stroke="black" points="1397.25,-542.5 1050.75,-542.5 1050.75,-399.5 1397.25,-399.5 1397.25,-542.5"/>
<text text-anchor="middle" x="1224" y="-527.3" font-family="Times,serif" font-size="14.00">É uma boa opção.</text>
<text text-anchor="middle" x="1224" y="-512.3" font-family="Times,serif" font-size="14.00"> &#160;&#160;&#160;Contudo, nós encorajamos você a</text>
<text text-anchor="middle" x="1224" y="-497.3" font-family="Times,serif" font-size="14.00"> &#160;&#160;&#160;tentar (em uma branch!) novas versões do</text>
<text text-anchor="middle" x="1224" y="-482.3" font-family="Times,serif" font-size="14.00"> &#160;&#160;&#160;React assim que elas são lançadas,</text>
<text text-anchor="middle" x="1224" y="-467.3" font-family="Times,serif" font-size="14.00"> &#160;&#160;&#160;ao contrário de muitas comunidades de pacotes,</text>
<text text-anchor="middle" x="1224" y="-452.3" font-family="Times,serif" font-size="14.00"> &#160;&#160;&#160;que são testadas intensivamente pelo Facebook.</text>
<text text-anchor="middle" x="1224" y="-437.3" font-family="Times,serif" font-size="14.00"> &#160;&#160;&#160;Fique de olho na descrição do lançamento que conectam</text>
<text text-anchor="middle" x="1224" y="-422.3" font-family="Times,serif" font-size="14.00"> &#160;&#160;&#160;com os codemods que são partes automatizadas</text>
<text text-anchor="middle" x="1224" y="-407.3" font-family="Times,serif" font-size="14.00"> &#160;&#160;&#160;do processo de migração para você.</text>
</g>
<!-- do_you_update_packages_asap&#45;&gt;consider_updating_react -->
<g id="edge31" class="edge"><title>do_you_update_packages_asap&#45;&gt;consider_updating_react</title>
<path fill="none" stroke="black" d="M1011.59,-613.608C1040.48,-594.348 1076.02,-570.653 1109.71,-548.194"/>
<polygon fill="black" stroke="black" points="1111.85,-550.974 1118.23,-542.514 1107.97,-545.149 1111.85,-550.974"/>
<text text-anchor="middle" x="1089.5" y="-572.3" font-family="Times,serif" font-size="14.00">não</text>
</g>
<!-- can_you_spend_days_on_your_tooling&#45;&gt;do_you_update_packages_asap -->
<g id="edge27" class="edge"><title>can_you_spend_days_on_your_tooling&#45;&gt;do_you_update_packages_asap</title>
<path fill="none" stroke="black" d="M1079.59,-861.528C1048.53,-841.696 1014.86,-815.388 992,-784 977.581,-764.2 968.094,-739.118 961.918,-716.413"/>
<polygon fill="black" stroke="black" points="965.255,-715.337 959.388,-706.515 958.473,-717.07 965.255,-715.337"/>
<text text-anchor="middle" x="1002.5" y="-761.3" font-family="Times,serif" font-size="14.00">sim</text>
</g>
<!-- stick_to_es2015 -->
<g id="node20" class="node"><title>stick_to_es2015</title>
<polygon fill="none" stroke="black" points="1250.25,-784 1021.75,-784 1021.75,-746 1250.25,-746 1250.25,-784"/>
<text text-anchor="middle" x="1136" y="-768.8" font-family="Times,serif" font-size="14.00">Continue usando no máximo ES2015,</text>
<text text-anchor="middle" x="1136" y="-753.8" font-family="Times,serif" font-size="14.00"> &#160;&#160;&#160;JSX, e operador spread do objeto.</text>
</g>
<!-- can_you_spend_days_on_your_tooling&#45;&gt;stick_to_es2015 -->
<g id="edge28" class="edge"><title>can_you_spend_days_on_your_tooling&#45;&gt;stick_to_es2015</title>
<path fill="none" stroke="black" d="M1147.77,-839.313C1145.25,-823.591 1142.67,-807.529 1140.57,-794.462"/>
<polygon fill="black" stroke="black" points="1143.97,-793.582 1138.93,-784.263 1137.06,-794.692 1143.97,-793.582"/>
<text text-anchor="middle" x="1153.5" y="-806.3" font-family="Times,serif" font-size="14.00">não</text>
</g>
<!-- stick_to_es2015&#45;&gt;do_you_update_packages_asap -->
<g id="edge29" class="edge"><title>stick_to_es2015&#45;&gt;do_you_update_packages_asap</title>
<path fill="none" stroke="black" d="M1105.04,-745.923C1083.69,-733.461 1054.34,-716.326 1026.98,-700.355"/>
<polygon fill="black" stroke="black" points="1028.58,-697.237 1018.18,-695.218 1025.05,-703.283 1028.58,-697.237"/>
</g>
<!-- are_you_still_sad -->
<g id="node23" class="node"><title>are_you_still_sad</title>
<polygon fill="none" stroke="black" points="1078,-354 946.841,-336 1078,-318 1209.16,-336 1078,-354"/>
<text text-anchor="middle" x="1078" y="-332.3" font-family="Times,serif" font-size="14.00">Você ainda está triste?</text>
</g>
<!-- give_it_two_months&#45;&gt;are_you_still_sad -->
<g id="edge32" class="edge"><title>give_it_two_months&#45;&gt;are_you_still_sad</title>
<path fill="none" stroke="black" d="M982.297,-391.864C1005.6,-378.506 1027.77,-365.794 1044.9,-355.976"/>
<polygon fill="black" stroke="black" points="1046.93,-358.844 1053.87,-350.834 1043.45,-352.771 1046.93,-358.844"/>
</g>
<!-- consider_updating_react&#45;&gt;are_you_still_sad -->
<g id="edge33" class="edge"><title>consider_updating_react&#45;&gt;are_you_still_sad</title>
<path fill="none" stroke="black" d="M1146.3,-399.217C1130.1,-384.459 1114.21,-369.983 1101.84,-358.714"/>
<polygon fill="black" stroke="black" points="1104,-355.947 1094.25,-351.801 1099.28,-361.122 1104,-355.947"/>
</g>
<!-- rant -->
<g id="node24" class="node"><title>rant</title>
<polygon fill="none" stroke="black" points="1088.25,-265.5 789.75,-265.5 789.75,-152.5 1088.25,-152.5 1088.25,-265.5"/>
<text text-anchor="middle" x="939" y="-250.3" font-family="Times,serif" font-size="14.00">Escreva em um blog uma postagem construtiva</text>
<text text-anchor="middle" x="939" y="-235.3" font-family="Times,serif" font-size="14.00"> &#160;&#160;&#160;sobre os problemas que você encontrar.</text>
<text text-anchor="middle" x="939" y="-220.3" font-family="Times,serif" font-size="14.00"> &#160;&#160;&#160;Não ligue para críticas pessoais.</text>
<text text-anchor="middle" x="939" y="-205.3" font-family="Times,serif" font-size="14.00"> &#160;&#160;&#160;Seja educado. Ajuda a comunidade</text>
<text text-anchor="middle" x="939" y="-190.3" font-family="Times,serif" font-size="14.00"> &#160;&#160;&#160;a encontrar soluções. Considere</text>
<text text-anchor="middle" x="939" y="-175.3" font-family="Times,serif" font-size="14.00"> &#160;&#160;&#160;outras linguagens, frameworks e bibliotecas</text>
<text text-anchor="middle" x="939" y="-160.3" font-family="Times,serif" font-size="14.00"> &#160;&#160;&#160;que se adapte às suas necessidades (ex: Ember).</text>
</g>
<!-- are_you_still_sad&#45;&gt;rant -->
<g id="edge34" class="edge"><title>are_you_still_sad&#45;&gt;rant</title>
<path fill="none" stroke="black" d="M1061.51,-320.17C1048.12,-308.128 1028.26,-290.272 1008.42,-272.425"/>
<polygon fill="black" stroke="black" points="1010.6,-269.682 1000.82,-265.597 1005.92,-274.887 1010.6,-269.682"/>
<text text-anchor="middle" x="1046.5" y="-288.3" font-family="Times,serif" font-size="14.00">sim</text>
</g>
<!-- happy -->
<g id="node25" class="node"><title>happy</title>
<polygon fill="none" stroke="black" points="1201,-114 943,-114 943,-76 1201,-76 1201,-114"/>
<text text-anchor="middle" x="1072" y="-98.8" font-family="Times,serif" font-size="14.00">React te faz feliz!</text>
<text text-anchor="middle" x="1072" y="-83.8" font-family="Times,serif" font-size="14.00"> &#160;&#160;&#160;Ou, pelo menos, não te deixa mais triste.</text>
</g>
<!-- are_you_still_sad&#45;&gt;happy -->
<g id="edge35" class="edge"><title>are_you_still_sad&#45;&gt;happy</title>
<path fill="none" stroke="black" d="M1083.88,-318.529C1088.49,-304.711 1094.52,-284.346 1097,-266 1103.79,-215.79 1107.56,-201.554 1097,-152 1094.91,-142.212 1090.99,-132.061 1086.86,-123.134"/>
<polygon fill="black" stroke="black" points="1089.92,-121.434 1082.37,-114.003 1083.64,-124.522 1089.92,-121.434"/>
<text text-anchor="middle" x="1113.5" y="-205.3" font-family="Times,serif" font-size="14.00">não</text>
</g>
<!-- rant&#45;&gt;happy -->
<g id="edge36" class="edge"><title>rant&#45;&gt;happy</title>
<path fill="none" stroke="black" d="M1005.11,-152.328C1018.33,-141.195 1031.57,-130.045 1042.74,-120.638"/>
<polygon fill="black" stroke="black" points="1045.09,-123.24 1050.48,-114.121 1040.58,-117.885 1045.09,-123.24"/>
</g>
<!-- share -->
<g id="node26" class="node"><title>share</title>
<path fill="none" stroke="black" d="M1304.25,-38C1304.25,-38 839.75,-38 839.75,-38 833.75,-38 827.75,-32 827.75,-26 827.75,-26 827.75,-12 827.75,-12 827.75,-6 833.75,-0 839.75,-0 839.75,-0 1304.25,-0 1304.25,-0 1310.25,-0 1316.25,-6 1316.25,-12 1316.25,-12 1316.25,-26 1316.25,-26 1316.25,-32 1310.25,-38 1304.25,-38"/>
<text text-anchor="middle" x="1072" y="-22.8" font-family="Times,serif" font-size="14.00">Compartilhe esse fluxograma: https://github.com/brunogenaro/react&#45;makes&#45;you&#45;sad.</text>
<text text-anchor="middle" x="1072" y="-7.8" font-family="Times,serif" font-size="14.00"> &#160;&#160;&#160;Tradução do https://github.com/gaearon/react&#45;makes&#45;you&#45;sad.</text>
</g>
<!-- happy&#45;&gt;share -->
<g id="edge37" class="edge"><title>happy&#45;&gt;share</title>
<path fill="none" stroke="black" d="M1072,-75.7079C1072,-67.4635 1072,-57.5376 1072,-48.3622"/>
<polygon fill="black" stroke="black" points="1075.5,-48.0817 1072,-38.0817 1068.5,-48.0818 1075.5,-48.0817"/>
</g>
</g>
</svg>
