<?xml version="1.0" encoding="UTF-8" standalone="no"?>
<!DOCTYPE svg PUBLIC "-//W3C//DTD SVG 1.1//EN"
 "http://www.w3.org/Graphics/SVG/1.1/DTD/svg11.dtd">
<!-- Generated by graphviz version 2.36.0 (20140111.2315)
 -->
<!-- Title: %3 Pages: 1 -->
<svg width="1576pt" height="2876pt"
 viewBox="0.00 0.00 1576.00 2876.00" xmlns="http://www.w3.org/2000/svg" xmlns:xlink="http://www.w3.org/1999/xlink">
<g id="graph0" class="graph" transform="scale(1 1) rotate(0) translate(4 2872)">
<title>%3</title>
<polygon fill="white" stroke="none" points="-4,4 -4,-2872 1572,-2872 1572,4 -4,4"/>
<!-- unhappy -->
<g id="node1" class="node"><title>unhappy</title>
<path fill="none" stroke="black" d="M571.424,-2868C571.424,-2868 390.576,-2868 390.576,-2868 384.576,-2868 378.576,-2862 378.576,-2856 378.576,-2856 378.576,-2844 378.576,-2844 378.576,-2838 384.576,-2832 390.576,-2832 390.576,-2832 571.424,-2832 571.424,-2832 577.424,-2832 583.424,-2838 583.424,-2844 583.424,-2844 583.424,-2856 583.424,-2856 583.424,-2862 577.424,-2868 571.424,-2868"/>
<text text-anchor="middle" x="481" y="-2847.11" font-family="Times,serif" font-size="14.00">React 가 당신을 슬프게 했군요.</text>
</g>
<!-- are_you_using_react_boilerplates -->
<g id="node2" class="node"><title>are_you_using_react_boilerplates</title>
<polygon fill="none" stroke="black" points="481,-2793.73 203.098,-2736 481,-2678.27 758.902,-2736 481,-2793.73"/>
<text text-anchor="middle" x="481" y="-2749.73" font-family="Times,serif" font-size="14.00">당신은 React를 시작할 떄</text>
<text text-anchor="middle" x="481" y="-2733.11" font-family="Times,serif" font-size="14.00"> &#160;&#160;&#160;템플릿처럼 일정부분이 완성된 프로젝트</text>
<text text-anchor="middle" x="481" y="-2716.49" font-family="Times,serif" font-size="14.00"> &#160;&#160;&#160;(보일러플레이트)를 복사해서 익혔나요?</text>
</g>
<!-- unhappy&#45;&gt;are_you_using_react_boilerplates -->
<g id="edge1" class="edge"><title>unhappy&#45;&gt;are_you_using_react_boilerplates</title>
<path fill="none" stroke="black" d="M481,-2831.99C481,-2824.28 481,-2814.61 481,-2804.42"/>
<polygon fill="black" stroke="black" points="484.5,-2804.1 481,-2794.1 477.5,-2804.1 484.5,-2804.1"/>
</g>
<!-- boilerplates_dont_teach -->
<g id="node3" class="node"><title>boilerplates_dont_teach</title>
<polygon fill="none" stroke="black" points="476.193,-2623.97 -0.193199,-2623.97 -0.193199,-2402.03 476.193,-2402.03 476.193,-2623.97"/>
<text text-anchor="middle" x="238" y="-2608.53" font-family="Times,serif" font-size="14.00">보일러 플레이트를 복사해서 React를 배우는 것은</text>
<text text-anchor="middle" x="238" y="-2591.91" font-family="Times,serif" font-size="14.00"> &#160;&#160;&#160;마치 유명 레스토랑에서 음식을 먹으면서 배우는 것과도 같습니다.</text>
<text text-anchor="middle" x="238" y="-2575.29" font-family="Times,serif" font-size="14.00"> &#160;&#160;&#160;이렇게는 안되요. 당신은 기초부터 배울 필요가 있습니다.</text>
<text text-anchor="middle" x="238" y="-2558.67" font-family="Times,serif" font-size="14.00"> &#160;&#160;&#160;트렌드를 놓칠까봐 생기는 걱정은 무시해도 좋습니다. 사실 무근이죠.</text>
<text text-anchor="middle" x="238" y="-2542.04" font-family="Times,serif" font-size="14.00"> &#160;&#160;&#160;사람들은 보일러 플레이트를 당신이 배우기 좋게 만드는 것이라기 보다</text>
<text text-anchor="middle" x="238" y="-2525.42" font-family="Times,serif" font-size="14.00"> &#160;&#160;&#160;자신이 만든 것 혹은 배운것을 자랑하려고 만듭니다.그것들은 파워유저</text>
<text text-anchor="middle" x="238" y="-2508.8" font-family="Times,serif" font-size="14.00"> &#160;&#160;&#160;들을 위해 만들어졌기에 때로는 그들이 인정하는 것보다 실험적입니다.</text>
<text text-anchor="middle" x="238" y="-2492.18" font-family="Times,serif" font-size="14.00"> &#160;&#160;&#160;자랑을 위해 만들어진 보일러플레이트들은 관심을 끌기 위해 경쟁합니다.</text>
<text text-anchor="middle" x="238" y="-2475.56" font-family="Times,serif" font-size="14.00"> &#160;&#160;&#160;React를 배울 거라면, Pete Hunt가 제안한 순서대로 배우는 것이</text>
<text text-anchor="middle" x="238" y="-2458.93" font-family="Times,serif" font-size="14.00"> &#160;&#160;&#160;좋습니다. 주소는 다음과 같습니다.</text>
<text text-anchor="middle" x="238" y="-2442.31" font-family="Times,serif" font-size="14.00"> &#160;&#160;&#160;https://github.com/petehunt/react&#45;howto</text>
<text text-anchor="middle" x="238" y="-2428.31" font-family="Times,serif" font-size="14.00"> &#160;&#160;&#160;당신이 직접 만드는 것이 보일러플레이트를 사용하는 것보다 빠를 것</text>
<text text-anchor="middle" x="238" y="-2411.69" font-family="Times,serif" font-size="14.00"> &#160;&#160;&#160;입니다.</text>
</g>
<!-- are_you_using_react_boilerplates&#45;&gt;boilerplates_dont_teach -->
<g id="edge2" class="edge"><title>are_you_using_react_boilerplates&#45;&gt;boilerplates_dont_teach</title>
<path fill="none" stroke="black" d="M430.059,-2688.67C411.241,-2671.56 388.968,-2651.3 366.376,-2630.75"/>
<polygon fill="black" stroke="black" points="368.46,-2627.92 358.707,-2623.78 363.75,-2633.1 368.46,-2627.92"/>
<text text-anchor="middle" x="402.993" y="-2648.11" font-family="Times,serif" font-size="14.00">네</text>
</g>
<!-- steal_from_boilerplates -->
<g id="node4" class="node"><title>steal_from_boilerplates</title>
<polygon fill="none" stroke="black" points="955.078,-2583.48 494.922,-2583.48 494.922,-2442.52 955.078,-2442.52 955.078,-2583.48"/>
<text text-anchor="middle" x="725" y="-2568.29" font-family="Times,serif" font-size="14.00">보일러플레이트들은 기술들이 어떻게 엮여져 있는지 배우기에 좋은</text>
<text text-anchor="middle" x="725" y="-2551.67" font-family="Times,serif" font-size="14.00"> &#160;&#160;&#160;방법은 아니지만, 당신이 각각 이 기술들을 개별적으로 이해한</text>
<text text-anchor="middle" x="725" y="-2535.04" font-family="Times,serif" font-size="14.00"> &#160;&#160;&#160;뒤라면! 어떻게 이런 기술들이 잘 묶일 수 있는지를 파악하기에</text>
<text text-anchor="middle" x="725" y="-2518.42" font-family="Times,serif" font-size="14.00"> &#160;&#160;&#160;그들은 유용합니다. 그것은 새로운 기술을 발견 할 수 있는 좋은</text>
<text text-anchor="middle" x="725" y="-2501.8" font-family="Times,serif" font-size="14.00"> &#160;&#160;&#160;방법입니다. 그렇다고 해서 그것들 모두를 사용하는 의무감을 느낄</text>
<text text-anchor="middle" x="725" y="-2485.18" font-family="Times,serif" font-size="14.00"> &#160;&#160;&#160;필요는 없습니다. 보일러플레이트땜에 질리지 마세요.</text>
<text text-anchor="middle" x="725" y="-2468.56" font-family="Times,serif" font-size="14.00"> &#160;&#160;&#160;보일러 플레이트는 당신의 어플리케이션을 위한 견고한 기반이 아니라</text>
<text text-anchor="middle" x="725" y="-2451.93" font-family="Times,serif" font-size="14.00"> &#160;&#160;&#160;독창적인 기술의 집합임을 명심하세요.</text>
</g>
<!-- are_you_using_react_boilerplates&#45;&gt;steal_from_boilerplates -->
<g id="edge3" class="edge"><title>are_you_using_react_boilerplates&#45;&gt;steal_from_boilerplates</title>
<path fill="none" stroke="black" d="M532.15,-2688.67C563.462,-2660.31 604.301,-2623.32 640.333,-2590.69"/>
<polygon fill="black" stroke="black" points="642.881,-2593.1 647.943,-2583.79 638.182,-2587.91 642.881,-2593.1"/>
<text text-anchor="middle" x="602.98" y="-2648.11" font-family="Times,serif" font-size="14.00">아니오</text>
</g>
<!-- are_you_using_flux -->
<g id="node5" class="node"><title>are_you_using_flux</title>
<polygon fill="none" stroke="black" points="539,-2363.73 355.079,-2306 539,-2248.27 722.921,-2306 539,-2363.73"/>
<text text-anchor="middle" x="539" y="-2319.73" font-family="Times,serif" font-size="14.00">Flux 라이브러리</text>
<text text-anchor="middle" x="539" y="-2303.11" font-family="Times,serif" font-size="14.00"> &#160;&#160;&#160;(혹은 Redux)를 &#160;사용하고</text>
<text text-anchor="middle" x="539" y="-2286.49" font-family="Times,serif" font-size="14.00"> &#160;&#160;&#160;있습니까?</text>
</g>
<!-- boilerplates_dont_teach&#45;&gt;are_you_using_flux -->
<g id="edge4" class="edge"><title>boilerplates_dont_teach&#45;&gt;are_you_using_flux</title>
<path fill="none" stroke="black" d="M399.514,-2402C425.731,-2384.14 451.5,-2366.59 473.615,-2351.53"/>
<polygon fill="black" stroke="black" points="475.611,-2354.41 481.906,-2345.88 471.67,-2348.62 475.611,-2354.41"/>
</g>
<!-- steal_from_boilerplates&#45;&gt;are_you_using_flux -->
<g id="edge5" class="edge"><title>steal_from_boilerplates&#45;&gt;are_you_using_flux</title>
<path fill="none" stroke="black" d="M661.769,-2442.31C637.05,-2415.07 609.193,-2384.36 586.271,-2359.1"/>
<polygon fill="black" stroke="black" points="588.636,-2356.5 579.325,-2351.44 583.452,-2361.2 588.636,-2356.5"/>
</g>
<!-- is_too_much_flux -->
<g id="node6" class="node"><title>is_too_much_flux</title>
<polygon fill="none" stroke="black" points="411,-2176.73 234.704,-2119 411,-2061.27 587.296,-2119 411,-2176.73"/>
<text text-anchor="middle" x="411" y="-2132.73" font-family="Times,serif" font-size="14.00">명백한 이득없이</text>
<text text-anchor="middle" x="411" y="-2116.11" font-family="Times,serif" font-size="14.00"> &#160;&#160;&#160;보일러 플레이트를 많이</text>
<text text-anchor="middle" x="411" y="-2099.49" font-family="Times,serif" font-size="14.00"> &#160;&#160;&#160;사용해야 합니까?</text>
</g>
<!-- are_you_using_flux&#45;&gt;is_too_much_flux -->
<g id="edge6" class="edge"><title>are_you_using_flux&#45;&gt;is_too_much_flux</title>
<path fill="none" stroke="black" d="M506.7,-2258.32C489.124,-2232.91 467.281,-2201.34 448.903,-2174.78"/>
<polygon fill="black" stroke="black" points="451.636,-2172.58 443.068,-2166.35 445.879,-2176.56 451.636,-2172.58"/>
<text text-anchor="middle" x="493.993" y="-2218.11" font-family="Times,serif" font-size="14.00">네</text>
</g>
<!-- is_not_enough_flux -->
<g id="node7" class="node"><title>is_not_enough_flux</title>
<polygon fill="none" stroke="black" points="888,-2193.48 606.848,-2119 888,-2044.52 1169.15,-2119 888,-2193.48"/>
<text text-anchor="middle" x="888" y="-2141.04" font-family="Times,serif" font-size="14.00">종종 소스의 버그를 만들어내는</text>
<text text-anchor="middle" x="888" y="-2124.42" font-family="Times,serif" font-size="14.00"> &#160;&#160;&#160;state가 많이 관리되는 컴포넌트가</text>
<text text-anchor="middle" x="888" y="-2107.8" font-family="Times,serif" font-size="14.00"> &#160;&#160;&#160;컴포넌트 계층 구조의 상단에서 자리잡고</text>
<text text-anchor="middle" x="888" y="-2091.18" font-family="Times,serif" font-size="14.00"> &#160;&#160;&#160;있습니까?</text>
</g>
<!-- are_you_using_flux&#45;&gt;is_not_enough_flux -->
<g id="edge7" class="edge"><title>are_you_using_flux&#45;&gt;is_not_enough_flux</title>
<path fill="none" stroke="black" d="M606.291,-2269.33C657.338,-2242.27 728.369,-2204.62 786.334,-2173.89"/>
<polygon fill="black" stroke="black" points="788.323,-2176.8 795.519,-2169.02 785.045,-2170.61 788.323,-2176.8"/>
<text text-anchor="middle" x="734.98" y="-2218.11" font-family="Times,serif" font-size="14.00">아니오</text>
</g>
<!-- remove_flux -->
<g id="node8" class="node"><title>remove_flux</title>
<polygon fill="none" stroke="black" points="544.353,-1990.49 227.647,-1990.49 227.647,-1915.51 544.353,-1915.51 544.353,-1990.49"/>
<text text-anchor="middle" x="386" y="-1975.04" font-family="Times,serif" font-size="14.00">Flux 라이브러리를 제거하세요.</text>
<text text-anchor="middle" x="386" y="-1958.42" font-family="Times,serif" font-size="14.00"> &#160;&#160;&#160;공식 사이트 문서의 Thinking in React</text>
<text text-anchor="middle" x="386" y="-1941.8" font-family="Times,serif" font-size="14.00"> &#160;&#160;&#160;를 읽어보고 순수 React 형태의 어플리케이션을</text>
<text text-anchor="middle" x="386" y="-1925.18" font-family="Times,serif" font-size="14.00"> &#160;&#160;&#160;구조화하는데 좋은 감각을 가지세요.</text>
</g>
<!-- is_too_much_flux&#45;&gt;remove_flux -->
<g id="edge8" class="edge"><title>is_too_much_flux&#45;&gt;remove_flux</title>
<path fill="none" stroke="black" d="M402.745,-2063.85C399.608,-2043.27 396.066,-2020.04 393.051,-2000.25"/>
<polygon fill="black" stroke="black" points="396.494,-1999.61 391.527,-1990.26 389.574,-2000.67 396.494,-1999.61"/>
<text text-anchor="middle" x="403.993" y="-2014.11" font-family="Times,serif" font-size="14.00">네</text>
</g>
<!-- are_you_using_bundler -->
<g id="node9" class="node"><title>are_you_using_bundler</title>
<polygon fill="none" stroke="black" points="620,-1878.49 366.987,-1837 620,-1795.51 873.013,-1837 620,-1878.49"/>
<text text-anchor="middle" x="620" y="-1842.42" font-family="Times,serif" font-size="14.00">Webpack이나 Browserify 같은</text>
<text text-anchor="middle" x="620" y="-1825.8" font-family="Times,serif" font-size="14.00"> &#160;&#160;&#160;자바스크립트 번들러를 사용하나요?</text>
</g>
<!-- is_too_much_flux&#45;&gt;are_you_using_bundler -->
<g id="edge9" class="edge"><title>is_too_much_flux&#45;&gt;are_you_using_bundler</title>
<path fill="none" stroke="black" d="M464.703,-2078.71C493.709,-2055.42 528.491,-2023.89 553,-1990 575.876,-1958.37 593.291,-1917.7 604.626,-1886.39"/>
<polygon fill="black" stroke="black" points="608.062,-1887.17 608.091,-1876.57 601.461,-1884.84 608.062,-1887.17"/>
<text text-anchor="middle" x="613.98" y="-1950.11" font-family="Times,serif" font-size="14.00">아니오</text>
</g>
<!-- is_not_enough_flux&#45;&gt;are_you_using_bundler -->
<g id="edge11" class="edge"><title>is_not_enough_flux&#45;&gt;are_you_using_bundler</title>
<path fill="none" stroke="black" d="M777.25,-2073.86C738.038,-2053.46 696.615,-2025.7 668.041,-1990 655.182,-1973.93 641.052,-1925.24 631.466,-1887.25"/>
<polygon fill="black" stroke="black" points="634.815,-1886.21 629.009,-1877.35 628.021,-1887.9 634.815,-1886.21"/>
<text text-anchor="middle" x="689.98" y="-1950.11" font-family="Times,serif" font-size="14.00">아니오</text>
</g>
<!-- add_flux -->
<g id="node10" class="node"><title>add_flux</title>
<polygon fill="none" stroke="black" points="1089.28,-1981.87 718.724,-1981.87 718.724,-1924.13 1089.28,-1924.13 1089.28,-1981.87"/>
<text text-anchor="middle" x="904" y="-1966.73" font-family="Times,serif" font-size="14.00">Flux 라이브러리를 추가하는 것을 고려해 보세요.</text>
<text text-anchor="middle" x="904" y="-1950.11" font-family="Times,serif" font-size="14.00"> &#160;&#160;&#160;다량의 컴포넌트들 간에 state를 외부화 하고 지속적으로</text>
<text text-anchor="middle" x="904" y="-1933.49" font-family="Times,serif" font-size="14.00"> &#160;&#160;&#160;업데이트 하는데 도움이 됩니다.</text>
</g>
<!-- is_not_enough_flux&#45;&gt;add_flux -->
<g id="edge10" class="edge"><title>is_not_enough_flux&#45;&gt;add_flux</title>
<path fill="none" stroke="black" d="M895.018,-2046.07C896.836,-2027.43 898.723,-2008.09 900.296,-1991.97"/>
<polygon fill="black" stroke="black" points="903.792,-1992.18 901.28,-1981.88 896.825,-1991.5 903.792,-1992.18"/>
<text text-anchor="middle" x="904.993" y="-2014.11" font-family="Times,serif" font-size="14.00">네</text>
</g>
<!-- remove_flux&#45;&gt;are_you_using_bundler -->
<g id="edge13" class="edge"><title>remove_flux&#45;&gt;are_you_using_bundler</title>
<path fill="none" stroke="black" d="M460.682,-1915.62C488.802,-1901.92 520.691,-1886.38 548.512,-1872.83"/>
<polygon fill="black" stroke="black" points="550.323,-1875.84 557.78,-1868.31 547.257,-1869.55 550.323,-1875.84"/>
</g>
<!-- are_you_working_on_production_app_with_bundler -->
<g id="node11" class="node"><title>are_you_working_on_production_app_with_bundler</title>
<polygon fill="none" stroke="black" points="526,-1742.49 363.864,-1701 526,-1659.51 688.136,-1701 526,-1742.49"/>
<text text-anchor="middle" x="526" y="-1706.42" font-family="Times,serif" font-size="14.00">제품화 단계의</text>
<text text-anchor="middle" x="526" y="-1689.8" font-family="Times,serif" font-size="14.00"> &#160;&#160;&#160;어플리케이션입니까?</text>
</g>
<!-- are_you_using_bundler&#45;&gt;are_you_working_on_production_app_with_bundler -->
<g id="edge14" class="edge"><title>are_you_using_bundler&#45;&gt;are_you_working_on_production_app_with_bundler</title>
<path fill="none" stroke="black" d="M594.314,-1799.38C582.542,-1782.6 568.507,-1762.59 556.229,-1745.09"/>
<polygon fill="black" stroke="black" points="558.968,-1742.9 550.36,-1736.73 553.238,-1746.92 558.968,-1742.9"/>
<text text-anchor="middle" x="585.993" y="-1766.11" font-family="Times,serif" font-size="14.00">네</text>
</g>
<!-- are_you_working_on_production_app_without_bundler -->
<g id="node12" class="node"><title>are_you_working_on_production_app_without_bundler</title>
<polygon fill="none" stroke="black" points="868,-1742.49 705.864,-1701 868,-1659.51 1030.14,-1701 868,-1742.49"/>
<text text-anchor="middle" x="868" y="-1706.42" font-family="Times,serif" font-size="14.00">제품화 단계의</text>
<text text-anchor="middle" x="868" y="-1689.8" font-family="Times,serif" font-size="14.00"> &#160;&#160;&#160;어플리케이션입니까?</text>
</g>
<!-- are_you_using_bundler&#45;&gt;are_you_working_on_production_app_without_bundler -->
<g id="edge15" class="edge"><title>are_you_using_bundler&#45;&gt;are_you_working_on_production_app_without_bundler</title>
<path fill="none" stroke="black" d="M677.52,-1804.92C716.68,-1783.76 768.401,-1755.82 808.065,-1734.38"/>
<polygon fill="black" stroke="black" points="809.969,-1737.33 817.103,-1729.5 806.641,-1731.18 809.969,-1737.33"/>
<text text-anchor="middle" x="779.98" y="-1766.11" font-family="Times,serif" font-size="14.00">아니오</text>
</g>
<!-- add_flux&#45;&gt;are_you_using_bundler -->
<g id="edge12" class="edge"><title>add_flux&#45;&gt;are_you_using_bundler</title>
<path fill="none" stroke="black" d="M834.526,-1924.11C794.221,-1907.93 743.261,-1887.48 701.123,-1870.56"/>
<polygon fill="black" stroke="black" points="702.307,-1867.27 691.723,-1866.79 699.699,-1873.76 702.307,-1867.27"/>
</g>
<!-- do_you_know_es2015 -->
<g id="node13" class="node"><title>do_you_know_es2015</title>
<polygon fill="none" stroke="black" points="781,-1461.73 574.931,-1404 781,-1346.27 987.069,-1404 781,-1461.73"/>
<text text-anchor="middle" x="781" y="-1417.73" font-family="Times,serif" font-size="14.00">ES2015의 기능들을</text>
<text text-anchor="middle" x="781" y="-1401.11" font-family="Times,serif" font-size="14.00"> &#160;&#160;&#160;사용하는데 익숙합니까?</text>
<text text-anchor="middle" x="781" y="-1384.49" font-family="Times,serif" font-size="14.00"> &#160;&#160;&#160;(classes나 fat arrow같은 기능)</text>
</g>
<!-- are_you_working_on_production_app_with_bundler&#45;&gt;do_you_know_es2015 -->
<g id="edge16" class="edge"><title>are_you_working_on_production_app_with_bundler&#45;&gt;do_you_know_es2015</title>
<path fill="none" stroke="black" d="M485.771,-1669.31C467.485,-1652.79 447.786,-1630.74 438.014,-1606 420.706,-1562.18 409.492,-1537.5 438.014,-1500 463.086,-1467.04 555.946,-1442.55 638.727,-1426.7"/>
<polygon fill="black" stroke="black" points="639.587,-1430.09 648.767,-1424.8 638.292,-1423.22 639.587,-1430.09"/>
<text text-anchor="middle" x="445.993" y="-1550.11" font-family="Times,serif" font-size="14.00">네</text>
</g>
<!-- remove_bundler -->
<g id="node14" class="node"><title>remove_bundler</title>
<polygon fill="none" stroke="black" points="802.41,-1605.61 461.59,-1605.61 461.59,-1500.39 802.41,-1500.39 802.41,-1605.61"/>
<text text-anchor="middle" x="632" y="-1590.36" font-family="Times,serif" font-size="14.00">React를 그저 배우는 단계에서는</text>
<text text-anchor="middle" x="632" y="-1573.73" font-family="Times,serif" font-size="14.00"> &#160;&#160;&#160;번들러를 사용할 필요는 없습니다.</text>
<text text-anchor="middle" x="632" y="-1557.11" font-family="Times,serif" font-size="14.00"> &#160;&#160;&#160;https://github.com/jarsbe/react&#45;simple</text>
<text text-anchor="middle" x="632" y="-1543.11" font-family="Times,serif" font-size="14.00"> &#160;&#160;&#160;프로젝트를 내려받아서 빌드 단계없이 시작하세요.</text>
<text text-anchor="middle" x="632" y="-1526.49" font-family="Times,serif" font-size="14.00"> &#160;&#160;&#160;React가 익숙해지고 모듈 시스템과 다른 번들러는</text>
<text text-anchor="middle" x="632" y="-1509.87" font-family="Times,serif" font-size="14.00"> &#160;&#160;&#160;알고 싶어질 때까지는 &lt;script&gt; 태그를 사용하세요.</text>
</g>
<!-- are_you_working_on_production_app_with_bundler&#45;&gt;remove_bundler -->
<g id="edge17" class="edge"><title>are_you_working_on_production_app_with_bundler&#45;&gt;remove_bundler</title>
<path fill="none" stroke="black" d="M550.852,-1665.77C562.001,-1650.41 575.49,-1631.83 588.243,-1614.27"/>
<polygon fill="black" stroke="black" points="591.387,-1615.9 594.43,-1605.75 585.723,-1611.78 591.387,-1615.9"/>
<text text-anchor="middle" x="599.98" y="-1630.11" font-family="Times,serif" font-size="14.00">아니오</text>
</g>
<!-- are_you_working_on_production_app_without_bundler&#45;&gt;do_you_know_es2015 -->
<g id="edge19" class="edge"><title>are_you_working_on_production_app_without_bundler&#45;&gt;do_you_know_es2015</title>
<path fill="none" stroke="black" d="M857.497,-1661.94C846.294,-1621.63 827.876,-1556.19 811,-1500 807.768,-1489.24 804.244,-1477.82 800.785,-1466.77"/>
<polygon fill="black" stroke="black" points="804.109,-1465.67 797.77,-1457.18 797.431,-1467.77 804.109,-1465.67"/>
<text text-anchor="middle" x="861.98" y="-1550.11" font-family="Times,serif" font-size="14.00">아니오</text>
</g>
<!-- add_bundler -->
<g id="node15" class="node"><title>add_bundler</title>
<polygon fill="none" stroke="black" points="1236.28,-1598.61 899.725,-1598.61 899.725,-1507.39 1236.28,-1507.39 1236.28,-1598.61"/>
<text text-anchor="middle" x="1068" y="-1583.36" font-family="Times,serif" font-size="14.00">의존성을 관리하고 효과적으로 소스코드를 유지하기</text>
<text text-anchor="middle" x="1068" y="-1566.73" font-family="Times,serif" font-size="14.00"> &#160;&#160;&#160;위해 빌드 단계에 번들러를 추가하세요.</text>
<text text-anchor="middle" x="1068" y="-1550.11" font-family="Times,serif" font-size="14.00"> &#160;&#160;&#160;얼마나 잘하고 있는지 측정하기 위해서는</text>
<text text-anchor="middle" x="1068" y="-1533.49" font-family="Times,serif" font-size="14.00"> &#160;&#160;&#160;Google Page Speed 를 사용해 보세요.</text>
<text text-anchor="middle" x="1068" y="-1516.87" font-family="Times,serif" font-size="14.00"> &#160;&#160;&#160;minify와 envify를 쓰는 것을 잊지마세요.</text>
</g>
<!-- are_you_working_on_production_app_without_bundler&#45;&gt;add_bundler -->
<g id="edge18" class="edge"><title>are_you_working_on_production_app_without_bundler&#45;&gt;add_bundler</title>
<path fill="none" stroke="black" d="M909.44,-1669.75C935.168,-1650.97 968.88,-1626.36 998.601,-1604.66"/>
<polygon fill="black" stroke="black" points="1000.86,-1607.35 1006.87,-1598.63 996.728,-1601.7 1000.86,-1607.35"/>
<text text-anchor="middle" x="974.993" y="-1630.11" font-family="Times,serif" font-size="14.00">네</text>
</g>
<!-- use_es5 -->
<g id="node16" class="node"><title>use_es5</title>
<polygon fill="none" stroke="black" points="914.342,-1158.22 583.658,-1158.22 583.658,-969.776 914.342,-969.776 914.342,-1158.22"/>
<text text-anchor="middle" x="749" y="-1142.91" font-family="Times,serif" font-size="14.00">ES2015는 보류하세요.</text>
<text text-anchor="middle" x="749" y="-1126.29" font-family="Times,serif" font-size="14.00"> &#160;&#160;&#160;React를 배우기 위해 필수는 아닙니다.</text>
<text text-anchor="middle" x="749" y="-1109.67" font-family="Times,serif" font-size="14.00"> &#160;&#160;&#160;써드파티 라이브러리들이 종종 ES2015문법을</text>
<text text-anchor="middle" x="749" y="-1093.04" font-family="Times,serif" font-size="14.00"> &#160;&#160;&#160;그들의 문서에 적고 있습니다. 하지만 당신이</text>
<text text-anchor="middle" x="749" y="-1076.42" font-family="Times,serif" font-size="14.00"> &#160;&#160;&#160;React만 배우려고 할 때는 써드파티 라이브러리가</text>
<text text-anchor="middle" x="749" y="-1059.8" font-family="Times,serif" font-size="14.00"> &#160;&#160;&#160;필요 없습니다.</text>
<text text-anchor="middle" x="749" y="-1043.18" font-family="Times,serif" font-size="14.00"> &#160;&#160;&#160;Javascript를 더 공부해야겠다고 느껴질 때면</text>
<text text-anchor="middle" x="749" y="-1026.56" font-family="Times,serif" font-size="14.00"> &#160;&#160;&#160;https://leanpub.com/understandinges6/read</text>
<text text-anchor="middle" x="749" y="-1012.56" font-family="Times,serif" font-size="14.00"> &#160;&#160;&#160;는 매우 유용한 가이드가 됩니다.</text>
<text text-anchor="middle" x="749" y="-995.933" font-family="Times,serif" font-size="14.00"> &#160;&#160;&#160;http://babeljs.io/repl 를 통해서</text>
<text text-anchor="middle" x="749" y="-979.31" font-family="Times,serif" font-size="14.00"> &#160;&#160;&#160;실습해 보세요.</text>
</g>
<!-- do_you_know_es2015&#45;&gt;use_es5 -->
<g id="edge22" class="edge"><title>do_you_know_es2015&#45;&gt;use_es5</title>
<path fill="none" stroke="black" d="M774.193,-1347.99C772.082,-1330.14 769.831,-1310.24 768,-1292 763.948,-1251.63 760.093,-1207.17 756.927,-1168.37"/>
<polygon fill="black" stroke="black" points="760.392,-1167.8 756.095,-1158.11 753.415,-1168.36 760.392,-1167.8"/>
<text text-anchor="middle" x="792.98" y="-1316.11" font-family="Times,serif" font-size="14.00">아니오</text>
</g>
<!-- are_you_using_dangerous_features -->
<g id="node17" class="node"><title>are_you_using_dangerous_features</title>
<polygon fill="none" stroke="black" points="1034,-1291.73 777.737,-1234 1034,-1176.27 1290.26,-1234 1034,-1291.73"/>
<text text-anchor="middle" x="1034" y="-1247.73" font-family="Times,serif" font-size="14.00">아직 ES2015에도 포함되지 않은</text>
<text text-anchor="middle" x="1034" y="-1231.11" font-family="Times,serif" font-size="14.00"> &#160;&#160;&#160;실험적인 기능들을 사용하고 있나요?</text>
<text text-anchor="middle" x="1034" y="-1214.49" font-family="Times,serif" font-size="14.00"> &#160;&#160;&#160;(decorators가 그 예입니다.)</text>
</g>
<!-- do_you_know_es2015&#45;&gt;are_you_using_dangerous_features -->
<g id="edge23" class="edge"><title>do_you_know_es2015&#45;&gt;are_you_using_dangerous_features</title>
<path fill="none" stroke="black" d="M841.278,-1362.97C877.287,-1339.06 923.264,-1308.53 961.28,-1283.29"/>
<polygon fill="black" stroke="black" points="963.366,-1286.1 969.761,-1277.66 959.494,-1280.27 963.366,-1286.1"/>
<text text-anchor="middle" x="921.993" y="-1316.11" font-family="Times,serif" font-size="14.00">네</text>
</g>
<!-- remove_bundler&#45;&gt;do_you_know_es2015 -->
<g id="edge21" class="edge"><title>remove_bundler&#45;&gt;do_you_know_es2015</title>
<path fill="none" stroke="black" d="M684.532,-1500.17C698.801,-1486.1 714.252,-1470.85 728.519,-1456.78"/>
<polygon fill="black" stroke="black" points="731.199,-1459.05 735.859,-1449.53 726.282,-1454.07 731.199,-1459.05"/>
</g>
<!-- add_bundler&#45;&gt;do_you_know_es2015 -->
<g id="edge20" class="edge"><title>add_bundler&#45;&gt;do_you_know_es2015</title>
<path fill="none" stroke="black" d="M980.722,-1507.3C943.018,-1487.98 899.163,-1465.52 862.168,-1446.57"/>
<polygon fill="black" stroke="black" points="863.415,-1443.28 852.919,-1441.84 860.224,-1449.51 863.415,-1443.28"/>
</g>
<!-- do_you_update_packages_asap -->
<g id="node18" class="node"><title>do_you_update_packages_asap</title>
<polygon fill="none" stroke="black" points="985,-704.491 700.118,-663 985,-621.509 1269.88,-663 985,-704.491"/>
<text text-anchor="middle" x="985" y="-668.422" font-family="Times,serif" font-size="14.00">의존성이 있는 모듈들의 새 메이저 버전들이</text>
<text text-anchor="middle" x="985" y="-651.8" font-family="Times,serif" font-size="14.00"> &#160;&#160;&#160;나오면 적용합니까?</text>
</g>
<!-- use_es5&#45;&gt;do_you_update_packages_asap -->
<g id="edge24" class="edge"><title>use_es5&#45;&gt;do_you_update_packages_asap</title>
<path fill="none" stroke="black" d="M782.314,-969.852C810.895,-897.725 856.82,-797.688 916,-722 920.573,-716.152 925.82,-710.48 931.335,-705.119"/>
<polygon fill="black" stroke="black" points="934.038,-707.385 938.982,-698.014 929.274,-702.256 934.038,-707.385"/>
</g>
<!-- are_you_using_dangerous_features&#45;&gt;do_you_update_packages_asap -->
<g id="edge26" class="edge"><title>are_you_using_dangerous_features&#45;&gt;do_you_update_packages_asap</title>
<path fill="none" stroke="black" d="M1013.12,-1180.72C992.102,-1125.07 961.121,-1033.93 949,-952 941.455,-900.999 943.691,-887.281 949,-836 953.346,-794.018 963.508,-747.18 971.931,-712.995"/>
<polygon fill="black" stroke="black" points="975.336,-713.809 974.368,-703.258 968.545,-712.11 975.336,-713.809"/>
<text text-anchor="middle" x="973.98" y="-806.111" font-family="Times,serif" font-size="14.00">아니오</text>
</g>
<!-- can_you_spend_days_on_your_tooling -->
<g id="node19" class="node"><title>can_you_spend_days_on_your_tooling</title>
<polygon fill="none" stroke="black" points="1263,-951.735 957.798,-894 1263,-836.265 1568.2,-894 1263,-951.735"/>
<text text-anchor="middle" x="1263" y="-907.734" font-family="Times,serif" font-size="14.00">당신은 버그, 호환성 문제,</text>
<text text-anchor="middle" x="1263" y="-891.111" font-family="Times,serif" font-size="14.00"> &#160;&#160;&#160;표준의 변경에 따라 매주마다 당신의</text>
<text text-anchor="middle" x="1263" y="-874.489" font-family="Times,serif" font-size="14.00"> &#160;&#160;&#160;도구들을 고치는데 시간을 보낼 수 있습니까?</text>
</g>
<!-- are_you_using_dangerous_features&#45;&gt;can_you_spend_days_on_your_tooling -->
<g id="edge25" class="edge"><title>are_you_using_dangerous_features&#45;&gt;can_you_spend_days_on_your_tooling</title>
<path fill="none" stroke="black" d="M1067.54,-1183.49C1108.86,-1122.51 1178.97,-1019.03 1223.03,-953.992"/>
<polygon fill="black" stroke="black" points="1226.09,-955.713 1228.81,-945.471 1220.3,-951.787 1226.09,-955.713"/>
<text text-anchor="middle" x="1213.99" y="-1061.11" font-family="Times,serif" font-size="14.00">네</text>
</g>
<!-- give_it_two_months -->
<g id="node21" class="node"><title>give_it_two_months</title>
<polygon fill="none" stroke="black" points="1077,-568.224 690.996,-568.224 690.996,-379.776 1077,-379.776 1077,-568.224"/>
<text text-anchor="middle" x="884" y="-552.912" font-family="Times,serif" font-size="14.00">매 릴리즈전에 충실히 테스트된 React에 대해</text>
<text text-anchor="middle" x="884" y="-536.29" font-family="Times,serif" font-size="14.00"> &#160;&#160;&#160;이야기 하려는 것은 아니지만, 패키지 업데이트의 속도를</text>
<text text-anchor="middle" x="884" y="-519.667" font-family="Times,serif" font-size="14.00"> &#160;&#160;&#160;늦추는 것을 고려해 보십시오.</text>
<text text-anchor="middle" x="884" y="-503.045" font-family="Times,serif" font-size="14.00"> &#160;&#160;&#160;의존성이 있는 모듈의 새 버전을 업데이트할 수 있지만</text>
<text text-anchor="middle" x="884" y="-486.422" font-family="Times,serif" font-size="14.00"> &#160;&#160;&#160;그 모듈의 커뮤니티에서 버전이 안정화 될때까지 몇달은</text>
<text text-anchor="middle" x="884" y="-469.8" font-family="Times,serif" font-size="14.00"> &#160;&#160;&#160;브랜치에 놔두는 것이 최선입니다.</text>
<text text-anchor="middle" x="884" y="-453.178" font-family="Times,serif" font-size="14.00"> &#160;&#160;&#160;트렌드를 못 쫓아갈까봐 두려워하지 마세요.</text>
<text text-anchor="middle" x="884" y="-436.555" font-family="Times,serif" font-size="14.00"> &#160;&#160;&#160;오래된 문서를 찾을때 깃헙의 태그릴리즈를 체크하는 것도</text>
<text text-anchor="middle" x="884" y="-419.933" font-family="Times,serif" font-size="14.00"> &#160;&#160;&#160;잊지 마십시오. 예를 들면</text>
<text text-anchor="middle" x="884" y="-403.31" font-family="Times,serif" font-size="14.00"> &#160;&#160;&#160;https://github.com/reactjs/react&#45;router/tree/0.13.x/doc</text>
<text text-anchor="middle" x="884" y="-389.31" font-family="Times,serif" font-size="14.00"> &#160;&#160;&#160;같은 문서.</text>
</g>
<!-- do_you_update_packages_asap&#45;&gt;give_it_two_months -->
<g id="edge30" class="edge"><title>do_you_update_packages_asap&#45;&gt;give_it_two_months</title>
<path fill="none" stroke="black" d="M964.561,-624.158C957.169,-610.471 948.425,-594.282 939.471,-577.703"/>
<polygon fill="black" stroke="black" points="942.313,-575.601 934.482,-568.466 936.154,-578.928 942.313,-575.601"/>
<text text-anchor="middle" x="958.993" y="-592.111" font-family="Times,serif" font-size="14.00">네</text>
</g>
<!-- consider_updating_react -->
<g id="node22" class="node"><title>consider_updating_react</title>
<polygon fill="none" stroke="black" points="1409.05,-544.479 1094.95,-544.479 1094.95,-403.521 1409.05,-403.521 1409.05,-544.479"/>
<text text-anchor="middle" x="1252" y="-529.29" font-family="Times,serif" font-size="14.00">좋은 징조입니다.</text>
<text text-anchor="middle" x="1252" y="-512.667" font-family="Times,serif" font-size="14.00"> &#160;&#160;&#160;어쨌거나, 새로운 React 버전이 나오면</text>
<text text-anchor="middle" x="1252" y="-496.045" font-family="Times,serif" font-size="14.00"> &#160;&#160;&#160;적용해 보기를 권면합니다.(브랜치에서!)</text>
<text text-anchor="middle" x="1252" y="-479.422" font-family="Times,serif" font-size="14.00"> &#160;&#160;&#160;많은 커뮤니티 패키지들과는 달리</text>
<text text-anchor="middle" x="1252" y="-462.8" font-family="Times,serif" font-size="14.00"> &#160;&#160;&#160;Facebook에서 충실하게 테스트 되어 나옵니다.</text>
<text text-anchor="middle" x="1252" y="-446.178" font-family="Times,serif" font-size="14.00"> &#160;&#160;&#160;릴리즈 노트는 충실하게 보셔야 합니다.</text>
<text text-anchor="middle" x="1252" y="-429.555" font-family="Times,serif" font-size="14.00"> &#160;&#160;&#160;새 버전을 적용하기 위한 마이그레이션 절차를</text>
<text text-anchor="middle" x="1252" y="-412.933" font-family="Times,serif" font-size="14.00"> &#160;&#160;&#160;자동화한 codemods의 링크가 담겨져 있습니다.</text>
</g>
<!-- do_you_update_packages_asap&#45;&gt;consider_updating_react -->
<g id="edge31" class="edge"><title>do_you_update_packages_asap&#45;&gt;consider_updating_react</title>
<path fill="none" stroke="black" d="M1033.04,-628.352C1064.09,-606.607 1105.78,-577.412 1144.44,-550.331"/>
<polygon fill="black" stroke="black" points="1146.46,-553.192 1152.64,-544.588 1142.44,-547.458 1146.46,-553.192"/>
<text text-anchor="middle" x="1106.98" y="-592.111" font-family="Times,serif" font-size="14.00">아니오</text>
</g>
<!-- can_you_spend_days_on_your_tooling&#45;&gt;do_you_update_packages_asap -->
<g id="edge27" class="edge"><title>can_you_spend_days_on_your_tooling&#45;&gt;do_you_update_packages_asap</title>
<path fill="none" stroke="black" d="M1170.82,-853.549C1134.63,-835.21 1094.34,-810.993 1063.01,-782 1041.12,-761.737 1022.43,-734.133 1008.85,-710.719"/>
<polygon fill="black" stroke="black" points="1011.87,-708.95 1003.89,-701.974 1005.78,-712.4 1011.87,-708.95"/>
<text text-anchor="middle" x="1069.99" y="-759.111" font-family="Times,serif" font-size="14.00">네</text>
</g>
<!-- stick_to_es2015 -->
<g id="node20" class="node"><title>stick_to_es2015</title>
<polygon fill="none" stroke="black" points="1357.46,-781.124 1086.54,-781.124 1086.54,-742.876 1357.46,-742.876 1357.46,-781.124"/>
<text text-anchor="middle" x="1222" y="-766.111" font-family="Times,serif" font-size="14.00">ES2015, JSX, object spread operator</text>
<text text-anchor="middle" x="1222" y="-752.111" font-family="Times,serif" font-size="14.00"> &#160;&#160;&#160;등 사용하기 용이한 기능에 충실하세요.</text>
</g>
<!-- can_you_spend_days_on_your_tooling&#45;&gt;stick_to_es2015 -->
<g id="edge28" class="edge"><title>can_you_spend_days_on_your_tooling&#45;&gt;stick_to_es2015</title>
<path fill="none" stroke="black" d="M1246.09,-839.373C1240.83,-822.714 1235.25,-805.026 1230.79,-790.872"/>
<polygon fill="black" stroke="black" points="1234.1,-789.74 1227.76,-781.256 1227.43,-791.845 1234.1,-789.74"/>
<text text-anchor="middle" x="1258.98" y="-806.111" font-family="Times,serif" font-size="14.00">아니오</text>
</g>
<!-- stick_to_es2015&#45;&gt;do_you_update_packages_asap -->
<g id="edge29" class="edge"><title>stick_to_es2015&#45;&gt;do_you_update_packages_asap</title>
<path fill="none" stroke="black" d="M1177.7,-742.869C1146.82,-730.231 1104.7,-712.99 1067.71,-697.851"/>
<polygon fill="black" stroke="black" points="1069.01,-694.6 1058.42,-694.051 1066.35,-701.079 1069.01,-694.6"/>
</g>
<!-- are_you_still_sad -->
<g id="node23" class="node"><title>are_you_still_sad</title>
<polygon fill="none" stroke="black" points="1110,-342 1007.75,-324 1110,-306 1212.25,-324 1110,-342"/>
<text text-anchor="middle" x="1110" y="-319.8" font-family="Times,serif" font-size="14.00">Are you still sad?</text>
</g>
<!-- give_it_two_months&#45;&gt;are_you_still_sad -->
<g id="edge32" class="edge"><title>give_it_two_months&#45;&gt;are_you_still_sad</title>
<path fill="none" stroke="black" d="M1026.49,-379.689C1046.93,-366.305 1065.98,-353.827 1080.71,-344.179"/>
<polygon fill="black" stroke="black" points="1082.85,-346.962 1089.3,-338.555 1079.02,-341.106 1082.85,-346.962"/>
</g>
<!-- consider_updating_react&#45;&gt;are_you_still_sad -->
<g id="edge33" class="edge"><title>consider_updating_react&#45;&gt;are_you_still_sad</title>
<path fill="none" stroke="black" d="M1185.16,-403.334C1165.56,-382.903 1145.53,-362.031 1131.08,-346.974"/>
<polygon fill="black" stroke="black" points="1133.52,-344.456 1124.07,-339.664 1128.47,-349.303 1133.52,-344.456"/>
</g>
<!-- rant -->
<g id="node24" class="node"><title>rant</title>
<polygon fill="none" stroke="black" points="1121.07,-251.612 818.934,-251.612 818.934,-160.388 1121.07,-160.388 1121.07,-251.612"/>
<text text-anchor="middle" x="970" y="-236.356" font-family="Times,serif" font-size="14.00">문제가 생기면 건설적인 블로그를</text>
<text text-anchor="middle" x="970" y="-219.734" font-family="Times,serif" font-size="14.00"> &#160;&#160;&#160;작성하세요. 인신공격은 삼가.</text>
<text text-anchor="middle" x="970" y="-203.111" font-family="Times,serif" font-size="14.00"> &#160;&#160;&#160;정중하게 말이죠. 문제 해결을 위해 커뮤니티</text>
<text text-anchor="middle" x="970" y="-186.489" font-family="Times,serif" font-size="14.00"> &#160;&#160;&#160;에 참여하세요. Ember 같은 당신에게 맞는</text>
<text text-anchor="middle" x="970" y="-169.866" font-family="Times,serif" font-size="14.00"> &#160;&#160;&#160;다른 길을 찾아 보는 방법도 있습니다.</text>
</g>
<!-- are_you_still_sad&#45;&gt;rant -->
<g id="edge34" class="edge"><title>are_you_still_sad&#45;&gt;rant</title>
<path fill="none" stroke="black" d="M1092.83,-308.776C1077.48,-296.058 1054.03,-276.627 1031.72,-258.139"/>
<polygon fill="black" stroke="black" points="1033.82,-255.337 1023.89,-251.652 1029.36,-260.727 1033.82,-255.337"/>
<text text-anchor="middle" x="1070.99" y="-276.111" font-family="Times,serif" font-size="14.00">네</text>
</g>
<!-- happy -->
<g id="node25" class="node"><title>happy</title>
<polygon fill="none" stroke="black" points="1241.46,-121.746 966.542,-121.746 966.542,-80.2544 1241.46,-80.2544 1241.46,-121.746"/>
<text text-anchor="middle" x="1104" y="-106.422" font-family="Times,serif" font-size="14.00">React 땜에 행복해졌습니다!</text>
<text text-anchor="middle" x="1104" y="-89.8" font-family="Times,serif" font-size="14.00"> &#160;&#160;&#160;아니면 적어도 더 이상 슬프지는 않군요!</text>
</g>
<!-- are_you_still_sad&#45;&gt;happy -->
<g id="edge35" class="edge"><title>are_you_still_sad&#45;&gt;happy</title>
<path fill="none" stroke="black" d="M1115.9,-306.914C1120.78,-292.697 1127.34,-271.282 1130,-252 1135.6,-211.496 1138.55,-199.985 1130,-160 1127.88,-150.069 1123.92,-139.783 1119.72,-130.68"/>
<polygon fill="black" stroke="black" points="1122.86,-129.134 1115.33,-121.686 1116.57,-132.208 1122.86,-129.134"/>
<text text-anchor="middle" x="1155.98" y="-203.111" font-family="Times,serif" font-size="14.00">아니오</text>
</g>
<!-- rant&#45;&gt;happy -->
<g id="edge36" class="edge"><title>rant&#45;&gt;happy</title>
<path fill="none" stroke="black" d="M1027.99,-160.422C1042.38,-149.361 1057.34,-137.867 1070.14,-128.029"/>
<polygon fill="black" stroke="black" points="1072.41,-130.694 1078.21,-121.825 1068.15,-125.144 1072.41,-130.694"/>
</g>
<!-- share -->
<g id="node26" class="node"><title>share</title>
<path fill="none" stroke="black" d="M1378.29,-41.7456C1378.29,-41.7456 829.707,-41.7456 829.707,-41.7456 823.707,-41.7456 817.707,-35.7456 817.707,-29.7456 817.707,-29.7456 817.707,-12.2544 817.707,-12.2544 817.707,-6.2544 823.707,-0.254396 829.707,-0.254396 829.707,-0.254396 1378.29,-0.254396 1378.29,-0.254396 1384.29,-0.254396 1390.29,-6.2544 1390.29,-12.2544 1390.29,-12.2544 1390.29,-29.7456 1390.29,-29.7456 1390.29,-35.7456 1384.29,-41.7456 1378.29,-41.7456"/>
<text text-anchor="middle" x="1104" y="-26.4224" font-family="Times,serif" font-size="14.00">이 플로우 차트를 널리 공유해 주세요: http://bit.ly/react&#45;makes&#45;you&#45;sad.</text>
<text text-anchor="middle" x="1104" y="-9.8" font-family="Times,serif" font-size="14.00"> &#160;&#160;&#160;다음의 프로젝트에서 영감을 얻어서 만들었습니다: https://github.com/petehunt/react&#45;howto.</text>
</g>
<!-- happy&#45;&gt;share -->
<g id="edge37" class="edge"><title>happy&#45;&gt;share</title>
<path fill="none" stroke="black" d="M1104,-80.3173C1104,-71.7263 1104,-61.4621 1104,-51.9566"/>
<polygon fill="black" stroke="black" points="1107.5,-51.6764 1104,-41.6764 1100.5,-51.6764 1107.5,-51.6764"/>
</g>
</g>
</svg>
