<?xml version="1.0" encoding="UTF-8" standalone="no"?>
<!DOCTYPE svg PUBLIC "-//W3C//DTD SVG 1.1//EN"
 "http://www.w3.org/Graphics/SVG/1.1/DTD/svg11.dtd">
<!-- Generated by graphviz version 2.36.0 (20140111.2315)
 -->
<!-- Title: %3 Pages: 1 -->
<svg width="1420pt" height="2696pt"
 viewBox="0.00 0.00 1420.00 2696.00" xmlns="http://www.w3.org/2000/svg" xmlns:xlink="http://www.w3.org/1999/xlink">
<g id="graph0" class="graph" transform="scale(1 1) rotate(0) translate(4 2692)">
<title>%3</title>
<polygon fill="white" stroke="none" points="-4,4 -4,-2692 1416,-2692 1416,4 -4,4"/>
<!-- unhappy -->
<g id="node1" class="node"><title>unhappy</title>
<path fill="none" stroke="black" d="M442.213,-2688C442.213,-2688 335.787,-2688 335.787,-2688 329.787,-2688 323.787,-2682 323.787,-2676 323.787,-2676 323.787,-2664 323.787,-2664 323.787,-2658 329.787,-2652 335.787,-2652 335.787,-2652 442.213,-2652 442.213,-2652 448.213,-2652 454.213,-2658 454.213,-2664 454.213,-2664 454.213,-2676 454.213,-2676 454.213,-2682 448.213,-2688 442.213,-2688"/>
<text text-anchor="middle" x="389" y="-2665.8" font-family="Times,serif" font-size="14.00">React te deixa triste.</text>
</g>
<!-- are_you_using_react_boilerplates -->
<g id="node2" class="node"><title>are_you_using_react_boilerplates</title>
<polygon fill="none" stroke="black" points="389,-2614 206.994,-2564 389,-2514 571.006,-2564 389,-2614"/>
<text text-anchor="middle" x="389" y="-2573.8" font-family="Times,serif" font-size="14.00">Você está aprendendo</text>
<text text-anchor="middle" x="389" y="-2559.8" font-family="Times,serif" font-size="14.00"> &#160;&#160;&#160;React copiando de projetos</text>
<text text-anchor="middle" x="389" y="-2545.8" font-family="Times,serif" font-size="14.00"> &#160;&#160;&#160;boilerplate?</text>
</g>
<!-- unhappy&#45;&gt;are_you_using_react_boilerplates -->
<g id="edge1" class="edge"><title>unhappy&#45;&gt;are_you_using_react_boilerplates</title>
<path fill="none" stroke="black" d="M389,-2651.83C389,-2644.04 389,-2634.32 389,-2624.23"/>
<polygon fill="black" stroke="black" points="392.5,-2624.08 389,-2614.08 385.5,-2624.08 392.5,-2624.08"/>
</g>
<!-- boilerplates_dont_teach -->
<g id="node3" class="node"><title>boilerplates_dont_teach</title>
<polygon fill="none" stroke="black" points="380.344,-2464 -0.343564,-2464 -0.343564,-2246 380.344,-2246 380.344,-2464"/>
<text text-anchor="middle" x="190" y="-2448.8" font-family="Times,serif" font-size="14.00">Aprender React copiando boilerplates</text>
<text text-anchor="middle" x="190" y="-2434.8" font-family="Times,serif" font-size="14.00"> &#160;&#160;&#160;é como aprender cozinhar comendo em restaurante</text>
<text text-anchor="middle" x="190" y="-2420.8" font-family="Times,serif" font-size="14.00"> &#160;&#160;&#160;chique. Não funciona. Você precisa começar com</text>
<text text-anchor="middle" x="190" y="-2406.8" font-family="Times,serif" font-size="14.00"> &#160;&#160;&#160;o básica e ignorar o medo de não entender algo.</text>
<text text-anchor="middle" x="190" y="-2392.8" font-family="Times,serif" font-size="14.00"> &#160;&#160;&#160;É sem fundamento. Pessoas criam</text>
<text text-anchor="middle" x="190" y="-2378.8" font-family="Times,serif" font-size="14.00"> &#160;&#160;&#160;boilerplates para mostrar o que eles desenvolveram</text>
<text text-anchor="middle" x="190" y="-2364.8" font-family="Times,serif" font-size="14.00"> &#160;&#160;&#160;ou aprenderam, não para te ajudar a aprender. Eles são</text>
<text text-anchor="middle" x="190" y="-2350.8" font-family="Times,serif" font-size="14.00"> &#160;&#160;&#160;criados por e para usuários ativos e normalmente estão</text>
<text text-anchor="middle" x="190" y="-2336.8" font-family="Times,serif" font-size="14.00"> &#160;&#160;&#160;muito mais para um experimento do que eles admitem.</text>
<text text-anchor="middle" x="190" y="-2322.8" font-family="Times,serif" font-size="14.00"> &#160;&#160;&#160;Boilerplates competem por atenção o que leva à</text>
<text text-anchor="middle" x="190" y="-2308.8" font-family="Times,serif" font-size="14.00"> &#160;&#160;&#160;excesso de informação. Se você está nessa pelo React, aprenda</text>
<text text-anchor="middle" x="190" y="-2294.8" font-family="Times,serif" font-size="14.00"> &#160;&#160;&#160;na ordem em que o Pete Hunt descreve neste guia:</text>
<text text-anchor="middle" x="190" y="-2280.8" font-family="Times,serif" font-size="14.00"> &#160;&#160;&#160;https://github.com/petehunt/react&#45;howto.</text>
<text text-anchor="middle" x="190" y="-2266.8" font-family="Times,serif" font-size="14.00"> &#160;&#160;&#160;Olhe para boilerplates apenas quando você tem capacidadade</text>
<text text-anchor="middle" x="190" y="-2252.8" font-family="Times,serif" font-size="14.00"> &#160;&#160;&#160;para entender e criar o seu próprio.</text>
</g>
<!-- are_you_using_react_boilerplates&#45;&gt;boilerplates_dont_teach -->
<g id="edge2" class="edge"><title>are_you_using_react_boilerplates&#45;&gt;boilerplates_dont_teach</title>
<path fill="none" stroke="black" d="M351.57,-2524.06C336.894,-2508.8 319.219,-2490.41 301.023,-2471.49"/>
<polygon fill="black" stroke="black" points="303.482,-2468.99 294.028,-2464.21 298.436,-2473.85 303.482,-2468.99"/>
<text text-anchor="middle" x="329.114" y="-2484.8" font-family="Times,serif" font-size="14.00">sim</text>
</g>
<!-- steal_from_boilerplates -->
<g id="node4" class="node"><title>steal_from_boilerplates</title>
<polygon fill="none" stroke="black" points="780.933,-2429 399.067,-2429 399.067,-2281 780.933,-2281 780.933,-2429"/>
<text text-anchor="middle" x="590" y="-2413.8" font-family="Times,serif" font-size="14.00">Enquanto boilerplates não são uma boa maneira</text>
<text text-anchor="middle" x="590" y="-2399.8" font-family="Times,serif" font-size="14.00"> &#160;&#160;&#160;de se aprender tecnologias combinadas,</text>
<text text-anchor="middle" x="590" y="-2385.8" font-family="Times,serif" font-size="14.00"> &#160;&#160;&#160;eles são úteis para ver como essas tecnologias</text>
<text text-anchor="middle" x="590" y="-2371.8" font-family="Times,serif" font-size="14.00"> &#160;&#160;&#160;podem trabalhar juntas após você estar confortável</text>
<text text-anchor="middle" x="590" y="-2357.8" font-family="Times,serif" font-size="14.00"> &#160;&#160;&#160;com cada uma delas independentemente. É uma ótima maneira</text>
<text text-anchor="middle" x="590" y="-2343.8" font-family="Times,serif" font-size="14.00"> &#160;&#160;&#160;de descobrir novas tecnologias mas você não deveria</text>
<text text-anchor="middle" x="590" y="-2329.8" font-family="Times,serif" font-size="14.00"> &#160;&#160;&#160;se sentir obrigado a usar todas elas.</text>
<text text-anchor="middle" x="590" y="-2315.8" font-family="Times,serif" font-size="14.00"> &#160;&#160;&#160;Não desista completamente dos boilerplates.</text>
<text text-anchor="middle" x="590" y="-2301.8" font-family="Times,serif" font-size="14.00"> &#160;&#160;&#160;Apenas tenha em mente que um boilerplate é um</text>
<text text-anchor="middle" x="590" y="-2287.8" font-family="Times,serif" font-size="14.00"> &#160;&#160;&#160;combinado de truques e não uma base sólida para seu app.</text>
</g>
<!-- are_you_using_react_boilerplates&#45;&gt;steal_from_boilerplates -->
<g id="edge3" class="edge"><title>are_you_using_react_boilerplates&#45;&gt;steal_from_boilerplates</title>
<path fill="none" stroke="black" d="M426.807,-2524.06C450.81,-2499.34 482.759,-2466.44 512.022,-2436.31"/>
<polygon fill="black" stroke="black" points="514.547,-2438.73 519.002,-2429.12 509.525,-2433.85 514.547,-2438.73"/>
<text text-anchor="middle" x="476.107" y="-2484.8" font-family="Times,serif" font-size="14.00">não</text>
</g>
<!-- are_you_using_flux -->
<g id="node5" class="node"><title>are_you_using_flux</title>
<polygon fill="none" stroke="black" points="436,-2208 294.531,-2158 436,-2108 577.469,-2158 436,-2208"/>
<text text-anchor="middle" x="436" y="-2167.8" font-family="Times,serif" font-size="14.00">Você está usando</text>
<text text-anchor="middle" x="436" y="-2153.8" font-family="Times,serif" font-size="14.00"> &#160;&#160;&#160;uma biblioteca Flux</text>
<text text-anchor="middle" x="436" y="-2139.8" font-family="Times,serif" font-size="14.00"> &#160;&#160;&#160;(ou Redux)?</text>
</g>
<!-- boilerplates_dont_teach&#45;&gt;are_you_using_flux -->
<g id="edge4" class="edge"><title>boilerplates_dont_teach&#45;&gt;are_you_using_flux</title>
<path fill="none" stroke="black" d="M326.31,-2245.95C347.173,-2229.41 367.519,-2213.28 384.91,-2199.5"/>
<polygon fill="black" stroke="black" points="387.537,-2201.88 393.199,-2192.93 383.188,-2196.4 387.537,-2201.88"/>
</g>
<!-- steal_from_boilerplates&#45;&gt;are_you_using_flux -->
<g id="edge5" class="edge"><title>steal_from_boilerplates&#45;&gt;are_you_using_flux</title>
<path fill="none" stroke="black" d="M532.218,-2280.83C512.303,-2255.62 490.555,-2228.08 472.781,-2205.57"/>
<polygon fill="black" stroke="black" points="475.369,-2203.2 466.424,-2197.52 469.875,-2207.54 475.369,-2203.2"/>
</g>
<!-- is_too_much_flux -->
<g id="node6" class="node"><title>is_too_much_flux</title>
<polygon fill="none" stroke="black" points="295,-2058 79.791,-2008 295,-1958 510.209,-2008 295,-2058"/>
<text text-anchor="middle" x="295" y="-2017.8" font-family="Times,serif" font-size="14.00">Isso adicionar muitos</text>
<text text-anchor="middle" x="295" y="-2003.8" font-family="Times,serif" font-size="14.00"> &#160;&#160;&#160;boilerplates para</text>
<text text-anchor="middle" x="295" y="-1989.8" font-family="Times,serif" font-size="14.00"> &#160;&#160;&#160;um NÃO resultado significativo?</text>
</g>
<!-- are_you_using_flux&#45;&gt;is_too_much_flux -->
<g id="edge6" class="edge"><title>are_you_using_flux&#45;&gt;is_too_much_flux</title>
<path fill="none" stroke="black" d="M400.783,-2120.04C382.476,-2100.82 359.892,-2077.11 340.299,-2056.55"/>
<polygon fill="black" stroke="black" points="342.661,-2053.95 333.229,-2049.13 337.593,-2058.78 342.661,-2053.95"/>
<text text-anchor="middle" x="380.114" y="-2078.8" font-family="Times,serif" font-size="14.00">sim</text>
</g>
<!-- is_not_enough_flux -->
<g id="node7" class="node"><title>is_not_enough_flux</title>
<polygon fill="none" stroke="black" points="818,-2058 529.079,-2008 818,-1958 1106.92,-2008 818,-2058"/>
<text text-anchor="middle" x="818" y="-2017.8" font-family="Times,serif" font-size="14.00">Você tem alguns estados grandes</text>
<text text-anchor="middle" x="818" y="-2003.8" font-family="Times,serif" font-size="14.00"> &#160;&#160;&#160;em cima da sua hierarquia de componente que</text>
<text text-anchor="middle" x="818" y="-1989.8" font-family="Times,serif" font-size="14.00"> &#160;&#160;&#160;geralmente são a origem dos problemas?</text>
</g>
<!-- are_you_using_flux&#45;&gt;is_not_enough_flux -->
<g id="edge7" class="edge"><title>are_you_using_flux&#45;&gt;is_not_enough_flux</title>
<path fill="none" stroke="black" d="M502.539,-2131.22C562.868,-2107.85 652.539,-2073.11 720.874,-2046.63"/>
<polygon fill="black" stroke="black" points="722.309,-2049.83 730.369,-2042.95 719.78,-2043.3 722.309,-2049.83"/>
<text text-anchor="middle" x="649.107" y="-2078.8" font-family="Times,serif" font-size="14.00">não</text>
</g>
<!-- remove_flux -->
<g id="node8" class="node"><title>remove_flux</title>
<polygon fill="none" stroke="black" points="511.93,-1908 226.07,-1908 226.07,-1844 511.93,-1844 511.93,-1908"/>
<text text-anchor="middle" x="369" y="-1892.8" font-family="Times,serif" font-size="14.00">Remova a biblioteca Flux.</text>
<text text-anchor="middle" x="369" y="-1878.8" font-family="Times,serif" font-size="14.00"> &#160;&#160;&#160;Se sinta confortável em estruturar</text>
<text text-anchor="middle" x="369" y="-1864.8" font-family="Times,serif" font-size="14.00"> &#160;&#160;&#160;apps em React puro lendo o</text>
<text text-anchor="middle" x="369" y="-1850.8" font-family="Times,serif" font-size="14.00"> &#160;&#160;&#160;“Thinking in React” na documentação oficial.</text>
</g>
<!-- is_too_much_flux&#45;&gt;remove_flux -->
<g id="edge8" class="edge"><title>is_too_much_flux&#45;&gt;remove_flux</title>
<path fill="none" stroke="black" d="M319.641,-1963.71C328.206,-1948.66 337.77,-1931.86 346.181,-1917.09"/>
<polygon fill="black" stroke="black" points="349.345,-1918.6 351.25,-1908.18 343.261,-1915.14 349.345,-1918.6"/>
<text text-anchor="middle" x="351.114" y="-1928.8" font-family="Times,serif" font-size="14.00">sim</text>
</g>
<!-- are_you_using_bundler -->
<g id="node9" class="node"><title>are_you_using_bundler</title>
<polygon fill="none" stroke="black" points="585,-1806 397.566,-1756 585,-1706 772.434,-1756 585,-1806"/>
<text text-anchor="middle" x="585" y="-1765.8" font-family="Times,serif" font-size="14.00">Você está usando um</text>
<text text-anchor="middle" x="585" y="-1751.8" font-family="Times,serif" font-size="14.00"> &#160;&#160;&#160;empacotador JavaScript</text>
<text text-anchor="middle" x="585" y="-1737.8" font-family="Times,serif" font-size="14.00"> &#160;&#160;&#160;(ex: Webpack, Browserify)?</text>
</g>
<!-- is_too_much_flux&#45;&gt;are_you_using_bundler -->
<g id="edge9" class="edge"><title>is_too_much_flux&#45;&gt;are_you_using_bundler</title>
<path fill="none" stroke="black" d="M395.355,-1981.27C438.533,-1965.96 486.828,-1942.58 521,-1908 546.552,-1882.14 562.536,-1844.51 572.14,-1813.29"/>
<polygon fill="black" stroke="black" points="575.585,-1813.98 575.038,-1803.4 568.867,-1812.01 575.585,-1813.98"/>
<text text-anchor="middle" x="571.107" y="-1871.8" font-family="Times,serif" font-size="14.00">não</text>
</g>
<!-- is_not_enough_flux&#45;&gt;are_you_using_bundler -->
<g id="edge11" class="edge"><title>is_not_enough_flux&#45;&gt;are_you_using_bundler</title>
<path fill="none" stroke="black" d="M719.133,-1974.96C685.248,-1959.55 649.846,-1937.78 625.786,-1908 604.706,-1881.91 594.473,-1845.83 589.527,-1815.49"/>
<polygon fill="black" stroke="black" points="592.967,-1814.82 588.045,-1805.44 586.042,-1815.84 592.967,-1814.82"/>
<text text-anchor="middle" x="636.107" y="-1871.8" font-family="Times,serif" font-size="14.00">não</text>
</g>
<!-- add_flux -->
<g id="node10" class="node"><title>add_flux</title>
<polygon fill="none" stroke="black" points="916.496,-1908 655.504,-1908 655.504,-1844 916.496,-1844 916.496,-1908"/>
<text text-anchor="middle" x="786" y="-1892.8" font-family="Times,serif" font-size="14.00">Considere adicionar a biblioteca Flux.</text>
<text text-anchor="middle" x="786" y="-1878.8" font-family="Times,serif" font-size="14.00"> &#160;&#160;&#160;Ela pode te ajudar a exteriorizar o estado</text>
<text text-anchor="middle" x="786" y="-1864.8" font-family="Times,serif" font-size="14.00"> &#160;&#160;&#160;compartilhado entre muitos componentes</text>
<text text-anchor="middle" x="786" y="-1850.8" font-family="Times,serif" font-size="14.00"> &#160;&#160;&#160;e atualizá&#45;los consistentemente.</text>
</g>
<!-- is_not_enough_flux&#45;&gt;add_flux -->
<g id="edge10" class="edge"><title>is_not_enough_flux&#45;&gt;add_flux</title>
<path fill="none" stroke="black" d="M806.357,-1959.7C802.996,-1946.05 799.358,-1931.27 796.099,-1918.03"/>
<polygon fill="black" stroke="black" points="799.481,-1917.12 793.692,-1908.25 792.684,-1918.8 799.481,-1917.12"/>
<text text-anchor="middle" x="811.114" y="-1928.8" font-family="Times,serif" font-size="14.00">sim</text>
</g>
<!-- remove_flux&#45;&gt;are_you_using_bundler -->
<g id="edge13" class="edge"><title>remove_flux&#45;&gt;are_you_using_bundler</title>
<path fill="none" stroke="black" d="M425.751,-1844C453.278,-1828.96 486.586,-1810.76 515.61,-1794.91"/>
<polygon fill="black" stroke="black" points="517.371,-1797.93 524.468,-1790.07 514.015,-1791.79 517.371,-1797.93"/>
</g>
<!-- are_you_working_on_production_app_with_bundler -->
<g id="node11" class="node"><title>are_you_working_on_production_app_with_bundler</title>
<polygon fill="none" stroke="black" points="480,-1656 298.599,-1620 480,-1584 661.401,-1620 480,-1656"/>
<text text-anchor="middle" x="480" y="-1622.8" font-family="Times,serif" font-size="14.00">Você está trabalhando</text>
<text text-anchor="middle" x="480" y="-1608.8" font-family="Times,serif" font-size="14.00"> &#160;&#160;&#160;em um app para produção?</text>
</g>
<!-- are_you_using_bundler&#45;&gt;are_you_working_on_production_app_with_bundler -->
<g id="edge14" class="edge"><title>are_you_using_bundler&#45;&gt;are_you_working_on_production_app_with_bundler</title>
<path fill="none" stroke="black" d="M553.212,-1714.43C539.621,-1697.09 523.826,-1676.93 510.392,-1659.79"/>
<polygon fill="black" stroke="black" points="512.931,-1657.35 504.008,-1651.64 507.421,-1661.67 512.931,-1657.35"/>
<text text-anchor="middle" x="543.114" y="-1676.8" font-family="Times,serif" font-size="14.00">sim</text>
</g>
<!-- are_you_working_on_production_app_without_bundler -->
<g id="node12" class="node"><title>are_you_working_on_production_app_without_bundler</title>
<polygon fill="none" stroke="black" points="861,-1656 679.599,-1620 861,-1584 1042.4,-1620 861,-1656"/>
<text text-anchor="middle" x="861" y="-1622.8" font-family="Times,serif" font-size="14.00">Você está trabalhando</text>
<text text-anchor="middle" x="861" y="-1608.8" font-family="Times,serif" font-size="14.00"> &#160;&#160;&#160;em um app para produção?</text>
</g>
<!-- are_you_using_bundler&#45;&gt;are_you_working_on_production_app_without_bundler -->
<g id="edge15" class="edge"><title>are_you_using_bundler&#45;&gt;are_you_working_on_production_app_without_bundler</title>
<path fill="none" stroke="black" d="M650.408,-1723.24C695.799,-1701.21 755.837,-1672.06 800.192,-1650.52"/>
<polygon fill="black" stroke="black" points="801.941,-1653.56 809.408,-1646.05 798.883,-1647.27 801.941,-1653.56"/>
<text text-anchor="middle" x="757.107" y="-1676.8" font-family="Times,serif" font-size="14.00">não</text>
</g>
<!-- add_flux&#45;&gt;are_you_using_bundler -->
<g id="edge12" class="edge"><title>add_flux&#45;&gt;are_you_using_bundler</title>
<path fill="none" stroke="black" d="M733.19,-1844C708.109,-1829.27 677.871,-1811.52 651.267,-1795.9"/>
<polygon fill="black" stroke="black" points="652.792,-1792.74 642.397,-1790.7 649.249,-1798.78 652.792,-1792.74"/>
</g>
<!-- do_you_know_es2015 -->
<g id="node13" class="node"><title>do_you_know_es2015</title>
<polygon fill="none" stroke="black" points="764,-1390 469.93,-1340 764,-1290 1058.07,-1340 764,-1390"/>
<text text-anchor="middle" x="764" y="-1349.8" font-family="Times,serif" font-size="14.00">Você se sente</text>
<text text-anchor="middle" x="764" y="-1335.8" font-family="Times,serif" font-size="14.00"> &#160;&#160;&#160;confortável usando funcionalidades do ES2105</text>
<text text-anchor="middle" x="764" y="-1321.8" font-family="Times,serif" font-size="14.00"> &#160;&#160;&#160;(ex: classes e fat arrows)?</text>
</g>
<!-- are_you_working_on_production_app_with_bundler&#45;&gt;do_you_know_es2015 -->
<g id="edge16" class="edge"><title>are_you_working_on_production_app_with_bundler&#45;&gt;do_you_know_es2015</title>
<path fill="none" stroke="black" d="M422.839,-1595.13C397.443,-1581.29 370.098,-1561.16 355.772,-1534 333.794,-1492.33 326.134,-1464.62 355.772,-1428 383.373,-1393.9 476.193,-1372.59 566.361,-1359.61"/>
<polygon fill="black" stroke="black" points="567.072,-1363.04 576.487,-1358.18 566.096,-1356.11 567.072,-1363.04"/>
<text text-anchor="middle" x="366.114" y="-1476.8" font-family="Times,serif" font-size="14.00">sim</text>
</g>
<!-- remove_bundler -->
<g id="node14" class="node"><title>remove_bundler</title>
<polygon fill="none" stroke="black" points="795.179,-1534 384.821,-1534 384.821,-1428 795.179,-1428 795.179,-1534"/>
<text text-anchor="middle" x="590" y="-1518.8" font-family="Times,serif" font-size="14.00">Não se tem necessidade de um empacotador</text>
<text text-anchor="middle" x="590" y="-1504.8" font-family="Times,serif" font-size="14.00"> &#160;&#160;&#160;se você está apenas aprendendo React.</text>
<text text-anchor="middle" x="590" y="-1490.8" font-family="Times,serif" font-size="14.00"> &#160;&#160;&#160;Copie https://github.com/jarsbe/react&#45;simple</text>
<text text-anchor="middle" x="590" y="-1476.8" font-family="Times,serif" font-size="14.00"> &#160;&#160;&#160;e começa a escrever seu código sem executar tarefas automatizadas.</text>
<text text-anchor="middle" x="590" y="-1462.8" font-family="Times,serif" font-size="14.00"> &#160;&#160;&#160;Use &lt;script&gt; tags até você estar confortável</text>
<text text-anchor="middle" x="590" y="-1448.8" font-family="Times,serif" font-size="14.00"> &#160;&#160;&#160;com React e quiser apender mais sobre sistemas</text>
<text text-anchor="middle" x="590" y="-1434.8" font-family="Times,serif" font-size="14.00"> &#160;&#160;&#160;de módulos e diferentes empacotadores.</text>
</g>
<!-- are_you_working_on_production_app_with_bundler&#45;&gt;remove_bundler -->
<g id="edge17" class="edge"><title>are_you_working_on_production_app_with_bundler&#45;&gt;remove_bundler</title>
<path fill="none" stroke="black" d="M504.413,-1588.6C515.455,-1574.84 528.908,-1558.09 541.848,-1541.97"/>
<polygon fill="black" stroke="black" points="544.615,-1544.12 548.147,-1534.13 539.157,-1539.73 544.615,-1544.12"/>
<text text-anchor="middle" x="542.107" y="-1554.8" font-family="Times,serif" font-size="14.00">não</text>
</g>
<!-- are_you_working_on_production_app_without_bundler&#45;&gt;do_you_know_es2015 -->
<g id="edge19" class="edge"><title>are_you_working_on_production_app_without_bundler&#45;&gt;do_you_know_es2015</title>
<path fill="none" stroke="black" d="M852.513,-1585.4C842.43,-1546.88 824.384,-1482.08 804,-1428 800.009,-1417.41 795.313,-1406.3 790.568,-1395.7"/>
<polygon fill="black" stroke="black" points="793.728,-1394.2 786.403,-1386.54 787.356,-1397.09 793.728,-1394.2"/>
<text text-anchor="middle" x="848.107" y="-1476.8" font-family="Times,serif" font-size="14.00">não</text>
</g>
<!-- add_bundler -->
<g id="node15" class="node"><title>add_bundler</title>
<polygon fill="none" stroke="black" points="1187.03,-1534 868.966,-1534 868.966,-1428 1187.03,-1428 1187.03,-1534"/>
<text text-anchor="middle" x="1028" y="-1518.8" font-family="Times,serif" font-size="14.00">Adicione um empacotador como parte do seu</text>
<text text-anchor="middle" x="1028" y="-1504.8" font-family="Times,serif" font-size="14.00"> &#160;&#160;&#160;processo para manter as dependências manuseáveis</text>
<text text-anchor="middle" x="1028" y="-1490.8" font-family="Times,serif" font-size="14.00"> &#160;&#160;&#160;e servir o código JavaScript eficientemente.</text>
<text text-anchor="middle" x="1028" y="-1476.8" font-family="Times,serif" font-size="14.00"> &#160;&#160;&#160;Use a ferramente Google Page Speed Insights</text>
<text text-anchor="middle" x="1028" y="-1462.8" font-family="Times,serif" font-size="14.00"> &#160;&#160;&#160;para medir o quão bem você está indo.</text>
<text text-anchor="middle" x="1028" y="-1448.8" font-family="Times,serif" font-size="14.00"> &#160;&#160;&#160;Lembre&#45;se de minificar e envify</text>
<text text-anchor="middle" x="1028" y="-1434.8" font-family="Times,serif" font-size="14.00"> &#160;&#160;&#160;seu código.</text>
</g>
<!-- are_you_working_on_production_app_without_bundler&#45;&gt;add_bundler -->
<g id="edge18" class="edge"><title>are_you_working_on_production_app_without_bundler&#45;&gt;add_bundler</title>
<path fill="none" stroke="black" d="M895.603,-1590.61C913.301,-1576.09 935.524,-1557.86 956.682,-1540.51"/>
<polygon fill="black" stroke="black" points="958.906,-1543.21 964.418,-1534.16 954.467,-1537.8 958.906,-1543.21"/>
<text text-anchor="middle" x="949.114" y="-1554.8" font-family="Times,serif" font-size="14.00">sim</text>
</g>
<!-- use_es5 -->
<g id="node16" class="node"><title>use_es5</title>
<polygon fill="none" stroke="black" points="923.189,-1094 562.811,-1094 562.811,-946 923.189,-946 923.189,-1094"/>
<text text-anchor="middle" x="743" y="-1078.8" font-family="Times,serif" font-size="14.00">Não use ES2015 ainda.</text>
<text text-anchor="middle" x="743" y="-1064.8" font-family="Times,serif" font-size="14.00"> &#160;&#160;&#160;Você não precisa dele para aprender React.</text>
<text text-anchor="middle" x="743" y="-1050.8" font-family="Times,serif" font-size="14.00"> &#160;&#160;&#160;Bibliotecas de terceiros geralmente vão usar</text>
<text text-anchor="middle" x="743" y="-1036.8" font-family="Times,serif" font-size="14.00"> &#160;&#160;&#160;a sintáxe do ES2015 nas documentações mas</text>
<text text-anchor="middle" x="743" y="-1022.8" font-family="Times,serif" font-size="14.00"> &#160;&#160;&#160;você não precisa dessas bibliotecas quando</text>
<text text-anchor="middle" x="743" y="-1008.8" font-family="Times,serif" font-size="14.00"> &#160;&#160;&#160;você está apenas aprendendo React.</text>
<text text-anchor="middle" x="743" y="-994.8" font-family="Times,serif" font-size="14.00"> &#160;&#160;&#160;Quando você sentir que precisa atualizar seu conhecimento</text>
<text text-anchor="middle" x="743" y="-980.8" font-family="Times,serif" font-size="14.00"> &#160;&#160;&#160;em JavaScript, https://leanpub.com/understandinges6/read</text>
<text text-anchor="middle" x="743" y="-966.8" font-family="Times,serif" font-size="14.00"> &#160;&#160;&#160;é um excelente guia. Use http://babeljs.io/repl</text>
<text text-anchor="middle" x="743" y="-952.8" font-family="Times,serif" font-size="14.00"> &#160;&#160;&#160;para verificar suas suposições.</text>
</g>
<!-- do_you_know_es2015&#45;&gt;use_es5 -->
<g id="edge22" class="edge"><title>do_you_know_es2015&#45;&gt;use_es5</title>
<path fill="none" stroke="black" d="M760.788,-1290.36C757.524,-1240.93 752.406,-1163.44 748.497,-1104.23"/>
<polygon fill="black" stroke="black" points="751.982,-1103.9 747.831,-1094.15 744.997,-1104.36 751.982,-1103.9"/>
<text text-anchor="middle" x="769.107" y="-1260.8" font-family="Times,serif" font-size="14.00">não</text>
</g>
<!-- are_you_using_dangerous_features -->
<g id="node17" class="node"><title>are_you_using_dangerous_features</title>
<polygon fill="none" stroke="black" points="1010,-1240 771.784,-1176 1010,-1112 1248.22,-1176 1010,-1240"/>
<text text-anchor="middle" x="1010" y="-1192.8" font-family="Times,serif" font-size="14.00">Você está usando</text>
<text text-anchor="middle" x="1010" y="-1178.8" font-family="Times,serif" font-size="14.00"> &#160;&#160;&#160;experimentalmente funcionalidades</text>
<text text-anchor="middle" x="1010" y="-1164.8" font-family="Times,serif" font-size="14.00"> &#160;&#160;&#160;que não estão disponíveis no ES2015</text>
<text text-anchor="middle" x="1010" y="-1150.8" font-family="Times,serif" font-size="14.00"> &#160;&#160;&#160;(ex: decorators)?</text>
</g>
<!-- do_you_know_es2015&#45;&gt;are_you_using_dangerous_features -->
<g id="edge23" class="edge"><title>do_you_know_es2015&#45;&gt;are_you_using_dangerous_features</title>
<path fill="none" stroke="black" d="M823.236,-1299.99C856.272,-1278.24 897.791,-1250.89 933.288,-1227.52"/>
<polygon fill="black" stroke="black" points="935.275,-1230.4 941.702,-1221.98 931.425,-1224.55 935.275,-1230.4"/>
<text text-anchor="middle" x="897.114" y="-1260.8" font-family="Times,serif" font-size="14.00">sim</text>
</g>
<!-- remove_bundler&#45;&gt;do_you_know_es2015 -->
<g id="edge21" class="edge"><title>remove_bundler&#45;&gt;do_you_know_es2015</title>
<path fill="none" stroke="black" d="M655.286,-1427.85C671.628,-1414.79 689.061,-1400.87 705.073,-1388.07"/>
<polygon fill="black" stroke="black" points="707.675,-1390.47 713.304,-1381.5 703.306,-1385.01 707.675,-1390.47"/>
</g>
<!-- add_bundler&#45;&gt;do_you_know_es2015 -->
<g id="edge20" class="edge"><title>add_bundler&#45;&gt;do_you_know_es2015</title>
<path fill="none" stroke="black" d="M928.945,-1427.85C900.683,-1412.97 870.269,-1396.95 843.348,-1382.78"/>
<polygon fill="black" stroke="black" points="844.84,-1379.61 834.361,-1378.05 841.579,-1385.8 844.84,-1379.61"/>
</g>
<!-- do_you_update_packages_asap -->
<g id="node18" class="node"><title>do_you_update_packages_asap</title>
<polygon fill="none" stroke="black" points="966,-676 692.702,-626 966,-576 1239.3,-626 966,-676"/>
<text text-anchor="middle" x="966" y="-635.8" font-family="Times,serif" font-size="14.00">Você atualiza para as principais novas versões</text>
<text text-anchor="middle" x="966" y="-621.8" font-family="Times,serif" font-size="14.00"> &#160;&#160;&#160;de suas dependências assim que elas</text>
<text text-anchor="middle" x="966" y="-607.8" font-family="Times,serif" font-size="14.00"> &#160;&#160;&#160;são lançadas?</text>
</g>
<!-- use_es5&#45;&gt;do_you_update_packages_asap -->
<g id="edge24" class="edge"><title>use_es5&#45;&gt;do_you_update_packages_asap</title>
<path fill="none" stroke="black" d="M782.862,-945.936C819.212,-879.765 874.751,-779.796 925,-694 927.714,-689.367 930.563,-684.573 933.441,-679.779"/>
<polygon fill="black" stroke="black" points="936.458,-681.553 938.63,-671.183 930.466,-677.935 936.458,-681.553"/>
</g>
<!-- are_you_using_dangerous_features&#45;&gt;do_you_update_packages_asap -->
<g id="edge26" class="edge"><title>are_you_using_dangerous_features&#45;&gt;do_you_update_packages_asap</title>
<path fill="none" stroke="black" d="M994.012,-1116.16C981.379,-1066.45 964.785,-993.162 958,-928 952.108,-871.417 956.686,-856.874 958,-800 958.878,-761.999 960.84,-719.34 962.601,-685.892"/>
<polygon fill="black" stroke="black" points="966.1,-685.995 963.14,-675.822 959.11,-685.621 966.1,-685.995"/>
<text text-anchor="middle" x="968.107" y="-770.8" font-family="Times,serif" font-size="14.00">não</text>
</g>
<!-- can_you_spend_days_on_your_tooling -->
<g id="node19" class="node"><title>can_you_spend_days_on_your_tooling</title>
<polygon fill="none" stroke="black" points="1169,-928 967.648,-864 1169,-800 1370.35,-864 1169,-928"/>
<text text-anchor="middle" x="1169" y="-880.8" font-family="Times,serif" font-size="14.00">Você pode gastar dias arrumando</text>
<text text-anchor="middle" x="1169" y="-866.8" font-family="Times,serif" font-size="14.00"> &#160;&#160;&#160;suas ferramentas por causa</text>
<text text-anchor="middle" x="1169" y="-852.8" font-family="Times,serif" font-size="14.00"> &#160;&#160;&#160;de erros, incompatibilidades e</text>
<text text-anchor="middle" x="1169" y="-838.8" font-family="Times,serif" font-size="14.00"> &#160;&#160;&#160;mudanças padrões?</text>
</g>
<!-- are_you_using_dangerous_features&#45;&gt;can_you_spend_days_on_your_tooling -->
<g id="edge25" class="edge"><title>are_you_using_dangerous_features&#45;&gt;can_you_spend_days_on_your_tooling</title>
<path fill="none" stroke="black" d="M1038.43,-1119.58C1065.93,-1065.96 1107.56,-984.781 1136.4,-928.569"/>
<polygon fill="black" stroke="black" points="1139.64,-929.917 1141.09,-919.422 1133.41,-926.723 1139.64,-929.917"/>
<text text-anchor="middle" x="1136.11" y="-1015.8" font-family="Times,serif" font-size="14.00">sim</text>
</g>
<!-- give_it_two_months -->
<g id="node21" class="node"><title>give_it_two_months</title>
<polygon fill="none" stroke="black" points="1047.48,-526 676.522,-526 676.522,-378 1047.48,-378 1047.48,-526"/>
<text text-anchor="middle" x="862" y="-510.8" font-family="Times,serif" font-size="14.00">A não ser que estejamos falando de React</text>
<text text-anchor="middle" x="862" y="-496.8" font-family="Times,serif" font-size="14.00"> &#160;&#160;&#160;que é muito bem testado antes de cada lançamento,</text>
<text text-anchor="middle" x="862" y="-482.8" font-family="Times,serif" font-size="14.00"> &#160;&#160;&#160;conside ir devagar em atualizações de pacotes.</text>
<text text-anchor="middle" x="862" y="-468.8" font-family="Times,serif" font-size="14.00"> &#160;&#160;&#160;Você pode tentar novas versões de dependências mas</text>
<text text-anchor="middle" x="862" y="-454.8" font-family="Times,serif" font-size="14.00"> &#160;&#160;&#160;é melhor mantê&#45;los em uma branch por alguns meses</text>
<text text-anchor="middle" x="862" y="-440.8" font-family="Times,serif" font-size="14.00"> &#160;&#160;&#160;até que a comunidades encontre e arrume os</text>
<text text-anchor="middle" x="862" y="-426.8" font-family="Times,serif" font-size="14.00"> &#160;&#160;&#160;erros mais comuns. Não faça decisões baseadas em</text>
<text text-anchor="middle" x="862" y="-412.8" font-family="Times,serif" font-size="14.00"> &#160;&#160;&#160;medo de perder algo! Quando olhar documentações antigas,</text>
<text text-anchor="middle" x="862" y="-398.8" font-family="Times,serif" font-size="14.00"> &#160;&#160;&#160;não se esqueça de checar lançamentos tagged no GitHub, ex:</text>
<text text-anchor="middle" x="862" y="-384.8" font-family="Times,serif" font-size="14.00"> &#160;&#160;&#160;https://github.com/reactjs/react&#45;router/tree/0.13.x/doc</text>
</g>
<!-- do_you_update_packages_asap&#45;&gt;give_it_two_months -->
<g id="edge30" class="edge"><title>do_you_update_packages_asap&#45;&gt;give_it_two_months</title>
<path fill="none" stroke="black" d="M939.217,-580.706C930.737,-566.68 921.076,-550.703 911.526,-534.909"/>
<polygon fill="black" stroke="black" points="914.41,-532.914 906.241,-526.168 908.42,-536.536 914.41,-532.914"/>
<text text-anchor="middle" x="933.114" y="-546.8" font-family="Times,serif" font-size="14.00">sim</text>
</g>
<!-- consider_updating_react -->
<g id="node22" class="node"><title>consider_updating_react</title>
<polygon fill="none" stroke="black" points="1412.33,-519 1065.67,-519 1065.67,-385 1412.33,-385 1412.33,-519"/>
<text text-anchor="middle" x="1239" y="-503.8" font-family="Times,serif" font-size="14.00">É uma boa opção.</text>
<text text-anchor="middle" x="1239" y="-489.8" font-family="Times,serif" font-size="14.00"> &#160;&#160;&#160;Contudo, nós encorajamos você a</text>
<text text-anchor="middle" x="1239" y="-475.8" font-family="Times,serif" font-size="14.00"> &#160;&#160;&#160;tentar (em uma branch!) novas versões do</text>
<text text-anchor="middle" x="1239" y="-461.8" font-family="Times,serif" font-size="14.00"> &#160;&#160;&#160;React assim que elas são lançadas,</text>
<text text-anchor="middle" x="1239" y="-447.8" font-family="Times,serif" font-size="14.00"> &#160;&#160;&#160;ao contrário de muitas comunidades de pacotes,</text>
<text text-anchor="middle" x="1239" y="-433.8" font-family="Times,serif" font-size="14.00"> &#160;&#160;&#160;que são testadas intensivamente pelo Facebook.</text>
<text text-anchor="middle" x="1239" y="-419.8" font-family="Times,serif" font-size="14.00"> &#160;&#160;&#160;Fique de olho na descrição do lançamento que conectam</text>
<text text-anchor="middle" x="1239" y="-405.8" font-family="Times,serif" font-size="14.00"> &#160;&#160;&#160;com os codemods que são partes automatizadas</text>
<text text-anchor="middle" x="1239" y="-391.8" font-family="Times,serif" font-size="14.00"> &#160;&#160;&#160;do processo de migração para você.</text>
</g>
<!-- do_you_update_packages_asap&#45;&gt;consider_updating_react -->
<g id="edge31" class="edge"><title>do_you_update_packages_asap&#45;&gt;consider_updating_react</title>
<path fill="none" stroke="black" d="M1026.59,-586.828C1055.7,-568.489 1091.56,-545.896 1125.47,-524.529"/>
<polygon fill="black" stroke="black" points="1127.45,-527.419 1134.04,-519.127 1123.72,-521.496 1127.45,-527.419"/>
<text text-anchor="middle" x="1104.11" y="-546.8" font-family="Times,serif" font-size="14.00">não</text>
</g>
<!-- can_you_spend_days_on_your_tooling&#45;&gt;do_you_update_packages_asap -->
<g id="edge27" class="edge"><title>can_you_spend_days_on_your_tooling&#45;&gt;do_you_update_packages_asap</title>
<path fill="none" stroke="black" d="M1092.51,-823.927C1062.18,-805.146 1029.25,-780.118 1006.77,-750 992.535,-730.927 983.102,-706.611 976.934,-684.644"/>
<polygon fill="black" stroke="black" points="980.257,-683.52 974.324,-674.743 973.488,-685.305 980.257,-683.52"/>
<text text-anchor="middle" x="1016.11" y="-727.8" font-family="Times,serif" font-size="14.00">sim</text>
</g>
<!-- stick_to_es2015 -->
<g id="node20" class="node"><title>stick_to_es2015</title>
<polygon fill="none" stroke="black" points="1264.04,-750 1035.96,-750 1035.96,-714 1264.04,-714 1264.04,-750"/>
<text text-anchor="middle" x="1150" y="-734.8" font-family="Times,serif" font-size="14.00">Continue usando no máximo ES2015,</text>
<text text-anchor="middle" x="1150" y="-720.8" font-family="Times,serif" font-size="14.00"> &#160;&#160;&#160;JSX, e operador spread do objeto.</text>
</g>
<!-- can_you_spend_days_on_your_tooling&#45;&gt;stick_to_es2015 -->
<g id="edge28" class="edge"><title>can_you_spend_days_on_your_tooling&#45;&gt;stick_to_es2015</title>
<path fill="none" stroke="black" d="M1160.17,-802.567C1157.99,-787.695 1155.77,-772.502 1153.96,-760.124"/>
<polygon fill="black" stroke="black" points="1157.4,-759.438 1152.49,-750.049 1150.47,-760.451 1157.4,-759.438"/>
<text text-anchor="middle" x="1166.11" y="-770.8" font-family="Times,serif" font-size="14.00">não</text>
</g>
<!-- stick_to_es2015&#45;&gt;do_you_update_packages_asap -->
<g id="edge29" class="edge"><title>stick_to_es2015&#45;&gt;do_you_update_packages_asap</title>
<path fill="none" stroke="black" d="M1119.62,-713.827C1098.06,-701.645 1068.16,-684.744 1040.46,-669.087"/>
<polygon fill="black" stroke="black" points="1041.99,-665.929 1031.56,-664.056 1038.54,-672.023 1041.99,-665.929"/>
</g>
<!-- are_you_still_sad -->
<g id="node23" class="node"><title>are_you_still_sad</title>
<polygon fill="none" stroke="black" points="1094,-340 968.7,-322 1094,-304 1219.3,-322 1094,-340"/>
<text text-anchor="middle" x="1094" y="-317.8" font-family="Times,serif" font-size="14.00">Você ainda está triste?</text>
</g>
<!-- give_it_two_months&#45;&gt;are_you_still_sad -->
<g id="edge32" class="edge"><title>give_it_two_months&#45;&gt;are_you_still_sad</title>
<path fill="none" stroke="black" d="M994.602,-377.841C1018.98,-364.392 1042.35,-351.495 1060.3,-341.591"/>
<polygon fill="black" stroke="black" points="1062.11,-344.592 1069.17,-336.697 1058.73,-338.463 1062.11,-344.592"/>
</g>
<!-- consider_updating_react&#45;&gt;are_you_still_sad -->
<g id="edge33" class="edge"><title>consider_updating_react&#45;&gt;are_you_still_sad</title>
<path fill="none" stroke="black" d="M1163.95,-384.75C1147.51,-370.239 1131.25,-355.881 1118.55,-344.668"/>
<polygon fill="black" stroke="black" points="1120.56,-341.777 1110.75,-337.783 1115.93,-347.025 1120.56,-341.777"/>
</g>
<!-- rant -->
<g id="node24" class="node"><title>rant</title>
<polygon fill="none" stroke="black" points="1105.17,-254 806.829,-254 806.829,-148 1105.17,-148 1105.17,-254"/>
<text text-anchor="middle" x="956" y="-238.8" font-family="Times,serif" font-size="14.00">Escreva em um blog uma postagem construtiva</text>
<text text-anchor="middle" x="956" y="-224.8" font-family="Times,serif" font-size="14.00"> &#160;&#160;&#160;sobre os problemas que você encontrar.</text>
<text text-anchor="middle" x="956" y="-210.8" font-family="Times,serif" font-size="14.00"> &#160;&#160;&#160;Não ligue para críticas pessoais.</text>
<text text-anchor="middle" x="956" y="-196.8" font-family="Times,serif" font-size="14.00"> &#160;&#160;&#160;Seja educado. Ajuda a comunidade</text>
<text text-anchor="middle" x="956" y="-182.8" font-family="Times,serif" font-size="14.00"> &#160;&#160;&#160;a encontrar soluções. Considere</text>
<text text-anchor="middle" x="956" y="-168.8" font-family="Times,serif" font-size="14.00"> &#160;&#160;&#160;outras linguagens, frameworks e bibliotecas</text>
<text text-anchor="middle" x="956" y="-154.8" font-family="Times,serif" font-size="14.00"> &#160;&#160;&#160;que se adapte às suas necessidades (ex: Ember).</text>
</g>
<!-- are_you_still_sad&#45;&gt;rant -->
<g id="edge34" class="edge"><title>are_you_still_sad&#45;&gt;rant</title>
<path fill="none" stroke="black" d="M1077.08,-306.408C1063.67,-294.848 1043.99,-277.879 1024.38,-260.968"/>
<polygon fill="black" stroke="black" points="1026.45,-258.129 1016.59,-254.249 1021.88,-263.43 1026.45,-258.129"/>
<text text-anchor="middle" x="1063.11" y="-274.8" font-family="Times,serif" font-size="14.00">sim</text>
</g>
<!-- happy -->
<g id="node25" class="node"><title>happy</title>
<polygon fill="none" stroke="black" points="1216.38,-110 959.623,-110 959.623,-74 1216.38,-74 1216.38,-110"/>
<text text-anchor="middle" x="1088" y="-94.8" font-family="Times,serif" font-size="14.00">React te faz feliz!</text>
<text text-anchor="middle" x="1088" y="-80.8" font-family="Times,serif" font-size="14.00"> &#160;&#160;&#160;Ou, pelo menos, não te deixa mais triste.</text>
</g>
<!-- are_you_still_sad&#45;&gt;happy -->
<g id="edge35" class="edge"><title>are_you_still_sad&#45;&gt;happy</title>
<path fill="none" stroke="black" d="M1100.29,-304.78C1105.12,-291.393 1111.4,-271.777 1114,-254 1120.81,-207.384 1124.32,-193.967 1114,-148 1111.79,-138.162 1107.61,-128.012 1103.24,-119.152"/>
<polygon fill="black" stroke="black" points="1106.25,-117.352 1098.51,-110.119 1100.05,-120.601 1106.25,-117.352"/>
<text text-anchor="middle" x="1130.11" y="-196.8" font-family="Times,serif" font-size="14.00">não</text>
</g>
<!-- rant&#45;&gt;happy -->
<g id="edge36" class="edge"><title>rant&#45;&gt;happy</title>
<path fill="none" stroke="black" d="M1020.45,-147.754C1033.93,-136.826 1047.5,-125.828 1058.9,-116.585"/>
<polygon fill="black" stroke="black" points="1061.23,-119.207 1066.79,-110.191 1056.82,-113.77 1061.23,-119.207"/>
</g>
<!-- share -->
<g id="node26" class="node"><title>share</title>
<path fill="none" stroke="black" d="M1320.29,-36C1320.29,-36 855.712,-36 855.712,-36 849.712,-36 843.712,-30 843.712,-24 843.712,-24 843.712,-12 843.712,-12 843.712,-6 849.712,-0 855.712,-0 855.712,-0 1320.29,-0 1320.29,-0 1326.29,-0 1332.29,-6 1332.29,-12 1332.29,-12 1332.29,-24 1332.29,-24 1332.29,-30 1326.29,-36 1320.29,-36"/>
<text text-anchor="middle" x="1088" y="-20.8" font-family="Times,serif" font-size="14.00">Compartilhe esse fluxograma: https://github.com/brunogenaro/react&#45;makes&#45;you&#45;sad.</text>
<text text-anchor="middle" x="1088" y="-6.8" font-family="Times,serif" font-size="14.00"> &#160;&#160;&#160;Tradução do https://github.com/gaearon/react&#45;makes&#45;you&#45;sad.</text>
</g>
<!-- happy&#45;&gt;share -->
<g id="edge37" class="edge"><title>happy&#45;&gt;share</title>
<path fill="none" stroke="black" d="M1088,-73.937C1088,-65.8072 1088,-55.8761 1088,-46.7047"/>
<polygon fill="black" stroke="black" points="1091.5,-46.4406 1088,-36.4407 1084.5,-46.4407 1091.5,-46.4406"/>
</g>
</g>
</svg>
