<?xml version="1.0" encoding="UTF-8" standalone="no"?>
<!DOCTYPE svg PUBLIC "-//W3C//DTD SVG 1.1//EN"
 "http://www.w3.org/Graphics/SVG/1.1/DTD/svg11.dtd">
<!-- Generated by graphviz version 2.36.0 (20140111.2315)
 -->
<!-- Title: %3 Pages: 1 -->
<svg width="1490pt" height="2696pt"
 viewBox="0.00 0.00 1490.00 2696.00" xmlns="http://www.w3.org/2000/svg" xmlns:xlink="http://www.w3.org/1999/xlink">
<g id="graph0" class="graph" transform="scale(1 1) rotate(0) translate(4 2692)">
<title>%3</title>
<polygon fill="white" stroke="none" points="-4,4 -4,-2692 1486,-2692 1486,4 -4,4"/>
<!-- unhappy -->
<g id="node1" class="node"><title>unhappy</title>
<path fill="none" stroke="black" d="M442.213,-2688C442.213,-2688 335.787,-2688 335.787,-2688 329.787,-2688 323.787,-2682 323.787,-2676 323.787,-2676 323.787,-2664 323.787,-2664 323.787,-2658 329.787,-2652 335.787,-2652 335.787,-2652 442.213,-2652 442.213,-2652 448.213,-2652 454.213,-2658 454.213,-2664 454.213,-2664 454.213,-2676 454.213,-2676 454.213,-2682 448.213,-2688 442.213,-2688"/>
<text text-anchor="middle" x="389" y="-2665.8" font-family="Times,serif" font-size="14.00">React te deixa triste.</text>
</g>
<!-- are_you_using_react_boilerplates -->
<g id="node2" class="node"><title>are_you_using_react_boilerplates</title>
<polygon fill="none" stroke="black" points="389,-2614 206.994,-2564 389,-2514 571.006,-2564 389,-2614"/>
<text text-anchor="middle" x="389" y="-2573.8" font-family="Times,serif" font-size="14.00">Você está aprendendo</text>
<text text-anchor="middle" x="389" y="-2559.8" font-family="Times,serif" font-size="14.00"> &#160;&#160;&#160;React copiando de projetos</text>
<text text-anchor="middle" x="389" y="-2545.8" font-family="Times,serif" font-size="14.00"> &#160;&#160;&#160;boilerplate?</text>
</g>
<!-- unhappy&#45;&gt;are_you_using_react_boilerplates -->
<g id="edge1" class="edge"><title>unhappy&#45;&gt;are_you_using_react_boilerplates</title>
<path fill="none" stroke="black" d="M389,-2651.83C389,-2644.04 389,-2634.32 389,-2624.23"/>
<polygon fill="black" stroke="black" points="392.5,-2624.08 389,-2614.08 385.5,-2624.08 392.5,-2624.08"/>
</g>
<!-- boilerplates_dont_teach -->
<g id="node3" class="node"><title>boilerplates_dont_teach</title>
<polygon fill="none" stroke="black" points="380.344,-2464 -0.343564,-2464 -0.343564,-2246 380.344,-2246 380.344,-2464"/>
<text text-anchor="middle" x="190" y="-2448.8" font-family="Times,serif" font-size="14.00">Aprender React copiando boilerplates</text>
<text text-anchor="middle" x="190" y="-2434.8" font-family="Times,serif" font-size="14.00"> &#160;&#160;&#160;é como aprender cozinhar comendo em restaurantes</text>
<text text-anchor="middle" x="190" y="-2420.8" font-family="Times,serif" font-size="14.00"> &#160;&#160;&#160;chique. Não funciona. Você precisa começar com</text>
<text text-anchor="middle" x="190" y="-2406.8" font-family="Times,serif" font-size="14.00"> &#160;&#160;&#160;o básica e ignorar o medo de não entender algo.</text>
<text text-anchor="middle" x="190" y="-2392.8" font-family="Times,serif" font-size="14.00"> &#160;&#160;&#160;missing out. É sem fundamento. Pessoas criam</text>
<text text-anchor="middle" x="190" y="-2378.8" font-family="Times,serif" font-size="14.00"> &#160;&#160;&#160;boilerplates para mostrar o que eles desenvolveram</text>
<text text-anchor="middle" x="190" y="-2364.8" font-family="Times,serif" font-size="14.00"> &#160;&#160;&#160;ou aprenderam, não para te ajudar a aprender. Eles são</text>
<text text-anchor="middle" x="190" y="-2350.8" font-family="Times,serif" font-size="14.00"> &#160;&#160;&#160;criados por e para usuários ativos e normalmente estão</text>
<text text-anchor="middle" x="190" y="-2336.8" font-family="Times,serif" font-size="14.00"> &#160;&#160;&#160;muito mais para um experimento do que eles admitem.</text>
<text text-anchor="middle" x="190" y="-2322.8" font-family="Times,serif" font-size="14.00"> &#160;&#160;&#160;Boilerplates compentem por atenção o que leva à</text>
<text text-anchor="middle" x="190" y="-2308.8" font-family="Times,serif" font-size="14.00"> &#160;&#160;&#160;excesso de informação. Se você está nessa pelo React, aprenda</text>
<text text-anchor="middle" x="190" y="-2294.8" font-family="Times,serif" font-size="14.00"> &#160;&#160;&#160;na ordem em que o Pete Hunt descreve neste guia:</text>
<text text-anchor="middle" x="190" y="-2280.8" font-family="Times,serif" font-size="14.00"> &#160;&#160;&#160;https://github.com/petehunt/react&#45;howto.</text>
<text text-anchor="middle" x="190" y="-2266.8" font-family="Times,serif" font-size="14.00"> &#160;&#160;&#160;Olhe para boilerplates apenas quando você tem capacidadade</text>
<text text-anchor="middle" x="190" y="-2252.8" font-family="Times,serif" font-size="14.00"> &#160;&#160;&#160;para entender e criar o seu próprio.</text>
</g>
<!-- are_you_using_react_boilerplates&#45;&gt;boilerplates_dont_teach -->
<g id="edge2" class="edge"><title>are_you_using_react_boilerplates&#45;&gt;boilerplates_dont_teach</title>
<path fill="none" stroke="black" d="M351.57,-2524.06C336.894,-2508.8 319.219,-2490.41 301.023,-2471.49"/>
<polygon fill="black" stroke="black" points="303.482,-2468.99 294.028,-2464.21 298.436,-2473.85 303.482,-2468.99"/>
<text text-anchor="middle" x="329.114" y="-2484.8" font-family="Times,serif" font-size="14.00">sim</text>
</g>
<!-- steal_from_boilerplates -->
<g id="node4" class="node"><title>steal_from_boilerplates</title>
<polygon fill="none" stroke="black" points="780.933,-2429 399.067,-2429 399.067,-2281 780.933,-2281 780.933,-2429"/>
<text text-anchor="middle" x="590" y="-2413.8" font-family="Times,serif" font-size="14.00">Enquanto boilerplates não são uma boa maneira</text>
<text text-anchor="middle" x="590" y="-2399.8" font-family="Times,serif" font-size="14.00"> &#160;&#160;&#160;de se aprender tecnologias combinadas,</text>
<text text-anchor="middle" x="590" y="-2385.8" font-family="Times,serif" font-size="14.00"> &#160;&#160;&#160;eles são úteis para ver como essas tecnologias</text>
<text text-anchor="middle" x="590" y="-2371.8" font-family="Times,serif" font-size="14.00"> &#160;&#160;&#160;podem trabalhar juntas *após* você estar confortável</text>
<text text-anchor="middle" x="590" y="-2357.8" font-family="Times,serif" font-size="14.00"> &#160;&#160;&#160;com cada uma delas independentemente. É uma ótima maneira</text>
<text text-anchor="middle" x="590" y="-2343.8" font-family="Times,serif" font-size="14.00"> &#160;&#160;&#160;de descobrir novas tecnologias mas você não deveria</text>
<text text-anchor="middle" x="590" y="-2329.8" font-family="Times,serif" font-size="14.00"> &#160;&#160;&#160;se sentir obrigado a usar todas elas.</text>
<text text-anchor="middle" x="590" y="-2315.8" font-family="Times,serif" font-size="14.00"> &#160;&#160;&#160;Não desista completamente dos boilerplates.</text>
<text text-anchor="middle" x="590" y="-2301.8" font-family="Times,serif" font-size="14.00"> &#160;&#160;&#160;Apenas tenha em mente que um boilerplate é um</text>
<text text-anchor="middle" x="590" y="-2287.8" font-family="Times,serif" font-size="14.00"> &#160;&#160;&#160;combinado de truques e não uma base sólida para seu app.</text>
</g>
<!-- are_you_using_react_boilerplates&#45;&gt;steal_from_boilerplates -->
<g id="edge3" class="edge"><title>are_you_using_react_boilerplates&#45;&gt;steal_from_boilerplates</title>
<path fill="none" stroke="black" d="M426.807,-2524.06C450.81,-2499.34 482.759,-2466.44 512.022,-2436.31"/>
<polygon fill="black" stroke="black" points="514.547,-2438.73 519.002,-2429.12 509.525,-2433.85 514.547,-2438.73"/>
<text text-anchor="middle" x="476.107" y="-2484.8" font-family="Times,serif" font-size="14.00">não</text>
</g>
<!-- are_you_using_flux -->
<g id="node5" class="node"><title>are_you_using_flux</title>
<polygon fill="none" stroke="black" points="436,-2208 294.531,-2158 436,-2108 577.469,-2158 436,-2208"/>
<text text-anchor="middle" x="436" y="-2167.8" font-family="Times,serif" font-size="14.00">Você está usando</text>
<text text-anchor="middle" x="436" y="-2153.8" font-family="Times,serif" font-size="14.00"> &#160;&#160;&#160;uma biblioteca Flux</text>
<text text-anchor="middle" x="436" y="-2139.8" font-family="Times,serif" font-size="14.00"> &#160;&#160;&#160;(ou Redux)?</text>
</g>
<!-- boilerplates_dont_teach&#45;&gt;are_you_using_flux -->
<g id="edge4" class="edge"><title>boilerplates_dont_teach&#45;&gt;are_you_using_flux</title>
<path fill="none" stroke="black" d="M326.31,-2245.95C347.173,-2229.41 367.519,-2213.28 384.91,-2199.5"/>
<polygon fill="black" stroke="black" points="387.537,-2201.88 393.199,-2192.93 383.188,-2196.4 387.537,-2201.88"/>
</g>
<!-- steal_from_boilerplates&#45;&gt;are_you_using_flux -->
<g id="edge5" class="edge"><title>steal_from_boilerplates&#45;&gt;are_you_using_flux</title>
<path fill="none" stroke="black" d="M532.218,-2280.83C512.303,-2255.62 490.555,-2228.08 472.781,-2205.57"/>
<polygon fill="black" stroke="black" points="475.369,-2203.2 466.424,-2197.52 469.875,-2207.54 475.369,-2203.2"/>
</g>
<!-- is_too_much_flux -->
<g id="node6" class="node"><title>is_too_much_flux</title>
<polygon fill="none" stroke="black" points="291,-2058 58.5819,-2008 291,-1958 523.418,-2008 291,-2058"/>
<text text-anchor="middle" x="291" y="-2017.8" font-family="Times,serif" font-size="14.00">Isso adicionar muitos</text>
<text text-anchor="middle" x="291" y="-2003.8" font-family="Times,serif" font-size="14.00"> &#160;&#160;&#160;boilerplates para</text>
<text text-anchor="middle" x="291" y="-1989.8" font-family="Times,serif" font-size="14.00"> &#160;&#160;&#160;para um não resultado significativo?</text>
</g>
<!-- are_you_using_flux&#45;&gt;is_too_much_flux -->
<g id="edge6" class="edge"><title>are_you_using_flux&#45;&gt;is_too_much_flux</title>
<path fill="none" stroke="black" d="M400.157,-2120.42C381.327,-2101.2 358.021,-2077.41 337.785,-2056.75"/>
<polygon fill="black" stroke="black" points="340.266,-2054.28 330.767,-2049.59 335.265,-2059.18 340.266,-2054.28"/>
<text text-anchor="middle" x="378.114" y="-2078.8" font-family="Times,serif" font-size="14.00">sim</text>
</g>
<!-- is_not_enough_flux -->
<g id="node7" class="node"><title>is_not_enough_flux</title>
<polygon fill="none" stroke="black" points="831,-2058 542.079,-2008 831,-1958 1119.92,-2008 831,-2058"/>
<text text-anchor="middle" x="831" y="-2017.8" font-family="Times,serif" font-size="14.00">Você tem alguns estados grandes</text>
<text text-anchor="middle" x="831" y="-2003.8" font-family="Times,serif" font-size="14.00"> &#160;&#160;&#160;em cima da sua hierarquia de componente que</text>
<text text-anchor="middle" x="831" y="-1989.8" font-family="Times,serif" font-size="14.00"> &#160;&#160;&#160;geralmente são a origem dos problemas?</text>
</g>
<!-- are_you_using_flux&#45;&gt;is_not_enough_flux -->
<g id="edge7" class="edge"><title>are_you_using_flux&#45;&gt;is_not_enough_flux</title>
<path fill="none" stroke="black" d="M503.454,-2131.73C566.19,-2108.22 660.441,-2072.91 731.756,-2046.19"/>
<polygon fill="black" stroke="black" points="733.082,-2049.43 741.218,-2042.64 730.626,-2042.87 733.082,-2049.43"/>
<text text-anchor="middle" x="656.107" y="-2078.8" font-family="Times,serif" font-size="14.00">não</text>
</g>
<!-- remove_flux -->
<g id="node8" class="node"><title>remove_flux</title>
<polygon fill="none" stroke="black" points="518.93,-1908 233.07,-1908 233.07,-1844 518.93,-1844 518.93,-1908"/>
<text text-anchor="middle" x="376" y="-1892.8" font-family="Times,serif" font-size="14.00">Remova a biblioteca Flux.</text>
<text text-anchor="middle" x="376" y="-1878.8" font-family="Times,serif" font-size="14.00"> &#160;&#160;&#160;Se sinta confortável em estruturar</text>
<text text-anchor="middle" x="376" y="-1864.8" font-family="Times,serif" font-size="14.00"> &#160;&#160;&#160;apps em React puro (vanilla) lendo o</text>
<text text-anchor="middle" x="376" y="-1850.8" font-family="Times,serif" font-size="14.00"> &#160;&#160;&#160;“Thinking in React” na documentação oficial.</text>
</g>
<!-- is_too_much_flux&#45;&gt;remove_flux -->
<g id="edge8" class="edge"><title>is_too_much_flux&#45;&gt;remove_flux</title>
<path fill="none" stroke="black" d="M319.304,-1963.71C329.235,-1948.52 340.335,-1931.55 350.062,-1916.67"/>
<polygon fill="black" stroke="black" points="353.069,-1918.47 355.612,-1908.18 347.21,-1914.64 353.069,-1918.47"/>
<text text-anchor="middle" x="354.114" y="-1928.8" font-family="Times,serif" font-size="14.00">sim</text>
</g>
<!-- are_you_using_bundler -->
<g id="node9" class="node"><title>are_you_using_bundler</title>
<polygon fill="none" stroke="black" points="593,-1806 405.65,-1756 593,-1706 780.35,-1756 593,-1806"/>
<text text-anchor="middle" x="593" y="-1765.8" font-family="Times,serif" font-size="14.00">Você está usando um</text>
<text text-anchor="middle" x="593" y="-1751.8" font-family="Times,serif" font-size="14.00"> &#160;&#160;&#160;empacotador JavaScript</text>
<text text-anchor="middle" x="593" y="-1737.8" font-family="Times,serif" font-size="14.00"> &#160;&#160;&#160;(ex. Webpack, Browserify)?</text>
</g>
<!-- is_too_much_flux&#45;&gt;are_you_using_bundler -->
<g id="edge9" class="edge"><title>is_too_much_flux&#45;&gt;are_you_using_bundler</title>
<path fill="none" stroke="black" d="M399.102,-1981.2C443.582,-1966.05 492.812,-1942.81 528,-1908 553.907,-1882.37 570.141,-1844.75 579.906,-1813.46"/>
<polygon fill="black" stroke="black" points="583.357,-1814.14 582.853,-1803.55 576.647,-1812.14 583.357,-1814.14"/>
<text text-anchor="middle" x="579.107" y="-1871.8" font-family="Times,serif" font-size="14.00">não</text>
</g>
<!-- is_not_enough_flux&#45;&gt;are_you_using_bundler -->
<g id="edge11" class="edge"><title>is_not_enough_flux&#45;&gt;are_you_using_bundler</title>
<path fill="none" stroke="black" d="M729.591,-1975.49C694.827,-1960.13 658.499,-1938.27 633.786,-1908 612.571,-1882.01 602.333,-1845.95 597.419,-1815.58"/>
<polygon fill="black" stroke="black" points="600.858,-1814.91 595.948,-1805.52 593.932,-1815.92 600.858,-1814.91"/>
<text text-anchor="middle" x="644.107" y="-1871.8" font-family="Times,serif" font-size="14.00">não</text>
</g>
<!-- add_flux -->
<g id="node10" class="node"><title>add_flux</title>
<polygon fill="none" stroke="black" points="924.496,-1908 663.504,-1908 663.504,-1844 924.496,-1844 924.496,-1908"/>
<text text-anchor="middle" x="794" y="-1892.8" font-family="Times,serif" font-size="14.00">Considere adicionar a biblioteca Flux.</text>
<text text-anchor="middle" x="794" y="-1878.8" font-family="Times,serif" font-size="14.00"> &#160;&#160;&#160;Ela pode te ajudar a exteriorizar o estado</text>
<text text-anchor="middle" x="794" y="-1864.8" font-family="Times,serif" font-size="14.00"> &#160;&#160;&#160;compartilhado entre muitos componentes</text>
<text text-anchor="middle" x="794" y="-1850.8" font-family="Times,serif" font-size="14.00"> &#160;&#160;&#160;e atualiza&#45;los consistentemente.</text>
</g>
<!-- is_not_enough_flux&#45;&gt;add_flux -->
<g id="edge10" class="edge"><title>is_not_enough_flux&#45;&gt;add_flux</title>
<path fill="none" stroke="black" d="M817.642,-1960.07C813.716,-1946.27 809.455,-1931.3 805.645,-1917.92"/>
<polygon fill="black" stroke="black" points="808.937,-1916.69 802.833,-1908.03 802.204,-1918.61 808.937,-1916.69"/>
<text text-anchor="middle" x="821.114" y="-1928.8" font-family="Times,serif" font-size="14.00">sim</text>
</g>
<!-- remove_flux&#45;&gt;are_you_using_bundler -->
<g id="edge13" class="edge"><title>remove_flux&#45;&gt;are_you_using_bundler</title>
<path fill="none" stroke="black" d="M433.014,-1844C460.668,-1828.96 494.13,-1810.76 523.288,-1794.91"/>
<polygon fill="black" stroke="black" points="525.075,-1797.92 532.188,-1790.07 521.731,-1791.77 525.075,-1797.92"/>
</g>
<!-- are_you_working_on_production_app_with_bundler -->
<g id="node11" class="node"><title>are_you_working_on_production_app_with_bundler</title>
<polygon fill="none" stroke="black" points="488,-1656 306.599,-1620 488,-1584 669.401,-1620 488,-1656"/>
<text text-anchor="middle" x="488" y="-1622.8" font-family="Times,serif" font-size="14.00">Você está trabalhando</text>
<text text-anchor="middle" x="488" y="-1608.8" font-family="Times,serif" font-size="14.00"> &#160;&#160;&#160;em um app para produção?</text>
</g>
<!-- are_you_using_bundler&#45;&gt;are_you_working_on_production_app_with_bundler -->
<g id="edge14" class="edge"><title>are_you_using_bundler&#45;&gt;are_you_working_on_production_app_with_bundler</title>
<path fill="none" stroke="black" d="M561.212,-1714.43C547.621,-1697.09 531.826,-1676.93 518.392,-1659.79"/>
<polygon fill="black" stroke="black" points="520.931,-1657.35 512.008,-1651.64 515.421,-1661.67 520.931,-1657.35"/>
<text text-anchor="middle" x="551.114" y="-1676.8" font-family="Times,serif" font-size="14.00">sim</text>
</g>
<!-- are_you_working_on_production_app_without_bundler -->
<g id="node12" class="node"><title>are_you_working_on_production_app_without_bundler</title>
<polygon fill="none" stroke="black" points="869,-1656 687.599,-1620 869,-1584 1050.4,-1620 869,-1656"/>
<text text-anchor="middle" x="869" y="-1622.8" font-family="Times,serif" font-size="14.00">Você está trabalhando</text>
<text text-anchor="middle" x="869" y="-1608.8" font-family="Times,serif" font-size="14.00"> &#160;&#160;&#160;em um app para produção?</text>
</g>
<!-- are_you_using_bundler&#45;&gt;are_you_working_on_production_app_without_bundler -->
<g id="edge15" class="edge"><title>are_you_using_bundler&#45;&gt;are_you_working_on_production_app_without_bundler</title>
<path fill="none" stroke="black" d="M658.408,-1723.24C703.799,-1701.21 763.837,-1672.06 808.192,-1650.52"/>
<polygon fill="black" stroke="black" points="809.941,-1653.56 817.408,-1646.05 806.883,-1647.27 809.941,-1653.56"/>
<text text-anchor="middle" x="765.107" y="-1676.8" font-family="Times,serif" font-size="14.00">não</text>
</g>
<!-- add_flux&#45;&gt;are_you_using_bundler -->
<g id="edge12" class="edge"><title>add_flux&#45;&gt;are_you_using_bundler</title>
<path fill="none" stroke="black" d="M741.19,-1844C716.109,-1829.27 685.871,-1811.52 659.267,-1795.9"/>
<polygon fill="black" stroke="black" points="660.792,-1792.74 650.397,-1790.7 657.249,-1798.78 660.792,-1792.74"/>
</g>
<!-- do_you_know_es2015 -->
<g id="node13" class="node"><title>do_you_know_es2015</title>
<polygon fill="none" stroke="black" points="772,-1390 481.765,-1340 772,-1290 1062.24,-1340 772,-1390"/>
<text text-anchor="middle" x="772" y="-1349.8" font-family="Times,serif" font-size="14.00">Você se sente</text>
<text text-anchor="middle" x="772" y="-1335.8" font-family="Times,serif" font-size="14.00"> &#160;&#160;&#160;conforável usando funcionalidades do ES2105</text>
<text text-anchor="middle" x="772" y="-1321.8" font-family="Times,serif" font-size="14.00"> &#160;&#160;&#160;(ex: classes e fat arrows)?</text>
</g>
<!-- are_you_working_on_production_app_with_bundler&#45;&gt;do_you_know_es2015 -->
<g id="edge16" class="edge"><title>are_you_working_on_production_app_with_bundler&#45;&gt;do_you_know_es2015</title>
<path fill="none" stroke="black" d="M430.839,-1595.13C405.443,-1581.29 378.098,-1561.16 363.772,-1534 341.794,-1492.33 334.134,-1464.62 363.772,-1428 391.51,-1393.73 485.118,-1372.38 575.707,-1359.41"/>
<polygon fill="black" stroke="black" points="576.459,-1362.84 585.878,-1357.99 575.489,-1355.91 576.459,-1362.84"/>
<text text-anchor="middle" x="374.114" y="-1476.8" font-family="Times,serif" font-size="14.00">sim</text>
</g>
<!-- remove_bundler -->
<g id="node14" class="node"><title>remove_bundler</title>
<polygon fill="none" stroke="black" points="803.179,-1534 392.821,-1534 392.821,-1428 803.179,-1428 803.179,-1534"/>
<text text-anchor="middle" x="598" y="-1518.8" font-family="Times,serif" font-size="14.00">Não se tem necessidade de um empacotador</text>
<text text-anchor="middle" x="598" y="-1504.8" font-family="Times,serif" font-size="14.00"> &#160;&#160;&#160;se você está apenas aprendendo React.</text>
<text text-anchor="middle" x="598" y="-1490.8" font-family="Times,serif" font-size="14.00"> &#160;&#160;&#160;Copie https://github.com/jarsbe/react&#45;simple</text>
<text text-anchor="middle" x="598" y="-1476.8" font-family="Times,serif" font-size="14.00"> &#160;&#160;&#160;e começa a escrever seu código sem executar tarefas automatizadas.</text>
<text text-anchor="middle" x="598" y="-1462.8" font-family="Times,serif" font-size="14.00"> &#160;&#160;&#160;Use &lt;script&gt; tags até você estar confortável</text>
<text text-anchor="middle" x="598" y="-1448.8" font-family="Times,serif" font-size="14.00"> &#160;&#160;&#160;com React e quiser apender mais sobre sistemas</text>
<text text-anchor="middle" x="598" y="-1434.8" font-family="Times,serif" font-size="14.00"> &#160;&#160;&#160;de módulos e diferentes empacotadores.</text>
</g>
<!-- are_you_working_on_production_app_with_bundler&#45;&gt;remove_bundler -->
<g id="edge17" class="edge"><title>are_you_working_on_production_app_with_bundler&#45;&gt;remove_bundler</title>
<path fill="none" stroke="black" d="M512.413,-1588.6C523.455,-1574.84 536.908,-1558.09 549.848,-1541.97"/>
<polygon fill="black" stroke="black" points="552.615,-1544.12 556.147,-1534.13 547.157,-1539.73 552.615,-1544.12"/>
<text text-anchor="middle" x="550.107" y="-1554.8" font-family="Times,serif" font-size="14.00">não</text>
</g>
<!-- are_you_working_on_production_app_without_bundler&#45;&gt;do_you_know_es2015 -->
<g id="edge19" class="edge"><title>are_you_working_on_production_app_without_bundler&#45;&gt;do_you_know_es2015</title>
<path fill="none" stroke="black" d="M860.513,-1585.4C850.43,-1546.88 832.384,-1482.08 812,-1428 808.009,-1417.41 803.313,-1406.3 798.568,-1395.7"/>
<polygon fill="black" stroke="black" points="801.728,-1394.2 794.403,-1386.54 795.356,-1397.09 801.728,-1394.2"/>
<text text-anchor="middle" x="856.107" y="-1476.8" font-family="Times,serif" font-size="14.00">não</text>
</g>
<!-- add_bundler -->
<g id="node15" class="node"><title>add_bundler</title>
<polygon fill="none" stroke="black" points="1195.03,-1534 876.966,-1534 876.966,-1428 1195.03,-1428 1195.03,-1534"/>
<text text-anchor="middle" x="1036" y="-1518.8" font-family="Times,serif" font-size="14.00">Adicione um empacotador como parte do seu</text>
<text text-anchor="middle" x="1036" y="-1504.8" font-family="Times,serif" font-size="14.00"> &#160;&#160;&#160;processo para manter as dependências manuseáveis</text>
<text text-anchor="middle" x="1036" y="-1490.8" font-family="Times,serif" font-size="14.00"> &#160;&#160;&#160;e servir o código JavaScript eficientemente.</text>
<text text-anchor="middle" x="1036" y="-1476.8" font-family="Times,serif" font-size="14.00"> &#160;&#160;&#160;Use a ferramente Google Page Speed insights</text>
<text text-anchor="middle" x="1036" y="-1462.8" font-family="Times,serif" font-size="14.00"> &#160;&#160;&#160;para medir o quão bem você está indo.</text>
<text text-anchor="middle" x="1036" y="-1448.8" font-family="Times,serif" font-size="14.00"> &#160;&#160;&#160;Lembre&#45;se de minificar e envify</text>
<text text-anchor="middle" x="1036" y="-1434.8" font-family="Times,serif" font-size="14.00"> &#160;&#160;&#160;seu código.</text>
</g>
<!-- are_you_working_on_production_app_without_bundler&#45;&gt;add_bundler -->
<g id="edge18" class="edge"><title>are_you_working_on_production_app_without_bundler&#45;&gt;add_bundler</title>
<path fill="none" stroke="black" d="M903.603,-1590.61C921.301,-1576.09 943.524,-1557.86 964.682,-1540.51"/>
<polygon fill="black" stroke="black" points="966.906,-1543.21 972.418,-1534.16 962.467,-1537.8 966.906,-1543.21"/>
<text text-anchor="middle" x="957.114" y="-1554.8" font-family="Times,serif" font-size="14.00">sim</text>
</g>
<!-- use_es5 -->
<g id="node16" class="node"><title>use_es5</title>
<polygon fill="none" stroke="black" points="931.189,-1094 570.811,-1094 570.811,-946 931.189,-946 931.189,-1094"/>
<text text-anchor="middle" x="751" y="-1078.8" font-family="Times,serif" font-size="14.00">Não use ES2015 ainda.</text>
<text text-anchor="middle" x="751" y="-1064.8" font-family="Times,serif" font-size="14.00"> &#160;&#160;&#160;Você não precisa dele para aprender React.</text>
<text text-anchor="middle" x="751" y="-1050.8" font-family="Times,serif" font-size="14.00"> &#160;&#160;&#160;Bibliotecas de terceiros geralmente vão usar</text>
<text text-anchor="middle" x="751" y="-1036.8" font-family="Times,serif" font-size="14.00"> &#160;&#160;&#160;a sintáxe do ES2015 nas documentações mas</text>
<text text-anchor="middle" x="751" y="-1022.8" font-family="Times,serif" font-size="14.00"> &#160;&#160;&#160;você não precisa dessas bibliotecas quando</text>
<text text-anchor="middle" x="751" y="-1008.8" font-family="Times,serif" font-size="14.00"> &#160;&#160;&#160;você está apenas aprendendo React propriamente dito.</text>
<text text-anchor="middle" x="751" y="-994.8" font-family="Times,serif" font-size="14.00"> &#160;&#160;&#160;Quando você sentir que precisa atualizar seu conhecimento</text>
<text text-anchor="middle" x="751" y="-980.8" font-family="Times,serif" font-size="14.00"> &#160;&#160;&#160;em JavaScript, https://leanpub.com/understandinges6/read</text>
<text text-anchor="middle" x="751" y="-966.8" font-family="Times,serif" font-size="14.00"> &#160;&#160;&#160;é um excelente guia. Use http://babeljs.io/repl</text>
<text text-anchor="middle" x="751" y="-952.8" font-family="Times,serif" font-size="14.00"> &#160;&#160;&#160;para verificar suas suposições.</text>
</g>
<!-- do_you_know_es2015&#45;&gt;use_es5 -->
<g id="edge22" class="edge"><title>do_you_know_es2015&#45;&gt;use_es5</title>
<path fill="none" stroke="black" d="M768.788,-1290.36C765.524,-1240.93 760.406,-1163.44 756.497,-1104.23"/>
<polygon fill="black" stroke="black" points="759.982,-1103.9 755.831,-1094.15 752.997,-1104.36 759.982,-1103.9"/>
<text text-anchor="middle" x="777.107" y="-1260.8" font-family="Times,serif" font-size="14.00">não</text>
</g>
<!-- are_you_using_dangerous_features -->
<g id="node17" class="node"><title>are_you_using_dangerous_features</title>
<polygon fill="none" stroke="black" points="1018,-1240 779.784,-1176 1018,-1112 1256.22,-1176 1018,-1240"/>
<text text-anchor="middle" x="1018" y="-1192.8" font-family="Times,serif" font-size="14.00">Você está usando</text>
<text text-anchor="middle" x="1018" y="-1178.8" font-family="Times,serif" font-size="14.00"> &#160;&#160;&#160;experimentalmente funcionalidades</text>
<text text-anchor="middle" x="1018" y="-1164.8" font-family="Times,serif" font-size="14.00"> &#160;&#160;&#160;que não estão disponíveis no ES2015</text>
<text text-anchor="middle" x="1018" y="-1150.8" font-family="Times,serif" font-size="14.00"> &#160;&#160;&#160;(ex: decorators)?</text>
</g>
<!-- do_you_know_es2015&#45;&gt;are_you_using_dangerous_features -->
<g id="edge23" class="edge"><title>do_you_know_es2015&#45;&gt;are_you_using_dangerous_features</title>
<path fill="none" stroke="black" d="M831.236,-1299.99C864.272,-1278.24 905.791,-1250.89 941.288,-1227.52"/>
<polygon fill="black" stroke="black" points="943.275,-1230.4 949.702,-1221.98 939.425,-1224.55 943.275,-1230.4"/>
<text text-anchor="middle" x="905.114" y="-1260.8" font-family="Times,serif" font-size="14.00">sim</text>
</g>
<!-- remove_bundler&#45;&gt;do_you_know_es2015 -->
<g id="edge21" class="edge"><title>remove_bundler&#45;&gt;do_you_know_es2015</title>
<path fill="none" stroke="black" d="M663.286,-1427.85C679.628,-1414.79 697.061,-1400.87 713.073,-1388.07"/>
<polygon fill="black" stroke="black" points="715.675,-1390.47 721.304,-1381.5 711.306,-1385.01 715.675,-1390.47"/>
</g>
<!-- add_bundler&#45;&gt;do_you_know_es2015 -->
<g id="edge20" class="edge"><title>add_bundler&#45;&gt;do_you_know_es2015</title>
<path fill="none" stroke="black" d="M936.945,-1427.85C908.683,-1412.97 878.269,-1396.95 851.348,-1382.78"/>
<polygon fill="black" stroke="black" points="852.84,-1379.61 842.361,-1378.05 849.579,-1385.8 852.84,-1379.61"/>
</g>
<!-- do_you_update_packages_asap -->
<g id="node18" class="node"><title>do_you_update_packages_asap</title>
<polygon fill="none" stroke="black" points="980,-676 721.445,-626 980,-576 1238.55,-626 980,-676"/>
<text text-anchor="middle" x="980" y="-635.8" font-family="Times,serif" font-size="14.00">Você atualiza para principais novas versões</text>
<text text-anchor="middle" x="980" y="-621.8" font-family="Times,serif" font-size="14.00"> &#160;&#160;&#160;de suas dependências assim que elas</text>
<text text-anchor="middle" x="980" y="-607.8" font-family="Times,serif" font-size="14.00"> &#160;&#160;&#160;são lançadas?</text>
</g>
<!-- use_es5&#45;&gt;do_you_update_packages_asap -->
<g id="edge24" class="edge"><title>use_es5&#45;&gt;do_you_update_packages_asap</title>
<path fill="none" stroke="black" d="M789.243,-945.813C824.73,-879.128 879.92,-778.456 933,-694 936.148,-688.991 939.516,-683.838 942.948,-678.722"/>
<polygon fill="black" stroke="black" points="946.03,-680.415 948.758,-670.177 940.241,-676.479 946.03,-680.415"/>
</g>
<!-- are_you_using_dangerous_features&#45;&gt;do_you_update_packages_asap -->
<g id="edge26" class="edge"><title>are_you_using_dangerous_features&#45;&gt;do_you_update_packages_asap</title>
<path fill="none" stroke="black" d="M1002.01,-1116.16C989.379,-1066.45 972.785,-993.162 966,-928 960.108,-871.417 963.704,-856.843 966,-800 967.543,-761.8 970.995,-718.971 974.086,-685.485"/>
<polygon fill="black" stroke="black" points="977.581,-685.691 975.03,-675.408 970.612,-685.037 977.581,-685.691"/>
<text text-anchor="middle" x="977.107" y="-770.8" font-family="Times,serif" font-size="14.00">não</text>
</g>
<!-- can_you_spend_days_on_your_tooling -->
<g id="node19" class="node"><title>can_you_spend_days_on_your_tooling</title>
<polygon fill="none" stroke="black" points="1229,-928 975.728,-864 1229,-800 1482.27,-864 1229,-928"/>
<text text-anchor="middle" x="1229" y="-880.8" font-family="Times,serif" font-size="14.00">Você pode gastar dias arrumando</text>
<text text-anchor="middle" x="1229" y="-866.8" font-family="Times,serif" font-size="14.00"> &#160;&#160;&#160;suas ferramentas toda semana por causa</text>
<text text-anchor="middle" x="1229" y="-852.8" font-family="Times,serif" font-size="14.00"> &#160;&#160;&#160;de erros, incompatibilidades e</text>
<text text-anchor="middle" x="1229" y="-838.8" font-family="Times,serif" font-size="14.00"> &#160;&#160;&#160;mudanças padrões?</text>
</g>
<!-- are_you_using_dangerous_features&#45;&gt;can_you_spend_days_on_your_tooling -->
<g id="edge25" class="edge"><title>are_you_using_dangerous_features&#45;&gt;can_you_spend_days_on_your_tooling</title>
<path fill="none" stroke="black" d="M1054.27,-1121.71C1090.98,-1067.78 1147.7,-984.45 1186.49,-927.455"/>
<polygon fill="black" stroke="black" points="1189.58,-929.13 1192.32,-918.893 1183.8,-925.191 1189.58,-929.13"/>
<text text-anchor="middle" x="1182.11" y="-1015.8" font-family="Times,serif" font-size="14.00">sim</text>
</g>
<!-- give_it_two_months -->
<g id="node21" class="node"><title>give_it_two_months</title>
<polygon fill="none" stroke="black" points="1058.41,-526 693.592,-526 693.592,-378 1058.41,-378 1058.41,-526"/>
<text text-anchor="middle" x="876" y="-510.8" font-family="Times,serif" font-size="14.00">A não ser que estejamos falando de React</text>
<text text-anchor="middle" x="876" y="-496.8" font-family="Times,serif" font-size="14.00"> &#160;&#160;&#160;que é muito bem testado antes de cada lançamento,</text>
<text text-anchor="middle" x="876" y="-482.8" font-family="Times,serif" font-size="14.00"> &#160;&#160;&#160;conside ir devagar em atualizações de pacotes.</text>
<text text-anchor="middle" x="876" y="-468.8" font-family="Times,serif" font-size="14.00"> &#160;&#160;&#160;Você pode tentar novas versões de dependências mas</text>
<text text-anchor="middle" x="876" y="-454.8" font-family="Times,serif" font-size="14.00"> &#160;&#160;&#160;é melhor mante&#45;los em uma branch por alguns meses</text>
<text text-anchor="middle" x="876" y="-440.8" font-family="Times,serif" font-size="14.00"> &#160;&#160;&#160;até que a comunidades encontre e arrume os</text>
<text text-anchor="middle" x="876" y="-426.8" font-family="Times,serif" font-size="14.00"> &#160;&#160;&#160;erros mais comuns. Não faça decisões baseadas em</text>
<text text-anchor="middle" x="876" y="-412.8" font-family="Times,serif" font-size="14.00"> &#160;&#160;&#160;medo de perder algo! Quando olhar documentações antigas,</text>
<text text-anchor="middle" x="876" y="-398.8" font-family="Times,serif" font-size="14.00"> &#160;&#160;&#160;não se esqueça de checar lançamento tagged no GitHub, ex:</text>
<text text-anchor="middle" x="876" y="-384.8" font-family="Times,serif" font-size="14.00"> &#160;&#160;&#160;https://github.com/reactjs/react&#45;router/tree/0.13.x/doc</text>
</g>
<!-- do_you_update_packages_asap&#45;&gt;give_it_two_months -->
<g id="edge30" class="edge"><title>do_you_update_packages_asap&#45;&gt;give_it_two_months</title>
<path fill="none" stroke="black" d="M953.217,-580.706C944.737,-566.68 935.076,-550.703 925.526,-534.909"/>
<polygon fill="black" stroke="black" points="928.41,-532.914 920.241,-526.168 922.42,-536.536 928.41,-532.914"/>
<text text-anchor="middle" x="947.114" y="-546.8" font-family="Times,serif" font-size="14.00">sim</text>
</g>
<!-- consider_updating_react -->
<g id="node22" class="node"><title>consider_updating_react</title>
<polygon fill="none" stroke="black" points="1423.33,-519 1076.67,-519 1076.67,-385 1423.33,-385 1423.33,-519"/>
<text text-anchor="middle" x="1250" y="-503.8" font-family="Times,serif" font-size="14.00">É uma boa opção.</text>
<text text-anchor="middle" x="1250" y="-489.8" font-family="Times,serif" font-size="14.00"> &#160;&#160;&#160;Contudo, nós encorajamos você a</text>
<text text-anchor="middle" x="1250" y="-475.8" font-family="Times,serif" font-size="14.00"> &#160;&#160;&#160;tentar (em uma branch!) novas versões do</text>
<text text-anchor="middle" x="1250" y="-461.8" font-family="Times,serif" font-size="14.00"> &#160;&#160;&#160;React assim que elas são lançadas.</text>
<text text-anchor="middle" x="1250" y="-447.8" font-family="Times,serif" font-size="14.00"> &#160;&#160;&#160;Ao contrário de muitos comunidades de pacotes,</text>
<text text-anchor="middle" x="1250" y="-433.8" font-family="Times,serif" font-size="14.00"> &#160;&#160;&#160;que são testadas intensivamente pelo Facebook.</text>
<text text-anchor="middle" x="1250" y="-419.8" font-family="Times,serif" font-size="14.00"> &#160;&#160;&#160;Fique de olho na descrição do lançamento que conectam</text>
<text text-anchor="middle" x="1250" y="-405.8" font-family="Times,serif" font-size="14.00"> &#160;&#160;&#160;com os codemods que são partes automatizadas</text>
<text text-anchor="middle" x="1250" y="-391.8" font-family="Times,serif" font-size="14.00"> &#160;&#160;&#160;do processo de migração para você.</text>
</g>
<!-- do_you_update_packages_asap&#45;&gt;consider_updating_react -->
<g id="edge31" class="edge"><title>do_you_update_packages_asap&#45;&gt;consider_updating_react</title>
<path fill="none" stroke="black" d="M1039.25,-587.254C1068.16,-568.839 1103.92,-546.06 1137.72,-524.527"/>
<polygon fill="black" stroke="black" points="1139.71,-527.407 1146.27,-519.083 1135.95,-521.504 1139.71,-527.407"/>
<text text-anchor="middle" x="1116.11" y="-546.8" font-family="Times,serif" font-size="14.00">não</text>
</g>
<!-- can_you_spend_days_on_your_tooling&#45;&gt;do_you_update_packages_asap -->
<g id="edge27" class="edge"><title>can_you_spend_days_on_your_tooling&#45;&gt;do_you_update_packages_asap</title>
<path fill="none" stroke="black" d="M1134.45,-823.703C1099.29,-805.419 1061.3,-780.812 1033.77,-750 1016.79,-730.99 1004.5,-705.772 996,-683.12"/>
<polygon fill="black" stroke="black" points="999.255,-681.827 992.585,-673.595 992.666,-684.189 999.255,-681.827"/>
<text text-anchor="middle" x="1043.11" y="-727.8" font-family="Times,serif" font-size="14.00">sim</text>
</g>
<!-- stick_to_es2015 -->
<g id="node20" class="node"><title>stick_to_es2015</title>
<polygon fill="none" stroke="black" points="1291.04,-750 1062.96,-750 1062.96,-714 1291.04,-714 1291.04,-750"/>
<text text-anchor="middle" x="1177" y="-734.8" font-family="Times,serif" font-size="14.00">Continue usando no máximo ES2015,</text>
<text text-anchor="middle" x="1177" y="-720.8" font-family="Times,serif" font-size="14.00"> &#160;&#160;&#160;JSX, e operador spread do objeto.</text>
</g>
<!-- can_you_spend_days_on_your_tooling&#45;&gt;stick_to_es2015 -->
<g id="edge28" class="edge"><title>can_you_spend_days_on_your_tooling&#45;&gt;stick_to_es2015</title>
<path fill="none" stroke="black" d="M1206.04,-805.602C1199.62,-789.558 1192.96,-772.888 1187.63,-759.574"/>
<polygon fill="black" stroke="black" points="1190.81,-758.097 1183.84,-750.112 1184.31,-760.697 1190.81,-758.097"/>
<text text-anchor="middle" x="1205.11" y="-770.8" font-family="Times,serif" font-size="14.00">não</text>
</g>
<!-- stick_to_es2015&#45;&gt;do_you_update_packages_asap -->
<g id="edge29" class="edge"><title>stick_to_es2015&#45;&gt;do_you_update_packages_asap</title>
<path fill="none" stroke="black" d="M1144.47,-713.827C1120.7,-701.277 1087.44,-683.718 1057.04,-667.672"/>
<polygon fill="black" stroke="black" points="1058.61,-664.544 1048.14,-662.971 1055.35,-670.734 1058.61,-664.544"/>
</g>
<!-- are_you_still_sad -->
<g id="node23" class="node"><title>are_you_still_sad</title>
<polygon fill="none" stroke="black" points="1106,-340 980.7,-322 1106,-304 1231.3,-322 1106,-340"/>
<text text-anchor="middle" x="1106" y="-317.8" font-family="Times,serif" font-size="14.00">Você ainda está triste?</text>
</g>
<!-- give_it_two_months&#45;&gt;are_you_still_sad -->
<g id="edge32" class="edge"><title>give_it_two_months&#45;&gt;are_you_still_sad</title>
<path fill="none" stroke="black" d="M1007.46,-377.841C1031.62,-364.392 1054.8,-351.495 1072.59,-341.591"/>
<polygon fill="black" stroke="black" points="1074.35,-344.618 1081.39,-336.697 1070.95,-338.501 1074.35,-344.618"/>
</g>
<!-- consider_updating_react&#45;&gt;are_you_still_sad -->
<g id="edge33" class="edge"><title>consider_updating_react&#45;&gt;are_you_still_sad</title>
<path fill="none" stroke="black" d="M1175.47,-384.75C1159.14,-370.239 1142.99,-355.881 1130.38,-344.668"/>
<polygon fill="black" stroke="black" points="1132.43,-341.811 1122.63,-337.783 1127.78,-347.042 1132.43,-341.811"/>
</g>
<!-- rant -->
<g id="node24" class="node"><title>rant</title>
<polygon fill="none" stroke="black" points="1117.17,-254 818.829,-254 818.829,-148 1117.17,-148 1117.17,-254"/>
<text text-anchor="middle" x="968" y="-238.8" font-family="Times,serif" font-size="14.00">Escreva em um blog uma postagem construtiva</text>
<text text-anchor="middle" x="968" y="-224.8" font-family="Times,serif" font-size="14.00"> &#160;&#160;&#160;sobre os problemas que você encontrar.</text>
<text text-anchor="middle" x="968" y="-210.8" font-family="Times,serif" font-size="14.00"> &#160;&#160;&#160;Não ligue para ataques pessoais.</text>
<text text-anchor="middle" x="968" y="-196.8" font-family="Times,serif" font-size="14.00"> &#160;&#160;&#160;Seja educato. Ajuda a comunidade</text>
<text text-anchor="middle" x="968" y="-182.8" font-family="Times,serif" font-size="14.00"> &#160;&#160;&#160;a encontrar soluções. Considere</text>
<text text-anchor="middle" x="968" y="-168.8" font-family="Times,serif" font-size="14.00"> &#160;&#160;&#160;outras linguagens, frameworks e bibliotecas</text>
<text text-anchor="middle" x="968" y="-154.8" font-family="Times,serif" font-size="14.00"> &#160;&#160;&#160;que se adapte às suas necessidades (ex: Ember).</text>
</g>
<!-- are_you_still_sad&#45;&gt;rant -->
<g id="edge34" class="edge"><title>are_you_still_sad&#45;&gt;rant</title>
<path fill="none" stroke="black" d="M1089.08,-306.408C1075.67,-294.848 1055.99,-277.879 1036.38,-260.968"/>
<polygon fill="black" stroke="black" points="1038.45,-258.129 1028.59,-254.249 1033.88,-263.43 1038.45,-258.129"/>
<text text-anchor="middle" x="1075.11" y="-274.8" font-family="Times,serif" font-size="14.00">sim</text>
</g>
<!-- happy -->
<g id="node25" class="node"><title>happy</title>
<polygon fill="none" stroke="black" points="1228.38,-110 971.623,-110 971.623,-74 1228.38,-74 1228.38,-110"/>
<text text-anchor="middle" x="1100" y="-94.8" font-family="Times,serif" font-size="14.00">React te faz feliz!</text>
<text text-anchor="middle" x="1100" y="-80.8" font-family="Times,serif" font-size="14.00"> &#160;&#160;&#160;Ou, pelo menos, não te deixa mais triste.</text>
</g>
<!-- are_you_still_sad&#45;&gt;happy -->
<g id="edge35" class="edge"><title>are_you_still_sad&#45;&gt;happy</title>
<path fill="none" stroke="black" d="M1112.29,-304.78C1117.12,-291.393 1123.4,-271.777 1126,-254 1132.81,-207.384 1136.32,-193.967 1126,-148 1123.79,-138.162 1119.61,-128.012 1115.24,-119.152"/>
<polygon fill="black" stroke="black" points="1118.25,-117.352 1110.51,-110.119 1112.05,-120.601 1118.25,-117.352"/>
<text text-anchor="middle" x="1142.11" y="-196.8" font-family="Times,serif" font-size="14.00">não</text>
</g>
<!-- rant&#45;&gt;happy -->
<g id="edge36" class="edge"><title>rant&#45;&gt;happy</title>
<path fill="none" stroke="black" d="M1032.45,-147.754C1045.93,-136.826 1059.5,-125.828 1070.9,-116.585"/>
<polygon fill="black" stroke="black" points="1073.23,-119.207 1078.79,-110.191 1068.82,-113.77 1073.23,-119.207"/>
</g>
<!-- share -->
<g id="node26" class="node"><title>share</title>
<path fill="none" stroke="black" d="M1275.06,-36C1275.06,-36 924.94,-36 924.94,-36 918.94,-36 912.94,-30 912.94,-24 912.94,-24 912.94,-12 912.94,-12 912.94,-6 918.94,-0 924.94,-0 924.94,-0 1275.06,-0 1275.06,-0 1281.06,-0 1287.06,-6 1287.06,-12 1287.06,-12 1287.06,-24 1287.06,-24 1287.06,-30 1281.06,-36 1275.06,-36"/>
<text text-anchor="middle" x="1100" y="-20.8" font-family="Times,serif" font-size="14.00">Compartilhe esse fluxograma: http://bit.ly/react&#45;makes&#45;you&#45;sad.</text>
<text text-anchor="middle" x="1100" y="-6.8" font-family="Times,serif" font-size="14.00"> &#160;&#160;&#160;Tradução do https://github.com/petehunt/react&#45;howto.</text>
</g>
<!-- happy&#45;&gt;share -->
<g id="edge37" class="edge"><title>happy&#45;&gt;share</title>
<path fill="none" stroke="black" d="M1100,-73.937C1100,-65.8072 1100,-55.8761 1100,-46.7047"/>
<polygon fill="black" stroke="black" points="1103.5,-46.4406 1100,-36.4407 1096.5,-46.4407 1103.5,-46.4406"/>
</g>
</g>
</svg>
